<svg width="362" height="212" viewBox="0 0 362 212" fill="none" xmlns="http://www.w3.org/2000/svg">
<path d="M185.752 95.2008C181.084 92.0649 175.491 90.6108 169.889 91.077C164.288 91.5433 159.011 93.9022 154.925 97.7668C150.838 101.631 148.185 106.772 147.401 112.345C146.616 117.918 147.747 123.593 150.608 128.437" stroke="#263238" stroke-width="0.969642" stroke-linecap="round" stroke-linejoin="round"/>
<path d="M194.563 105.727C194.081 104.641 193.522 103.589 192.893 102.581" stroke="#263238" stroke-width="0.969642" stroke-linecap="round" stroke-linejoin="round"/>
<path d="M192.45 129.646C194.298 126.894 195.577 123.799 196.214 120.545C196.851 117.291 196.832 113.942 196.158 110.695" stroke="#263238" stroke-width="0.969642" stroke-linecap="round" stroke-linejoin="round"/>
<path d="M147.303 91.1411C145.617 92.8342 144.107 94.6932 142.795 96.6899" stroke="#263238" stroke-width="0.969642" stroke-linecap="round" stroke-linejoin="round"/>
<path d="M199.413 137.097C204.399 130.643 206.965 122.641 206.662 114.486C206.36 106.331 203.208 98.5416 197.756 92.4758C192.304 86.4099 184.899 82.4529 176.832 81.2946C168.765 80.1364 160.547 81.8506 153.613 86.1382" stroke="#263238" stroke-width="0.969642" stroke-linecap="round" stroke-linejoin="round"/>
<path d="M144.333 137.097C140.893 132.639 138.581 127.413 137.595 121.866C136.608 116.319 136.977 110.616 138.669 105.243" stroke="#263238" stroke-width="0.969642" stroke-linecap="round" stroke-linejoin="round"/>
<path d="M133.428 145.905C135.592 148.673 138.048 151.2 140.752 153.443" stroke="#263238" stroke-width="0.969642" stroke-linecap="round" stroke-linejoin="round"/>
<path d="M199.534 75.4384C190.815 69.4594 180.394 66.4725 169.836 66.9255C159.278 67.3785 149.15 71.2471 140.974 77.951C132.797 84.6549 127.011 93.8326 124.484 104.108C121.958 114.383 122.826 125.201 126.96 134.94" stroke="#263238" stroke-width="0.969642" stroke-linecap="round" stroke-linejoin="round"/>
<path d="M217.463 98.1078C216.15 94.7192 214.464 91.488 212.436 88.4739" stroke="#263238" stroke-width="0.969642" stroke-linecap="round" stroke-linejoin="round"/>
<path d="M205.667 151.112C210.441 146.552 214.239 141.068 216.831 134.994C219.424 128.919 220.757 122.38 220.748 115.774" stroke="#263238" stroke-width="0.969642" stroke-linecap="round" stroke-linejoin="round"/>
<path d="M103.647 115.774C103.648 132.003 109.387 147.708 119.847 160.105C130.308 172.501 144.814 180.788 160.795 183.497" stroke="#263238" stroke-width="0.969642" stroke-linecap="round" stroke-linejoin="round"/>
<path d="M227.007 156.641C235.363 145.32 240.044 131.702 240.416 117.63C240.789 103.558 236.836 89.7105 229.091 77.962C221.347 66.2134 210.185 57.1306 197.116 51.9423C184.047 46.7541 169.702 45.7109 156.021 48.954" stroke="#263238" stroke-width="0.969642" stroke-linecap="round" stroke-linejoin="round"/>
<path d="M103.647 115.774C103.648 100.379 108.813 85.4295 118.315 73.3253C127.816 61.221 141.103 52.6634 156.043 49.0254" stroke="#263238" stroke-width="0.969642" stroke-linecap="round" stroke-linejoin="round"/>
<path d="M212.436 171.15C214.177 169.868 215.853 168.508 217.463 167.07" stroke="#263238" stroke-width="0.969642" stroke-linecap="round" stroke-linejoin="round"/>
<path d="M183.312 183.497C191.112 182.189 198.625 179.532 205.514 175.643" stroke="#263238" stroke-width="0.969642" stroke-linecap="round" stroke-linejoin="round"/>
<path d="M171.903 177.346C164.957 177.338 158.298 174.572 153.386 169.654C148.474 164.735 145.711 158.067 145.703 151.112V142.279C145.703 141.9 145.853 141.537 146.121 141.269C146.388 141.001 146.751 140.851 147.129 140.851H150.695C151.073 140.851 151.436 141.001 151.703 141.269C151.97 141.537 152.121 141.9 152.121 142.279C152.121 142.658 151.97 143.021 151.703 143.289C151.436 143.556 151.073 143.707 150.695 143.707H148.571V151.112C148.571 157.312 151.031 163.259 155.409 167.643C159.788 172.027 165.726 174.49 171.919 174.49C178.111 174.49 184.049 172.027 188.428 167.643C192.806 163.259 195.266 157.312 195.266 151.112V143.707H193.127C192.749 143.707 192.386 143.556 192.119 143.289C191.851 143.021 191.701 142.658 191.701 142.279C191.701 141.9 191.851 141.537 192.119 141.269C192.386 141.001 192.749 140.851 193.127 140.851H196.692C197.071 140.851 197.433 141.001 197.701 141.269C197.968 141.537 198.119 141.9 198.119 142.279V151.112C198.111 158.07 195.345 164.74 190.43 169.659C185.515 174.578 178.852 177.342 171.903 177.346Z" fill="#263238"/>
<path d="M199.53 199.297V196.441C199.531 196.066 199.457 195.694 199.314 195.347C199.171 195 198.961 194.685 198.696 194.42C198.431 194.155 198.116 193.944 197.77 193.801C197.424 193.658 197.052 193.584 196.678 193.585H147.13C146.755 193.584 146.384 193.658 146.037 193.801C145.691 193.944 145.376 194.155 145.111 194.42C144.846 194.685 144.636 195 144.493 195.347C144.35 195.694 144.277 196.066 144.277 196.441V199.297H199.53Z" fill="#263238"/>
<path d="M174.684 197.063C174.731 196.859 174.755 196.65 174.755 196.441V175.918H169.051V196.441C169.051 196.65 169.075 196.859 169.122 197.063H174.684Z" fill="#263238"/>
<path d="M189.546 115.774C189.586 113.429 189.159 111.099 188.29 108.92C187.421 106.741 186.128 104.758 184.485 103.085C182.843 101.412 180.884 100.083 178.723 99.1765C176.563 98.2696 174.243 97.8025 171.9 97.8025C169.558 97.8025 167.238 98.2696 165.077 99.1765C162.917 100.083 160.958 101.412 159.316 103.085C157.673 104.758 156.38 106.741 155.511 108.92C154.642 111.099 154.215 113.429 154.255 115.774V151.112C154.333 155.746 156.227 160.164 159.528 163.413C162.828 166.663 167.272 168.483 171.9 168.483C176.529 168.483 180.973 166.663 184.273 163.413C187.574 160.164 189.468 155.746 189.546 151.112V115.774Z" stroke="#263238" stroke-width="0.969642" stroke-linecap="round" stroke-linejoin="round"/>
<path d="M189.546 115.774C189.586 113.429 189.159 111.099 188.29 108.92C187.421 106.741 186.128 104.758 184.485 103.085C182.843 101.412 180.884 100.083 178.723 99.1765C176.563 98.2696 174.243 97.8025 171.9 97.8025C169.558 97.8025 167.238 98.2696 165.077 99.1765C162.917 100.083 160.958 101.412 159.316 103.085C157.673 104.758 156.38 106.741 155.511 108.92C154.642 111.099 154.215 113.429 154.255 115.774V151.112C154.333 155.746 156.227 160.164 159.528 163.413C162.828 166.663 167.272 168.483 171.9 168.483C176.529 168.483 180.973 166.663 184.273 163.413C187.574 160.164 189.468 155.746 189.546 151.112V115.774Z" fill="#E8E8E8"/>
<path d="M164.594 117.636H154.255V121.92H164.594C165.162 121.92 165.706 121.694 166.107 121.292C166.508 120.891 166.734 120.346 166.734 119.778C166.734 119.21 166.508 118.665 166.107 118.263C165.706 117.861 165.162 117.636 164.594 117.636Z" fill="white"/>
<path d="M189.547 117.636H179.212C178.645 117.636 178.101 117.861 177.7 118.263C177.299 118.665 177.073 119.21 177.073 119.778C177.073 120.346 177.299 120.891 177.7 121.292C178.101 121.694 178.645 121.92 179.212 121.92H189.547V117.636Z" fill="white"/>
<path d="M171.903 117.636C171.48 117.636 171.066 117.761 170.714 117.997C170.363 118.232 170.088 118.567 169.927 118.958C169.765 119.349 169.722 119.78 169.805 120.196C169.887 120.611 170.091 120.993 170.39 121.292C170.689 121.592 171.071 121.796 171.486 121.879C171.901 121.961 172.331 121.919 172.722 121.757C173.112 121.595 173.447 121.32 173.682 120.968C173.917 120.616 174.042 120.201 174.042 119.778C174.042 119.21 173.817 118.665 173.416 118.263C173.014 117.861 172.47 117.636 171.903 117.636Z" fill="white"/>
<path d="M171.903 126.296C171.48 126.296 171.066 126.421 170.714 126.657C170.363 126.892 170.088 127.227 169.927 127.618C169.765 128.009 169.722 128.44 169.805 128.856C169.887 129.271 170.091 129.653 170.39 129.952C170.689 130.252 171.071 130.456 171.486 130.538C171.901 130.621 172.331 130.579 172.722 130.417C173.112 130.254 173.447 129.98 173.682 129.628C173.917 129.275 174.042 128.861 174.042 128.438C174.042 127.87 173.817 127.325 173.416 126.923C173.014 126.521 172.47 126.296 171.903 126.296Z" fill="white"/>
<path d="M171.903 134.94C171.48 134.94 171.066 135.066 170.714 135.301C170.363 135.537 170.088 135.871 169.927 136.262C169.765 136.654 169.722 137.085 169.805 137.5C169.887 137.916 170.091 138.297 170.39 138.597C170.689 138.896 171.071 139.1 171.486 139.183C171.901 139.266 172.331 139.223 172.722 139.061C173.112 138.899 173.447 138.624 173.682 138.272C173.917 137.92 174.042 137.506 174.042 137.082C174.042 136.514 173.817 135.969 173.416 135.568C173.014 135.166 172.47 134.94 171.903 134.94Z" fill="white"/>
<path d="M164.594 126.296H154.255V130.58H164.594C165.162 130.58 165.706 130.354 166.107 129.952C166.508 129.551 166.734 129.006 166.734 128.438C166.734 127.87 166.508 127.325 166.107 126.923C165.706 126.521 165.162 126.296 164.594 126.296Z" fill="white"/>
<path d="M189.547 126.295H179.212C178.645 126.295 178.101 126.521 177.7 126.923C177.299 127.324 177.073 127.869 177.073 128.437C177.073 129.005 177.299 129.55 177.7 129.952C178.101 130.354 178.645 130.579 179.212 130.579H189.547V126.295Z" fill="white"/>
<path d="M164.594 134.94H154.255V139.224H164.594C165.162 139.224 165.706 138.999 166.107 138.597C166.508 138.195 166.734 137.65 166.734 137.082C166.734 136.514 166.508 135.969 166.107 135.568C165.706 135.166 165.162 134.94 164.594 134.94Z" fill="white"/>
<path d="M189.547 134.94H179.212C178.645 134.94 178.101 135.166 177.7 135.567C177.299 135.969 177.073 136.514 177.073 137.082C177.073 137.65 177.299 138.195 177.7 138.597C178.101 138.998 178.645 139.224 179.212 139.224H189.547V134.94Z" fill="white"/>
<path d="M189.546 115.774C189.586 113.429 189.159 111.099 188.29 108.92C187.421 106.741 186.128 104.758 184.485 103.085C182.843 101.412 180.884 100.083 178.723 99.1765C176.563 98.2696 174.243 97.8025 171.9 97.8025C169.558 97.8025 167.238 98.2696 165.077 99.1765C162.917 100.083 160.958 101.412 159.316 103.085C157.673 104.758 156.38 106.741 155.511 108.92C154.642 111.099 154.215 113.429 154.255 115.774V151.112C154.333 155.746 156.227 160.164 159.528 163.413C162.828 166.663 167.272 168.483 171.9 168.483C176.529 168.483 180.973 166.663 184.273 163.413C187.574 160.164 189.468 155.746 189.546 151.112V115.774Z" stroke="#263238" stroke-width="0.969642" stroke-miterlimit="10"/>
<path d="M154.255 151.112C154.334 155.746 156.227 160.164 159.528 163.413C162.829 166.663 167.272 168.483 171.901 168.483C176.529 168.483 180.973 166.663 184.274 163.413C187.574 160.164 189.468 155.746 189.547 151.112H154.255Z" fill="#263238" stroke="#263238" stroke-width="0.969642" stroke-miterlimit="10"/>
<path d="M321.58 142.211C343.615 120.148 343.615 84.3753 321.58 62.3115C299.545 40.2477 263.819 40.2478 241.784 62.3115C219.75 84.3753 219.75 120.148 241.784 142.211C263.819 164.275 299.545 164.275 321.58 142.211Z" fill="#E8E8E8"/>
<path d="M273.591 78.8857H234.174C232.188 78.8857 230.578 80.4978 230.578 82.4863V121.955C230.578 123.944 232.188 125.556 234.174 125.556H273.591C275.577 125.556 277.187 123.944 277.187 121.955V82.4863C277.187 80.4978 275.577 78.8857 273.591 78.8857Z" fill="white"/>
<g opacity="0.1">
<path opacity="0.1" d="M234.974 125.561H250.529L260.44 78.8857H244.254L234.357 125.51C234.561 125.542 234.767 125.559 234.974 125.561Z" fill="black"/>
<path opacity="0.1" d="M267.031 78.8857H263.14L253.233 125.561H257.125L267.031 78.8857Z" fill="black"/>
</g>
<path d="M272.791 126.724H234.973C233.502 126.721 232.091 126.136 231.05 125.095C230.009 124.054 229.421 122.643 229.416 121.17V83.2872C229.419 81.8124 230.005 80.3987 231.047 79.3558C232.088 78.3129 233.5 77.7258 234.973 77.7231H272.791C274.265 77.7245 275.678 78.311 276.72 79.354C277.763 80.397 278.35 81.8115 278.353 83.2872V121.17C278.347 122.644 277.759 124.056 276.717 125.097C275.675 126.138 274.263 126.723 272.791 126.724ZM234.973 80.0538C234.116 80.0538 233.294 80.3943 232.688 81.0006C232.081 81.6068 231.74 82.4292 231.739 83.2872V121.17C231.739 122.029 232.079 122.854 232.686 123.462C233.292 124.07 234.115 124.412 234.973 124.414H272.791C273.216 124.414 273.637 124.33 274.03 124.167C274.422 124.004 274.779 123.765 275.08 123.463C275.38 123.162 275.618 122.804 275.78 122.411C275.943 122.017 276.026 121.596 276.025 121.17V83.2872C276.025 82.8622 275.941 82.4413 275.779 82.0487C275.616 81.6561 275.378 81.2994 275.078 80.9991C274.777 80.6988 274.421 80.4607 274.028 80.2985C273.636 80.1363 273.215 80.0532 272.791 80.0538H234.973Z" fill="white" stroke="#263238" stroke-width="0.932567" stroke-miterlimit="10"/>
<path d="M328.411 78.886H288.993C287.007 78.886 285.397 80.498 285.397 82.4866V121.956C285.397 123.944 287.007 125.556 288.993 125.556H328.411C330.397 125.556 332.007 123.944 332.007 121.956V82.4866C332.007 80.498 330.397 78.886 328.411 78.886Z" fill="white"/>
<g opacity="0.1">
<path opacity="0.1" d="M293.862 125.561H309.417L319.324 78.8857H303.143L293.221 125.51C293.433 125.543 293.648 125.56 293.862 125.561Z" fill="black"/>
<path opacity="0.1" d="M325.92 78.8857H322.029L312.117 125.561H316.014L325.92 78.8857Z" fill="black"/>
</g>
<path d="M327.611 126.724H289.793C288.322 126.721 286.912 126.136 285.87 125.095C284.829 124.054 284.242 122.643 284.236 121.17V83.2872C284.239 81.8124 284.825 80.3987 285.867 79.3558C286.908 78.3129 288.32 77.7258 289.793 77.7231H327.611C329.085 77.7245 330.498 78.311 331.541 79.354C332.583 80.397 333.17 81.8115 333.173 83.2872V121.17C333.168 122.644 332.579 124.056 331.537 125.097C330.495 126.138 329.083 126.723 327.611 126.724ZM289.793 80.0538C288.936 80.0538 288.114 80.3943 287.508 81.0006C286.902 81.6068 286.56 82.4292 286.559 83.2872V121.17C286.559 122.029 286.899 122.854 287.506 123.462C288.112 124.07 288.935 124.412 289.793 124.414H327.611C328.036 124.414 328.457 124.33 328.85 124.167C329.243 124.004 329.6 123.765 329.9 123.463C330.2 123.162 330.438 122.804 330.601 122.411C330.763 122.017 330.846 121.596 330.845 121.17V83.2872C330.845 82.8622 330.762 82.4413 330.599 82.0487C330.437 81.6561 330.198 81.2994 329.898 80.9991C329.597 80.6988 329.241 80.4607 328.848 80.2985C328.456 80.1363 328.036 80.0532 327.611 80.0538H289.793Z" fill="white" stroke="#263238" stroke-width="0.932567" stroke-miterlimit="10"/>
<path d="M283.207 211.17C297.224 211.17 308.587 209.496 308.587 207.431C308.587 205.367 297.224 203.693 283.207 203.693C269.19 203.693 257.827 205.367 257.827 207.431C257.827 209.496 269.19 211.17 283.207 211.17Z" fill="#E8E8E8"/>
<path d="M294.423 185.654C294.423 185.654 294.357 196.125 293.251 197.848C291.932 199.888 290.995 202.739 294.489 203.514C297.983 204.29 300.061 208.15 304.222 208.405C308.384 208.66 308.806 206.875 306.993 205.442C305.18 204.009 300.576 200.036 299.969 198.103C299.363 196.17 300.54 185.654 300.54 185.654H294.423Z" fill="white"/>
<path opacity="0.1" d="M299.985 191.733C300.209 188.648 300.54 185.654 300.54 185.654H294.428C294.428 185.654 294.428 188.332 294.25 191.203C296.144 191.539 298.062 191.716 299.985 191.733Z" fill="black"/>
<path d="M294.423 185.654C294.423 185.654 294.357 196.125 293.251 197.848C291.932 199.888 290.995 202.739 294.489 203.514C297.983 204.29 300.061 208.15 304.222 208.405C308.384 208.66 308.806 206.875 306.993 205.442C305.18 204.009 300.576 200.036 299.969 198.103C299.363 196.17 300.54 185.654 300.54 185.654H294.423Z" stroke="#263238" stroke-width="0.932567" stroke-linecap="round" stroke-linejoin="round"/>
<path d="M306.973 205.443C305.274 204.095 303.661 202.642 302.144 201.092C300.693 202.194 296.44 201.153 295.187 200.164C293.659 198.96 293.98 198.343 293.256 197.803L293.231 197.849C291.912 199.889 290.975 202.74 294.469 203.515C297.963 204.29 300.041 208.151 304.202 208.406C308.363 208.661 308.796 206.85 306.973 205.443Z" fill="#BFBFBF" stroke="#263238" stroke-width="0.932567" stroke-miterlimit="10"/>
<path d="M270.928 181.86C270.928 181.86 266.344 191.438 264.612 192.606C262.519 194.003 260.441 196.252 263.308 198.257C266.176 200.261 266.43 204.575 270.133 206.355C273.836 208.135 274.992 206.631 273.948 204.667C272.904 202.704 270.383 197.328 270.663 195.329C270.943 193.33 276.581 183.9 276.581 183.9L270.928 181.86Z" fill="white"/>
<path opacity="0.1" d="M270.928 181.86C270.928 181.86 269.287 185.297 267.602 188.301C268.963 189.652 270.531 190.777 272.247 191.631C274.004 188.225 276.581 183.915 276.581 183.915L270.928 181.86Z" fill="black"/>
<path d="M270.928 181.86C270.928 181.86 266.344 191.438 264.612 192.606C262.519 194.003 260.441 196.252 263.308 198.257C266.176 200.261 266.43 204.575 270.133 206.355C273.836 208.135 274.992 206.631 273.948 204.667C272.904 202.704 270.383 197.328 270.663 195.329C270.943 193.33 276.581 183.9 276.581 183.9L270.928 181.86Z" stroke="#263238" stroke-width="0.932567" stroke-linecap="round" stroke-linejoin="round"/>
<path d="M273.948 204.642C272.972 202.773 272.121 200.84 271.401 198.858C269.593 199.333 265.834 196.91 265.421 195.431C264.622 192.58 265.095 193.315 264.663 192.55L264.622 192.58C262.528 193.978 260.45 196.227 263.318 198.231C266.185 200.235 266.44 204.55 270.143 206.33C273.846 208.11 274.992 206.605 273.948 204.642Z" fill="#BFBFBF" stroke="#263238" stroke-width="0.932567" stroke-miterlimit="10"/>
<path d="M295.161 114.086C295.161 114.086 302.175 147.746 302.643 158.726C303.112 169.707 301.288 189.291 301.288 189.291L293.501 188.781C293.501 188.781 293.45 182.992 292.67 174.934C292.207 170.145 290.75 164.556 290.913 158.905C290.913 158.905 283.513 136.929 283.783 127.285C284.053 117.641 283.783 114.866 283.783 114.866L295.161 114.086Z" fill="#263238" stroke="#263238" stroke-width="0.932567" stroke-linecap="round" stroke-linejoin="round"/>
<path d="M276.413 114.086C276.413 114.086 269.14 120.104 273.357 132.237C275.017 137.051 281.425 159.073 281.425 159.073C279.664 161.089 278.175 163.326 276.994 165.729C274.07 171.512 271.941 180.519 268.335 185.685L273.673 189.291C273.673 189.291 290.909 167.657 292.009 160.787C293.109 153.917 287.934 126.449 287.934 126.449L286.279 115.285L276.413 114.086Z" fill="#263238" stroke="#263238" stroke-width="0.932567" stroke-linecap="round" stroke-linejoin="round"/>
<path d="M308.67 91.2738C308.574 90.1338 308.19 89.037 307.554 88.0863C308.088 87.3827 308.55 86.6276 308.934 85.8321C309.322 84.8988 308.807 83.5779 307.732 85.1589C306.658 86.7399 305.476 87.8925 305.904 89.8662C306.129 91.1404 305.898 92.4532 305.252 93.5739L307.732 95.517L312.678 91.59L308.67 91.2738Z" fill="white" stroke="#263238" stroke-width="0.932567" stroke-linecap="round" stroke-linejoin="round"/>
<path d="M310.999 81.1855L306.841 82.3174C306.459 82.4216 306.233 82.8168 306.337 83.2L308.706 91.9256C308.81 92.3088 309.205 92.535 309.587 92.4308L313.746 91.2989C314.128 91.1947 314.354 90.7995 314.25 90.4163L311.881 81.6907C311.777 81.3075 311.382 81.0813 310.999 81.1855Z" fill="#263238" stroke="#263238" stroke-width="0.932567" stroke-linecap="round" stroke-linejoin="round"/>
<path d="M311.909 81.7991L306.365 83.3083L308.677 91.8223L314.221 90.313L311.909 81.7991Z" fill="#E8E8E8" stroke="#263238" stroke-width="0.932567" stroke-linecap="round" stroke-linejoin="round"/>
<path d="M310.798 84.7457C310.73 84.4833 310.561 84.2585 310.328 84.1208C310.095 83.9831 309.817 83.9437 309.555 84.0113C309.293 84.079 309.068 84.2481 308.931 84.4814C308.793 84.7148 308.754 84.9933 308.821 85.2557C308.888 85.5107 309.219 86.7092 309.331 87.1325L311.307 86.597C311.195 86.2043 310.859 84.9599 310.798 84.7457Z" fill="#263238"/>
<path d="M310.615 87.9792C310.86 87.9131 311.071 87.7577 311.208 87.5436C311.345 87.3294 311.397 87.0719 311.354 86.8215L309.393 87.3315C309.478 87.5737 309.651 87.7749 309.877 87.8949C310.104 88.015 310.367 88.0451 310.615 87.9792Z" fill="#263238"/>
<path d="M312.458 89.04L311.175 89.3919L310.91 88.4229C311.275 88.2805 311.575 88.0081 311.752 87.6579C311.928 87.3077 311.97 86.9045 311.868 86.5257L311.725 86.0157C311.723 86.0048 311.718 85.9945 311.712 85.9855C311.705 85.9764 311.697 85.9688 311.687 85.963C311.678 85.9573 311.667 85.9536 311.656 85.9521C311.645 85.9507 311.634 85.9515 311.623 85.9545L311.409 86.0106C311.398 86.0135 311.388 86.0186 311.379 86.0257C311.37 86.0328 311.363 86.0416 311.357 86.0517C311.352 86.0618 311.349 86.0729 311.348 86.0843C311.348 86.0956 311.349 86.107 311.353 86.1177C311.355 86.1286 311.36 86.1389 311.367 86.148C311.373 86.157 311.381 86.1646 311.391 86.1704C311.4 86.1761 311.411 86.1798 311.422 86.1813C311.433 86.1828 311.444 86.1819 311.455 86.1789L311.582 86.1432L311.699 86.5767C311.748 86.7565 311.761 86.9442 311.738 87.1291C311.714 87.3139 311.654 87.4923 311.562 87.654C311.469 87.8158 311.346 87.9577 311.199 88.0717C311.052 88.1856 310.883 88.2695 310.704 88.3184C310.524 88.3673 310.337 88.3802 310.152 88.3566C309.967 88.333 309.789 88.2731 309.628 88.1805C309.466 88.088 309.325 87.9644 309.211 87.817C309.097 87.6696 309.013 87.5011 308.964 87.3213L308.842 86.8878L308.969 86.8572C308.991 86.8501 309.009 86.8353 309.021 86.8155C309.032 86.7957 309.035 86.7724 309.03 86.7501C309.028 86.739 309.022 86.7286 309.015 86.7195C309.008 86.7104 309 86.7028 308.99 86.6971C308.98 86.6914 308.969 86.6878 308.957 86.6864C308.946 86.685 308.935 86.6858 308.924 86.6889L308.715 86.745C308.704 86.748 308.693 86.7531 308.684 86.7601C308.675 86.7671 308.667 86.7758 308.662 86.7858C308.656 86.7957 308.652 86.8067 308.651 86.8181C308.65 86.8295 308.65 86.8411 308.654 86.8521L308.796 87.3621C308.899 87.7404 309.138 88.0673 309.467 88.28C309.796 88.4927 310.192 88.5763 310.579 88.5147L310.839 89.4837L309.555 89.8305C309.533 89.8364 309.512 89.8467 309.494 89.8607C309.476 89.8747 309.461 89.8921 309.449 89.912C309.438 89.932 309.431 89.954 309.428 89.9767C309.425 89.9995 309.427 90.0226 309.433 90.0447L309.479 90.213L312.718 89.3307L312.672 89.1624C312.666 89.1402 312.656 89.1194 312.642 89.1013C312.628 89.0831 312.611 89.0679 312.591 89.0565C312.571 89.0451 312.549 89.0378 312.526 89.0349C312.504 89.0321 312.48 89.0338 312.458 89.04Z" fill="#263238"/>
<path d="M312.983 83.787C312.473 83.8431 312.05 84.6438 312.208 85.7709C312.366 86.898 313.4 85.674 313.461 85.317C313.522 84.96 313.955 83.6901 312.983 83.787Z" fill="white" stroke="#263238" stroke-width="0.932567" stroke-linecap="round" stroke-linejoin="round"/>
<path d="M314.104 85.4699C313.968 85.4678 313.834 85.4963 313.71 85.5533C313.587 85.6102 313.478 85.6942 313.392 85.799C313.305 85.9037 313.243 86.0266 313.21 86.1586C313.178 86.2905 313.175 86.4281 313.202 86.5613C313.299 87.6578 313.513 87.4028 313.513 87.4028C313.518 87.8546 313.61 88.3013 313.783 88.7186C314.038 89.2031 314.71 88.4687 314.71 88.0301C314.71 87.5915 314.639 85.2863 314.104 85.4699Z" fill="white" stroke="#263238" stroke-width="0.932567" stroke-linecap="round" stroke-linejoin="round"/>
<path d="M313.518 87.3824C313.518 87.3824 314.399 87.1223 314.608 86.4797L313.518 87.3824Z" fill="white"/>
<path d="M313.518 87.3824C313.518 87.3824 314.399 87.1223 314.608 86.4797" stroke="#263238" stroke-width="0.932567" stroke-linecap="round" stroke-linejoin="round"/>
<path d="M305.862 92.0184C306.033 91.3126 306.047 90.5779 305.903 89.8662C305.475 87.8925 306.651 86.7348 307.731 85.1589C308.811 83.583 309.32 84.8988 308.933 85.8321C308.549 86.6275 308.087 87.3827 307.553 88.0863C308.241 89.0096 308.631 90.1221 308.668 91.2738C308.668 91.6461 308.668 92.7579 308.668 92.7579" fill="white"/>
<path d="M305.862 92.0184C306.033 91.3126 306.047 90.5779 305.903 89.8662C305.475 87.8925 306.651 86.7348 307.731 85.1589C308.811 83.583 309.32 84.8988 308.933 85.8321C308.549 86.6275 308.087 87.3827 307.553 88.0863C308.241 89.0096 308.631 90.1221 308.668 91.2738C308.668 91.6461 308.668 92.7579 308.668 92.7579" stroke="#263238" stroke-width="0.932567" stroke-linecap="round" stroke-linejoin="round"/>
<path d="M292.203 79.6917C293.975 79.3194 294.52 78.8655 294.52 78.8655C293.191 73.5054 297.958 55.4769 282.933 54.6456C267.908 53.8143 276.312 79.3602 276.312 79.3602L277.947 79.5693L277.106 74.4336L279.062 79.6968C284.848 80.3241 288.556 80.2068 290.889 79.911C290.572 77.5947 290.54 75.2482 290.792 72.924C291.086 75.2132 291.558 77.4759 292.203 79.6917Z" fill="#263238"/>
<path d="M282.927 54.967C282.344 54.3868 281.582 54.0208 280.765 53.9282C279.947 53.8357 279.123 54.022 278.425 54.457" stroke="#263238" stroke-width="0.932567" stroke-linecap="round" stroke-linejoin="round"/>
<path d="M294.371 82.9608V82.7976C294.341 82.869 294.31 82.92 294.371 82.9608Z" fill="white" stroke="#263238" stroke-width="0.932567" stroke-linecap="round" stroke-linejoin="round"/>
<path d="M305.252 93.574L298.121 100.204L298.254 90.2693C298.278 88.7689 297.922 87.2868 297.22 85.9609C296.519 84.635 295.493 83.5083 294.24 82.6855L294.51 108.833C301.514 109.277 307.753 95.5171 307.753 95.5171C307.499 95.0333 307.144 94.6096 306.713 94.2744C306.281 93.9393 305.783 93.7005 305.252 93.574Z" fill="white"/>
<path opacity="0.1" d="M297.026 105.625C295.966 105.722 295.727 103.692 295.742 101.719C295.446 102.461 295.249 103.24 295.156 104.034C295.065 106.283 295.065 108.512 295.1 110.419C303.076 106.798 303.173 103.57 305.221 100.275C303.917 101.933 299.068 105.437 297.026 105.625Z" fill="black"/>
<path d="M305.252 93.574L298.121 100.204L298.254 90.2693C298.278 88.7689 297.922 87.2868 297.22 85.9609C296.519 84.635 295.493 83.5083 294.24 82.6855L294.51 108.833C301.514 109.277 307.753 95.5171 307.753 95.5171C307.499 95.0333 307.144 94.6096 306.713 94.2744C306.281 93.9393 305.783 93.7005 305.252 93.574V93.574Z" stroke="#263238" stroke-width="0.932567" stroke-linecap="round" stroke-linejoin="round"/>
<path d="M303.738 94.4306L305.302 92.9465L308.73 95.3027L307.731 96.9653L303.738 94.4306Z" fill="#E8E8E8" stroke="#263238" stroke-width="0.932567" stroke-linecap="round" stroke-linejoin="round"/>
<path d="M297.056 95.1601C294.183 107.91 295.609 116.289 295.609 116.289C295.609 116.289 288.677 121.211 274.105 117.039C274.105 117.039 276.754 110.445 276.041 105.416C275.608 102.32 272.704 91.1923 272.704 91.1923C272.704 91.1923 271.329 86.3268 271.961 82.3998C273.178 81.6093 275.786 80.6556 280.395 80.319C280.472 80.0609 280.525 79.7963 280.553 79.5286C280.7 78.2317 280.732 76.9245 280.65 75.6219C280.584 74.0919 280.457 72.873 280.457 72.873H286.018C286.018 72.873 286.09 74.2806 286.268 75.933C286.365 76.9071 286.502 77.9731 286.675 78.8911C286.761 79.3506 286.872 79.8051 287.007 80.2527C292.558 81.0892 294.647 82.5375 295.049 83.7972C296.939 89.4787 297.667 92.4367 297.056 95.1601Z" fill="white" stroke="#263238" stroke-width="0.932567" stroke-linecap="round" stroke-linejoin="round"/>
<path d="M286.284 76.8306C285.83 77.8506 285.265 78.6564 283.304 78.6462C281.847 78.6462 280.533 77.3559 280.386 76.8612C280.543 75.7443 280.386 75.3312 280.319 74.0664C282.193 74.0135 284.067 74.1227 285.922 74.3928C286.001 75.2111 286.122 76.0247 286.284 76.8306Z" fill="#263238"/>
<path d="M289.981 65.9117C289.981 65.1569 289.981 64.6928 289.981 64.6928C289.568 62.714 287.123 62.612 285.998 62.6171C284.811 62.6555 283.628 62.4489 282.524 62.0102C282.886 62.8761 283.484 63.6221 284.251 64.1624C280.064 63.2291 279.738 61.0157 279.896 59.8223C278.409 65.0294 276.478 65.2487 276.478 65.2487C276.478 65.2487 276.478 65.7128 276.565 66.4625C276.065 66.5774 275.623 66.8692 275.321 67.2843C275.019 67.6994 274.876 68.2099 274.92 68.7218C274.914 69.2731 275.124 69.8048 275.505 70.2031C275.886 70.6015 276.407 70.8349 276.957 70.8536C277.067 70.8487 277.176 70.8333 277.283 70.8077C278.169 74.2553 279.988 78.0038 283.711 77.8559C287.434 77.708 288.952 73.8218 289.553 70.313C289.663 70.3231 289.774 70.3231 289.884 70.313C290.436 70.2575 290.944 69.9855 291.296 69.5564C291.648 69.1273 291.816 68.576 291.764 68.0231C291.765 67.5164 291.587 67.0257 291.26 66.6388C290.934 66.2518 290.48 65.9941 289.981 65.9117Z" fill="white" stroke="#263238" stroke-width="0.932567" stroke-linecap="round" stroke-linejoin="round"/>
<path d="M282.524 71.751L283.166 72.2151C283.247 72.2755 283.345 72.3082 283.446 72.3082C283.547 72.3082 283.645 72.2755 283.726 72.2151L284.317 71.7612" stroke="#263238" stroke-width="0.932567" stroke-linecap="round" stroke-linejoin="round"/>
<path d="M284.97 68.849C284.97 68.849 285.764 67.7984 287.348 68.5379" stroke="#263238" stroke-width="0.932567" stroke-linecap="round" stroke-linejoin="round"/>
<path d="M281.506 68.8492C281.506 68.8492 280.716 67.7986 279.127 68.5381" stroke="#263238" stroke-width="0.932567" stroke-linecap="round" stroke-linejoin="round"/>
<path d="M285 73.6023C284.558 73.9524 284.017 74.1534 283.454 74.1763C282.891 74.1992 282.336 74.0429 281.867 73.7298" stroke="#263238" stroke-width="0.932567" stroke-linecap="round" stroke-linejoin="round"/>
<path d="M291.729 161.904C291.548 162.464 291.337 163.013 291.098 163.551" stroke="white" stroke-width="0.932567" stroke-linecap="round" stroke-linejoin="round"/>
<path d="M284.293 124.74L285.953 126.229C287.435 127.557 288.409 129.36 288.709 131.329C290.13 140.382 292.412 149.689 292.132 159.522" stroke="white" stroke-width="0.932567" stroke-linecap="round" stroke-linejoin="round"/>
<path d="M290.578 125.005L287.944 128.774L288.275 128.31" stroke="white" stroke-width="0.932567" stroke-linecap="round" stroke-linejoin="round"/>
<path d="M280.172 109.884L280.926 110.659" stroke="#263238" stroke-width="0.932567" stroke-linecap="round" stroke-linejoin="round"/>
<path d="M274.717 99.1992C275.51 102.452 276.921 105.522 278.873 108.242" stroke="#263238" stroke-width="0.932567" stroke-linecap="round" stroke-linejoin="round"/>
<path d="M274.864 64.7112L274.299 64.7339L274.38 66.7468L274.944 66.7241L274.864 64.7112Z" fill="white" stroke="#263238" stroke-width="0.932567" stroke-linecap="round" stroke-linejoin="round"/>
<path d="M292.104 63.9845L291.539 64.0073L291.62 66.0202L292.185 65.9974L292.104 63.9845Z" fill="white" stroke="#263238" stroke-width="0.932567" stroke-linecap="round" stroke-linejoin="round"/>
<path d="M282.846 55.5738C280.447 55.6714 278.179 56.6961 276.519 58.4326C274.859 60.1692 273.935 62.4824 273.942 64.8864C273.943 64.9315 273.953 64.976 273.971 65.0172C273.989 65.0585 274.015 65.0957 274.048 65.1266C274.081 65.1576 274.119 65.1816 274.162 65.1972C274.204 65.2129 274.249 65.2199 274.294 65.2179H274.89C274.977 65.2139 275.06 65.176 275.119 65.1122C275.179 65.0484 275.212 64.9637 275.211 64.8762C275.225 62.8138 276.032 60.8362 277.464 59.3538C278.896 57.8714 280.843 56.9983 282.901 56.9156C284.959 56.8329 286.97 57.547 288.516 58.9097C290.062 60.2724 291.025 62.179 291.204 64.2336C291.209 64.3206 291.248 64.4021 291.313 64.4603C291.378 64.5185 291.463 64.5489 291.55 64.5447H292.146C292.191 64.5434 292.235 64.5331 292.276 64.5142C292.316 64.4954 292.353 64.4684 292.383 64.4351C292.413 64.4017 292.436 64.3625 292.45 64.32C292.465 64.2775 292.47 64.2325 292.467 64.1877C292.295 61.7815 291.195 59.5366 289.399 57.9287C287.603 56.3208 285.253 55.4762 282.846 55.5738Z" fill="#E8E8E8" stroke="#263238" stroke-width="0.932567" stroke-linecap="round" stroke-linejoin="round"/>
<path d="M275.904 65.9421H275.771C275.387 65.9579 275.01 66.0492 274.661 66.2108C274.313 66.3725 273.999 66.6013 273.739 66.8843C273.213 67.4558 272.936 68.213 272.967 68.9894C272.999 69.7658 273.338 70.4977 273.908 71.0243C274.479 71.5508 275.235 71.8287 276.011 71.7969H276.138L275.904 65.9421Z" fill="#E8E8E8" stroke="#263238" stroke-width="0.932567" stroke-linecap="round" stroke-linejoin="round"/>
<path d="M276.693 68.8337C276.78 71.0063 276.932 72.4037 276.184 72.4496C275.435 72.4955 275.119 71.0777 275.033 68.8796C274.946 66.6815 275.145 65.3096 275.893 65.2586C276.642 65.2076 276.606 66.6611 276.693 68.8337Z" fill="white" stroke="#263238" stroke-width="0.932567" stroke-linecap="round" stroke-linejoin="round"/>
<path d="M290.623 65.3505H290.755C291.139 65.3351 291.523 65.3956 291.883 65.5284C292.244 65.6613 292.575 65.864 292.857 66.125C293.139 66.3859 293.368 66.7 293.529 67.0493C293.69 67.3985 293.781 67.7762 293.796 68.1606C293.812 68.545 293.751 68.9287 293.618 69.2898C293.486 69.6509 293.283 69.9822 293.023 70.2649C292.762 70.5477 292.448 70.7762 292.1 70.9376C291.751 71.0989 291.374 71.1899 290.99 71.2053H290.857L290.623 65.3505Z" fill="#E8E8E8" stroke="#263238" stroke-width="0.932567" stroke-linecap="round" stroke-linejoin="round"/>
<path d="M290.043 68.2982C290.13 70.4708 290.094 71.8682 290.843 71.8682C291.591 71.8682 291.79 70.4147 291.703 68.2421C291.617 66.0695 291.301 64.6721 290.557 64.6976C289.814 64.7231 289.956 66.1256 290.043 68.2982Z" fill="white" stroke="#263238" stroke-width="0.932567" stroke-linecap="round" stroke-linejoin="round"/>
<path d="M278.027 66.9213C278.027 66.9213 279.968 65.3148 281.807 66.7683" stroke="#263238" stroke-width="0.932567" stroke-linecap="round" stroke-linejoin="round"/>
<path d="M288.678 66.5999C288.678 66.5999 286.64 65.1566 284.898 66.7529" stroke="#263238" stroke-width="0.932567" stroke-linecap="round" stroke-linejoin="round"/>
<path d="M279.662 79.6101C279.662 79.6101 280.823 82.5273 285.132 83.1801C285.132 83.1801 283.411 86.7501 281.058 85.3476C278.241 83.6748 277.701 80.2017 277.701 80.2017L279.662 79.6101Z" fill="#E8E8E8" stroke="#263238" stroke-width="0.932567" stroke-linecap="round" stroke-linejoin="round"/>
<path d="M287.557 79.9722C287.573 80.7488 287.315 81.5062 286.829 82.1115C286.343 82.7167 285.659 83.1312 284.898 83.2821C284.898 83.2821 286.992 86.7195 288.708 84.8121C290.425 82.9047 289.09 80.3088 289.09 80.3088L287.557 79.9722Z" fill="#E8E8E8" stroke="#263238" stroke-width="0.932567" stroke-linecap="round" stroke-linejoin="round"/>
<path d="M286.6 90.0957C286.6 90.1966 286.57 90.2952 286.514 90.379C286.458 90.4629 286.378 90.5283 286.285 90.5669C286.192 90.6055 286.09 90.6156 285.991 90.5959C285.892 90.5762 285.801 90.5276 285.73 90.4563C285.659 90.385 285.61 90.2941 285.591 90.1952C285.571 90.0963 285.581 89.9937 285.62 89.9005C285.658 89.8073 285.724 89.7277 285.807 89.6716C285.891 89.6156 285.99 89.5857 286.09 89.5857C286.225 89.5857 286.355 89.6394 286.451 89.7351C286.546 89.8307 286.6 89.9604 286.6 90.0957Z" fill="#E8E8E8" stroke="#263238" stroke-width="0.932567" stroke-linecap="round" stroke-linejoin="round"/>
<path d="M287.292 100.138C287.292 100.239 287.262 100.337 287.206 100.421C287.15 100.505 287.071 100.57 286.978 100.609C286.885 100.647 286.782 100.658 286.683 100.638C286.585 100.618 286.494 100.57 286.423 100.498C286.351 100.427 286.303 100.336 286.283 100.237C286.264 100.138 286.274 100.036 286.312 99.9425C286.351 99.8493 286.416 99.7697 286.5 99.7136C286.584 99.6576 286.682 99.6277 286.783 99.6277C286.918 99.6277 287.047 99.6814 287.143 99.7771C287.238 99.8727 287.292 100.002 287.292 100.138Z" fill="#E8E8E8" stroke="#263238" stroke-width="0.932567" stroke-linecap="round" stroke-linejoin="round"/>
<path d="M287.944 110.419C287.944 110.52 287.915 110.619 287.859 110.703C287.803 110.786 287.723 110.852 287.63 110.89C287.537 110.929 287.435 110.939 287.336 110.919C287.237 110.9 287.146 110.851 287.075 110.78C287.004 110.708 286.955 110.618 286.936 110.519C286.916 110.42 286.926 110.317 286.965 110.224C287.003 110.131 287.068 110.051 287.152 109.995C287.236 109.939 287.334 109.909 287.435 109.909C287.57 109.909 287.7 109.963 287.795 110.059C287.891 110.154 287.944 110.284 287.944 110.419Z" fill="#E8E8E8" stroke="#263238" stroke-width="0.932567" stroke-linecap="round" stroke-linejoin="round"/>
<path d="M332.827 42.0435H229.626C229.147 42.0435 228.76 42.4316 228.76 42.9105V44.772C228.76 45.2508 229.147 45.639 229.626 45.639H332.827C333.305 45.639 333.693 45.2508 333.693 44.772V42.9105C333.693 42.4316 333.305 42.0435 332.827 42.0435Z" fill="white"/>
<path d="M332.654 45.6392H229.799" stroke="#263238" stroke-width="0.932567" stroke-linecap="round" stroke-linejoin="round"/>
<path d="M229.799 42.0435H332.654" stroke="#263238" stroke-width="0.932567" stroke-linecap="round" stroke-linejoin="round"/>
<path d="M261.815 66.2379C261.815 66.2379 257.562 65.6412 257.333 66.7836C257.104 67.926 257.231 69.7569 257.964 70.3536C259.35 71.4858 259.095 73.6023 259.095 73.6023L262.66 73.2555L262.752 71.4705C262.935 70.8882 263.263 70.3618 263.705 69.9405C264.988 68.7318 264.479 67.3905 264.26 65.7738C264.041 64.1571 262.976 64.8762 262.89 65.7126C262.864 66.4584 262.926 67.2047 263.073 67.9362L261.815 66.2379Z" fill="white" stroke="#263238" stroke-width="0.932567" stroke-linecap="round" stroke-linejoin="round"/>
<path d="M262.814 67.8086C262.814 67.8086 261.795 68.0177 260.99 69.461L262.814 67.8086Z" fill="white"/>
<path d="M262.814 67.8086C262.814 67.8086 261.795 68.0177 260.99 69.461" stroke="#263238" stroke-width="0.932567" stroke-linecap="round" stroke-linejoin="round"/>
<path d="M262.814 68.1862H257.66C257.302 68.197 256.948 68.1222 256.625 67.9678C256.303 67.8134 256.022 67.584 255.806 67.2988C255.621 67.0397 255.522 66.7295 255.522 66.4114C255.522 66.0933 255.621 65.7831 255.806 65.524L258.383 61.7347C258.606 61.4533 258.889 61.226 259.212 61.0697C259.535 60.9134 259.889 60.8323 260.247 60.8323C260.606 60.8323 260.96 60.9134 261.282 61.0697C261.605 61.226 261.889 61.4533 262.111 61.7347L264.694 65.524C264.878 65.7831 264.977 66.0933 264.977 66.4114C264.977 66.7295 264.878 67.0397 264.694 67.2988C264.476 67.5883 264.191 67.8204 263.863 67.975C263.536 68.1296 263.176 68.2021 262.814 68.1862ZM256.702 65.9422C256.605 66.0774 256.553 66.2398 256.553 66.4063C256.553 66.5728 256.605 66.7351 256.702 66.8704C256.815 67.018 256.961 67.1366 257.128 67.2165C257.295 67.2963 257.479 67.335 257.665 67.3294H262.814C263 67.3354 263.184 67.2969 263.351 67.217C263.519 67.1372 263.665 67.0183 263.777 66.8704C263.875 66.7354 263.927 66.573 263.927 66.4063C263.927 66.2396 263.875 66.0771 263.777 65.9422L261.2 62.158C261.087 62.0067 260.94 61.885 260.771 61.8033C260.601 61.7215 260.415 61.6823 260.227 61.6888C260.039 61.6818 259.853 61.7209 259.685 61.8027C259.516 61.8845 259.37 62.0065 259.259 62.158L256.677 65.9473L256.702 65.9422Z" fill="#263238"/>
<path d="M258.693 66.2887C258.958 67.6351 258.795 68.1145 258.184 68.0431C257.573 67.9717 256.957 66.3193 257.802 65.9419C258.648 65.5645 259.33 65.2738 259.33 65.2738C259.601 65.1273 259.902 65.0459 260.21 65.0361C260.517 65.0264 260.823 65.0886 261.103 65.2177C262.315 64.7944 262.529 65.6767 262.529 65.6767C262.529 65.6767 263.405 68.2267 262.676 68.3134C261.948 68.4001 261.347 66.1867 261.347 66.1867C261.347 66.1867 262.259 68.6143 261.423 68.6551C260.588 68.6959 260.104 66.2989 260.104 66.2989C260.104 66.2989 260.649 68.4052 259.86 68.4766C259.07 68.548 258.693 66.2887 258.693 66.2887Z" fill="white" stroke="#263238" stroke-width="0.932567" stroke-linecap="round" stroke-linejoin="round"/>
<path d="M260.618 44.675H259.783V61.4183H260.618V44.675Z" fill="white" stroke="#263238" stroke-width="0.932567" stroke-linecap="round" stroke-linejoin="round"/>
<path d="M261.082 61.1582L260.537 61.9589C260.501 62.0045 260.455 62.0413 260.403 62.0667C260.351 62.092 260.294 62.1052 260.236 62.1052C260.178 62.1052 260.121 62.092 260.069 62.0667C260.017 62.0413 259.972 62.0045 259.936 61.9589L259.396 61.1582C259.263 60.9695 259.432 60.7349 259.691 60.7349H260.781C261.046 60.7349 261.209 60.9899 261.082 61.1582Z" fill="white" stroke="#263238" stroke-width="0.932567" stroke-linecap="round" stroke-linejoin="round"/>
<path d="M260.685 55.5381H259.794C259.549 55.5381 259.351 55.7367 259.351 55.9818V59.6946C259.351 59.9396 259.549 60.1383 259.794 60.1383H260.685C260.93 60.1383 261.128 59.9396 261.128 59.6946V55.9818C261.128 55.7367 260.93 55.5381 260.685 55.5381Z" fill="white" stroke="#263238" stroke-width="0.932567" stroke-linecap="round" stroke-linejoin="round"/>
<path d="M260.685 41.4673H259.794C259.549 41.4673 259.351 41.6659 259.351 41.911V45.6238C259.351 45.8688 259.549 46.0675 259.794 46.0675H260.685C260.93 46.0675 261.128 45.8688 261.128 45.6238V41.911C261.128 41.6659 260.93 41.4673 260.685 41.4673Z" fill="white" stroke="#263238" stroke-width="0.932567" stroke-linecap="round" stroke-linejoin="round"/>
<path d="M250.696 68.186H245.542C245.184 68.1969 244.83 68.122 244.507 67.9677C244.184 67.8133 243.904 67.5839 243.688 67.2986C243.503 67.0395 243.404 66.7293 243.404 66.4112C243.404 66.0932 243.503 65.783 243.688 65.5238L246.265 61.7346C246.488 61.4531 246.772 61.2257 247.095 61.0695C247.418 60.9132 247.773 60.832 248.131 60.832C248.49 60.832 248.845 60.9132 249.168 61.0695C249.491 61.2257 249.775 61.4531 249.998 61.7346L252.575 65.5238C252.76 65.783 252.859 66.0932 252.859 66.4112C252.859 66.7293 252.76 67.0395 252.575 67.2986C252.358 67.5881 252.073 67.8202 251.745 67.9748C251.418 68.1294 251.058 68.2019 250.696 68.186ZM244.584 65.942C244.487 66.0773 244.435 66.2396 244.435 66.4061C244.435 66.5727 244.487 66.735 244.584 66.8702C244.696 67.0179 244.842 67.1365 245.01 67.2163C245.177 67.2962 245.361 67.3349 245.547 67.3292H250.701C250.887 67.3348 251.072 67.2962 251.24 67.2164C251.408 67.1366 251.555 67.018 251.669 66.8702C251.766 66.735 251.818 66.5727 251.818 66.4061C251.818 66.2396 251.766 66.0773 251.669 65.942L249.092 62.1578C248.98 62.0066 248.832 61.8849 248.663 61.8031C248.493 61.7214 248.307 61.6821 248.119 61.6886C247.931 61.6816 247.745 61.7207 247.577 61.8026C247.408 61.8844 247.262 62.0064 247.151 62.1578L244.569 65.9471L244.584 65.942Z" fill="#263238"/>
<path d="M248.501 44.675H247.666V61.4183H248.501V44.675Z" fill="white" stroke="#263238" stroke-width="0.932567" stroke-linecap="round" stroke-linejoin="round"/>
<path d="M248.964 61.1584L248.399 61.9591C248.363 62.0047 248.318 62.0416 248.266 62.0669C248.214 62.0923 248.156 62.1055 248.099 62.1055C248.041 62.1055 247.984 62.0923 247.932 62.0669C247.879 62.0416 247.834 62.0047 247.798 61.9591L247.258 61.1584C247.126 60.9697 247.294 60.7351 247.554 60.7351H248.644C248.908 60.7351 249.092 60.9901 248.964 61.1584Z" fill="white" stroke="#263238" stroke-width="0.932567" stroke-linecap="round" stroke-linejoin="round"/>
<path d="M248.568 55.5381H247.677C247.432 55.5381 247.233 55.7367 247.233 55.9818V59.6946C247.233 59.9396 247.432 60.1383 247.677 60.1383H248.568C248.813 60.1383 249.011 59.9396 249.011 59.6946V55.9818C249.011 55.7367 248.813 55.5381 248.568 55.5381Z" fill="white" stroke="#263238" stroke-width="0.932567" stroke-linecap="round" stroke-linejoin="round"/>
<path d="M248.568 41.4673H247.677C247.432 41.4673 247.233 41.6659 247.233 41.911V45.6238C247.233 45.8688 247.432 46.0675 247.677 46.0675H248.568C248.813 46.0675 249.011 45.8688 249.011 45.6238V41.911C249.011 41.6659 248.813 41.4673 248.568 41.4673Z" fill="white" stroke="#263238" stroke-width="0.932567" stroke-linecap="round" stroke-linejoin="round"/>
<path d="M303.209 68.1859H298.054C297.697 68.1977 297.342 68.1232 297.019 67.9687C296.696 67.8143 296.416 67.5844 296.2 67.2985C296.016 67.0394 295.917 66.7292 295.917 66.4111C295.917 66.0931 296.016 65.7829 296.2 65.5237L298.777 61.7344C299 61.4531 299.284 61.2257 299.606 61.0695C299.929 60.9132 300.283 60.832 300.642 60.832C301 60.832 301.354 60.9132 301.677 61.0695C302 61.2257 302.283 61.4531 302.506 61.7344L305.083 65.5237C305.267 65.7829 305.366 66.0931 305.366 66.4111C305.366 66.7292 305.267 67.0394 305.083 67.2985C304.866 67.5873 304.582 67.819 304.255 67.9735C303.929 68.1281 303.57 68.201 303.209 68.1859ZM297.097 65.9419C296.999 66.0769 296.946 66.2393 296.946 66.406C296.946 66.5728 296.999 66.7352 297.097 66.8701C297.209 67.0181 297.355 67.137 297.522 67.2168C297.69 67.2967 297.874 67.3352 298.059 67.3291H303.214C303.399 67.3352 303.583 67.2967 303.751 67.2168C303.918 67.137 304.064 67.0181 304.176 66.8701C304.274 66.7352 304.327 66.5728 304.327 66.406C304.327 66.2393 304.274 66.0769 304.176 65.9419L301.599 62.1577C301.483 62.0111 301.335 61.8928 301.166 61.8114C300.998 61.73 300.813 61.6877 300.626 61.6877C300.439 61.6877 300.255 61.73 300.086 61.8114C299.918 61.8928 299.77 62.0111 299.654 62.1577L297.076 65.947L297.097 65.9419Z" fill="#263238"/>
<path d="M301.008 44.675H300.173V61.4183H301.008V44.675Z" fill="white" stroke="#263238" stroke-width="0.932567" stroke-linecap="round" stroke-linejoin="round"/>
<path d="M301.472 61.1582L300.932 61.9589C300.897 62.0045 300.851 62.0413 300.799 62.0667C300.747 62.092 300.69 62.1052 300.632 62.1052C300.574 62.1052 300.517 62.092 300.465 62.0667C300.413 62.0413 300.367 62.0045 300.331 61.9589L299.791 61.1582C299.659 60.9695 299.827 60.7349 300.087 60.7349H301.177C301.437 60.7349 301.605 60.9899 301.472 61.1582Z" fill="white" stroke="#263238" stroke-width="0.932567" stroke-linecap="round" stroke-linejoin="round"/>
<path d="M301.081 55.5381H300.189C299.944 55.5381 299.746 55.7367 299.746 55.9818V59.6946C299.746 59.9396 299.944 60.1383 300.189 60.1383H301.081C301.325 60.1383 301.524 59.9396 301.524 59.6946V55.9818C301.524 55.7367 301.325 55.5381 301.081 55.5381Z" fill="white" stroke="#263238" stroke-width="0.932567" stroke-linecap="round" stroke-linejoin="round"/>
<path d="M301.081 41.4673H300.189C299.944 41.4673 299.746 41.6659 299.746 41.911V45.6238C299.746 45.8688 299.944 46.0675 300.189 46.0675H301.081C301.325 46.0675 301.524 45.8688 301.524 45.6238V41.911C301.524 41.6659 301.325 41.4673 301.081 41.4673Z" fill="white" stroke="#263238" stroke-width="0.932567" stroke-linecap="round" stroke-linejoin="round"/>
<path d="M314.756 68.186H309.601C309.244 68.1969 308.889 68.122 308.567 67.9677C308.244 67.8133 307.963 67.5839 307.747 67.2986C307.563 67.0395 307.464 66.7293 307.464 66.4112C307.464 66.0932 307.563 65.783 307.747 65.5238L310.324 61.7346C310.548 61.4531 310.831 61.2257 311.155 61.0695C311.478 60.9132 311.832 60.832 312.191 60.832C312.55 60.832 312.904 60.9132 313.228 61.0695C313.551 61.2257 313.835 61.4531 314.058 61.7346L316.635 65.5238C316.819 65.783 316.918 66.0932 316.918 66.4112C316.918 66.7293 316.819 67.0395 316.635 67.2986C316.417 67.5881 316.132 67.8202 315.805 67.9748C315.477 68.1294 315.117 68.2019 314.756 68.186ZM308.644 65.942C308.547 66.0773 308.494 66.2396 308.494 66.4061C308.494 66.5727 308.547 66.735 308.644 66.8702C308.756 67.0179 308.902 67.1365 309.069 67.2163C309.237 67.2962 309.421 67.3349 309.606 67.3292H314.761C314.947 67.3348 315.131 67.2962 315.3 67.2164C315.468 67.1366 315.615 67.018 315.728 66.8702C315.825 66.735 315.878 66.5727 315.878 66.4061C315.878 66.2396 315.825 66.0773 315.728 65.942L313.151 62.1578C313.039 62.0066 312.892 61.8849 312.723 61.8031C312.553 61.7214 312.366 61.6821 312.178 61.6886C311.991 61.6816 311.805 61.7207 311.636 61.8026C311.467 61.8844 311.321 62.0064 311.211 62.1578L308.628 65.9471L308.644 65.942Z" fill="#263238"/>
<path d="M312.56 44.675H311.725V61.4183H312.56V44.675Z" fill="white" stroke="#263238" stroke-width="0.932567" stroke-linecap="round" stroke-linejoin="round"/>
<path d="M313.024 61.1584L312.479 61.9591C312.443 62.0047 312.398 62.0416 312.346 62.0669C312.294 62.0923 312.237 62.1055 312.179 62.1055C312.121 62.1055 312.064 62.0923 312.012 62.0669C311.96 62.0416 311.914 62.0047 311.878 61.9591L311.338 61.1584C311.206 60.9697 311.374 60.7351 311.634 60.7351H312.724C312.989 60.7351 313.152 60.9901 313.024 61.1584Z" fill="white" stroke="#263238" stroke-width="0.932567" stroke-linecap="round" stroke-linejoin="round"/>
<path d="M312.626 55.5381H311.735C311.49 55.5381 311.292 55.7367 311.292 55.9818V59.6946C311.292 59.9396 311.49 60.1383 311.735 60.1383H312.626C312.871 60.1383 313.07 59.9396 313.07 59.6946V55.9818C313.07 55.7367 312.871 55.5381 312.626 55.5381Z" fill="white" stroke="#263238" stroke-width="0.932567" stroke-linecap="round" stroke-linejoin="round"/>
<path d="M312.626 41.4673H311.735C311.49 41.4673 311.292 41.6659 311.292 41.911V45.6238C311.292 45.8688 311.49 46.0675 311.735 46.0675H312.626C312.871 46.0675 313.07 45.8688 313.07 45.6238V41.911C313.07 41.6659 312.871 41.4673 312.626 41.4673Z" fill="white" stroke="#263238" stroke-width="0.932567" stroke-linecap="round" stroke-linejoin="round"/>
<path d="M263.211 72.4497L263.481 74.6274L257.939 74.8875L258.403 72.7047L263.211 72.4497Z" fill="#E8E8E8" stroke="#263238" stroke-width="0.932567" stroke-linecap="round" stroke-linejoin="round"/>
<path d="M272.608 90.7536C272.608 90.7536 262.987 99.6123 260.766 99.75C260.221 99.7857 259.747 100.127 259.289 99.8163C258.27 99.1227 256.798 97.6539 257.012 91.6869C257.124 88.4229 259.095 74.8212 259.095 74.8212L262.661 74.6631L263.527 89.9631C266.583 86.7909 271.895 82.3947 271.9 82.3947C273.56 87.7089 272.608 90.7536 272.608 90.7536Z" fill="white" stroke="#263238" stroke-width="0.932567" stroke-linecap="round" stroke-linejoin="round"/>
<path d="M296.873 103.07C297.113 102.012 297.569 101.015 298.213 100.143L296.873 103.07Z" fill="white"/>
<path d="M296.873 103.07C297.113 102.012 297.569 101.015 298.213 100.143" stroke="#263238" stroke-width="0.932567" stroke-linecap="round" stroke-linejoin="round"/>
<path d="M262.438 93.5635C262.809 93.3952 263.696 91.7377 263.512 88.9072" stroke="#263238" stroke-width="0.932567" stroke-linecap="round" stroke-linejoin="round"/>
<path d="M265.855 57.2312V51.1367C265.856 50.8422 265.973 50.5602 266.181 50.352C266.389 50.1438 266.671 50.0262 266.965 50.0249H276.52C276.814 50.0262 277.096 50.1438 277.304 50.352C277.511 50.5602 277.629 50.8422 277.63 51.1367V57.2312C277.63 57.5261 277.513 57.8089 277.305 58.0174C277.097 58.2259 276.814 58.343 276.52 58.343H273.194L273.459 60.6635H271.742V62.8565L269.705 59.2865H271.371L271.197 58.3481H266.96C266.814 58.3474 266.67 58.318 266.535 58.2615C266.401 58.205 266.279 58.1226 266.176 58.0189C266.073 57.9151 265.992 57.7922 265.937 57.6571C265.882 57.5219 265.854 57.3772 265.855 57.2312Z" fill="white" stroke="#263238" stroke-width="0.932567" stroke-linecap="round" stroke-linejoin="round"/>
<path d="M274.136 52.1108H267.678" stroke="#263238" stroke-width="0.932567" stroke-linecap="round" stroke-linejoin="round"/>
<path d="M275.807 53.8398H267.678" stroke="#263238" stroke-width="0.932567" stroke-linecap="round" stroke-linejoin="round"/>
<path d="M274.554 55.5635H267.678" stroke="#263238" stroke-width="0.932567" stroke-linecap="round" stroke-linejoin="round"/>
<path d="M53.3452 208.074C66.479 208.074 77.126 206.505 77.126 204.57C77.126 202.635 66.479 201.067 53.3452 201.067C40.2115 201.067 29.5645 202.635 29.5645 204.57C29.5645 206.505 40.2115 208.074 53.3452 208.074Z" fill="#E8E8E8"/>
<path d="M51.2625 148.736C74.1348 148.736 92.6764 130.17 92.6764 107.267C92.6764 84.3652 74.1348 65.7993 51.2625 65.7993C28.3903 65.7993 9.84863 84.3652 9.84863 107.267C9.84863 130.17 28.3903 148.736 51.2625 148.736Z" fill="#E8E8E8"/>
<path d="M32.1622 134.384C32.1622 134.384 33.2165 140.504 29.6562 147.384H74.1771C74.1771 147.384 72.1398 144.176 70.0056 134.384H32.1622Z" fill="white" stroke="#263238" stroke-width="0.87381" stroke-linecap="round" stroke-linejoin="round"/>
<path d="M42.3131 135.797C39.8762 135.992 37.5405 136.858 35.5633 138.297C33.5861 139.737 32.0443 141.696 31.1078 143.957C30.629 145.12 30.1299 146.298 29.6562 147.399C26.9466 153.677 29.5085 162.812 36.4354 162.812H68.1975C74.4775 162.812 76.194 154.85 74.6915 148.853C73.7237 144.997 71.773 141.126 68.4419 138.413C63.9904 134.767 50.982 135.103 42.3131 135.797Z" fill="#263238" stroke="#263238" stroke-width="0.87381" stroke-linecap="round" stroke-linejoin="round"/>
<path d="M11.9883 129.06C11.9883 129.06 6.29392 132.507 6.10547 134.384H13.0884L15.8643 132.39L14.9271 134.394H17.051C17.051 134.394 19.3074 132.64 19.4296 130.697L19.2004 129.06L15.1258 127.244L11.9883 129.06Z" fill="white" stroke="#263238" stroke-width="0.87381" stroke-linecap="round" stroke-linejoin="round"/>
<path d="M78.6906 116.396C78.6906 116.396 77.7789 110.394 75.7772 101.749C73.7756 93.1048 69.8639 92.4265 69.8639 92.4265H69.8282C64.7349 90.2335 51.4922 89.0503 51.4922 89.0503H50.881C50.881 89.0503 37.6078 90.2335 32.545 92.4265H32.5094C32.5094 92.4265 28.562 93.1201 26.5604 101.749C24.5587 110.378 23.6419 116.396 23.6419 116.396C23.6419 116.396 20.0256 117.376 13.5163 125.576C12.4944 126.877 11.6245 128.29 10.9238 129.789C10.9238 129.789 15.9255 128.142 19.4297 130.666C19.4297 130.666 30.9101 125.791 31.4856 120.65C31.4856 120.466 31.5315 120.262 31.5569 120.043C31.8829 127.846 32.163 134.364 32.163 134.364H70.1695C70.1695 134.364 70.4547 127.846 70.7807 120.043C70.7807 120.262 70.8265 120.466 70.8469 120.65C71.4275 125.791 84.1354 131.554 84.1354 131.554C87.6192 126.188 92.6769 129.152 92.6769 129.152L78.6906 116.396Z" fill="white"/>
<path opacity="0.3" d="M31.4856 120.66C31.4856 120.507 31.5264 120.334 31.5467 120.15L30.7165 102.091C30.7165 102.091 28.4245 102.56 29.0816 108.104C29.7386 113.647 31.1189 112.694 30.3498 114.831C29.5807 116.968 26.596 114.52 25.6079 116.361C24.6198 118.202 31.1291 117.809 28.4398 122.552C25.7505 127.295 19.4297 130.712 19.4297 130.712C19.4297 130.712 30.9152 125.811 31.4856 120.66Z" fill="black"/>
<g opacity="0.3">
<path opacity="0.3" d="M71.0254 120.66C71.0254 120.507 72.5228 120.772 71.0254 120.66L71.4787 105.202C71.4787 105.202 71.3666 112.678 72.1663 114.83C72.966 116.983 75.9201 114.519 76.9031 116.36C77.8861 118.202 71.3819 117.809 74.0763 122.552C76.7707 127.295 83.0813 130.712 83.0813 130.712C83.0813 130.712 71.606 125.811 71.0254 120.66Z" fill="black"/>
</g>
<path opacity="0.3" d="M70.4451 124.179C70.1956 130.029 70.0071 134.379 70.0071 134.379H35.8359C58.7559 134.379 70.4706 124.179 70.4706 124.179H70.4451Z" fill="black"/>
<path d="M78.6906 116.396C78.6906 116.396 77.7789 110.394 75.7772 101.749C73.7756 93.1048 69.8639 92.4265 69.8639 92.4265H69.8282C64.7349 90.2335 51.4922 89.0503 51.4922 89.0503H50.881C50.881 89.0503 37.6078 90.2335 32.545 92.4265H32.5094C32.5094 92.4265 28.562 93.1201 26.5604 101.749C24.5587 110.378 23.6419 116.396 23.6419 116.396C23.6419 116.396 20.0256 117.376 13.5163 125.576C12.4944 126.877 11.6245 128.29 10.9238 129.789V129.789C10.9238 129.789 15.9255 128.142 19.4297 130.666C19.4297 130.666 30.9101 125.791 31.4856 120.65C31.4856 120.466 31.5315 120.262 31.5569 120.043C31.8829 127.846 32.163 134.364 32.163 134.364H70.1695C70.1695 134.364 70.4547 127.846 70.7807 120.043C70.7807 120.262 70.8265 120.466 70.8469 120.65C71.4275 125.791 84.1354 131.554 84.1354 131.554C87.6192 126.188 92.6769 129.152 92.6769 129.152L78.6906 116.396Z" stroke="#263238" stroke-width="0.87381" stroke-linecap="round" stroke-linejoin="round"/>
<path d="M24.8584 116.361C26.6912 116.269 28.4875 116.896 29.8651 118.11" stroke="#263238" stroke-width="0.87381" stroke-linecap="round" stroke-linejoin="round"/>
<path d="M28.4395 102.632C28.4395 102.632 30.7926 103.142 31.3325 114.596L30.6245 99.5615" stroke="#263238" stroke-width="0.87381" stroke-linecap="round" stroke-linejoin="round"/>
<path d="M31.3623 116.187L31.4695 118.508" stroke="#263238" stroke-width="0.87381" stroke-linecap="round" stroke-linejoin="round"/>
<path d="M77.4774 116.361C75.6482 116.262 73.8523 116.88 72.4707 118.085" stroke="#263238" stroke-width="0.87381" stroke-linecap="round" stroke-linejoin="round"/>
<path d="M71.5693 102.632C71.6136 101.612 71.6613 100.592 71.7124 99.5715" stroke="#263238" stroke-width="0.87381" stroke-linecap="round" stroke-linejoin="round"/>
<path d="M58.302 89.8765C57.6857 92.9671 54.701 94.084 51.1051 94.084C47.5092 94.084 44.5347 92.9722 43.9082 89.8918H44.0508C44.4233 89.841 44.7716 89.6783 45.0499 89.4252C45.3281 89.1721 45.5232 88.8404 45.6094 88.474C45.6593 88.3279 45.6851 88.1746 45.6858 88.0201V84.394H56.6874V88.0201C56.6861 88.2469 56.7275 88.4718 56.8096 88.6831C56.9282 88.998 57.1295 89.2751 57.3921 89.4851C57.6547 89.6951 57.969 89.8303 58.302 89.8765Z" fill="white"/>
<path d="M56.5949 87.1073C54.7715 88.9025 52.7392 90.0194 50.7783 90.1061C48.741 90.1979 46.3777 88.5251 45.415 86.8829C45.4548 86.7402 45.4737 86.5925 45.4711 86.4443V85.3325L56.4727 85.4498V86.4443C56.4727 86.6789 56.7528 86.9543 56.5949 87.1073Z" fill="#263238"/>
<path d="M58.302 89.8765C57.6857 92.9671 54.701 94.084 51.1051 94.084C47.5092 94.084 44.5347 92.9722 43.9082 89.8918H44.0508C44.4233 89.841 44.7716 89.6783 45.0499 89.4252C45.3281 89.1721 45.5232 88.8404 45.6094 88.474C45.6593 88.3279 45.6851 88.1746 45.6858 88.0201V84.394H56.6874V88.0201C56.6861 88.2469 56.7275 88.4718 56.8096 88.6831C56.9282 88.998 57.1295 89.2751 57.3921 89.4851C57.6547 89.6951 57.969 89.8303 58.302 89.8765V89.8765Z" stroke="#263238" stroke-width="0.87381" stroke-linecap="round" stroke-linejoin="round"/>
<path d="M43.0678 76.6063C43.0678 76.6063 39.2529 72.2866 39.7521 66.3349C40.2512 60.3832 45.1306 60.3832 45.1306 60.3832C45.1306 60.3832 51.0134 55.1863 57.5787 58.4401C64.144 61.6939 63.6907 72.9751 58.8317 75.7801L43.0678 76.6063Z" fill="#263238"/>
<path d="M59.8858 73.6994C59.9368 72.71 59.9317 72.098 59.9317 72.098C59.4936 69.4664 56.2797 69.2012 54.8027 69.1553C48.6143 68.9462 46.9844 65.1467 46.9844 65.1467C43.2306 64.0196 42.1661 72.098 42.1661 72.098C42.1661 72.098 42.1661 72.71 42.217 73.6994C41.554 73.8261 40.9586 74.1875 40.5396 74.7174C40.1207 75.2474 39.9061 75.9107 39.9352 76.586C39.9352 78.1976 41.0965 79.4981 42.5328 79.4981C42.6781 79.4974 42.823 79.4837 42.9658 79.4573L43.6381 83.2517C43.7654 84.1034 44.5651 86.1179 45.2832 86.5973C46.8112 87.6173 49.2306 89.0708 51.0489 89.0708C52.6176 89.0708 54.818 87.7754 56.4427 86.8931C57.3493 86.3831 58.3476 84.4298 58.4342 83.4047L58.857 79.5695C59.0957 79.5581 59.3337 79.5342 59.57 79.4981C61.0013 79.4981 62.1676 78.1976 62.1676 76.586C62.1967 75.9107 61.9822 75.2474 61.5632 74.7174C61.1443 74.1875 60.5489 73.8261 59.8858 73.6994Z" fill="white" stroke="#263238" stroke-width="0.87381" stroke-linecap="round" stroke-linejoin="round"/>
<path d="M40.9331 71.2512H40.2607V73.6482H40.9331V71.2512Z" fill="white" stroke="#263238" stroke-width="0.87381" stroke-linecap="round" stroke-linejoin="round"/>
<path d="M61.4741 71.2512H60.8018V73.6482H61.4741V71.2512Z" fill="white" stroke="#263238" stroke-width="0.87381" stroke-linecap="round" stroke-linejoin="round"/>
<path d="M50.8657 60.781C48.0063 60.7804 45.2583 61.8905 43.1997 63.8775C41.1411 65.8646 39.9326 68.5737 39.8284 71.4349C39.8263 71.4882 39.8351 71.5413 39.8542 71.5911C39.8733 71.6409 39.9023 71.6862 39.9395 71.7244C39.9767 71.7626 40.0212 71.7928 40.0704 71.8131C40.1196 71.8335 40.1725 71.8436 40.2257 71.8429H40.9388C41.0424 71.8429 41.1419 71.8024 41.2162 71.73C41.2904 71.6576 41.3334 71.559 41.3361 71.4553C41.4494 69.0009 42.5029 66.6846 44.2777 64.9879C46.0524 63.2911 48.4119 62.3443 50.8657 62.3443C53.3195 62.3443 55.6789 63.2911 57.4537 64.9879C59.2284 66.6846 60.2819 69.0009 60.3953 71.4553C60.3993 71.5595 60.4434 71.6581 60.5184 71.7304C60.5935 71.8026 60.6936 71.843 60.7977 71.8429H61.5057C61.5591 71.8436 61.6122 71.8335 61.6616 71.8132C61.7111 71.7929 61.756 71.7627 61.7936 71.7246C61.8311 71.6866 61.8606 71.6413 61.8803 71.5915C61.9 71.5417 61.9094 71.4884 61.908 71.4349C61.8026 68.5733 60.5929 65.8641 58.5335 63.8772C56.4742 61.8902 53.7255 60.7804 50.8657 60.781Z" fill="white" stroke="#263238" stroke-width="0.87381" stroke-linecap="round" stroke-linejoin="round"/>
<path d="M42.0788 72.7864H41.926C41.0244 72.8209 40.1712 73.2038 39.5455 73.8547C38.9198 74.5056 38.5703 75.3739 38.5703 76.2773C38.5703 77.1808 38.9198 78.0491 39.5455 78.7C40.1712 79.3509 41.0244 79.7338 41.926 79.7683H42.0788V72.7864Z" fill="#263238" stroke="#263238" stroke-width="0.87381" stroke-miterlimit="10"/>
<path d="M42.9088 76.2902C42.9088 78.8759 43.0209 80.5589 42.1296 80.5589C41.2382 80.5589 40.9326 78.8759 40.9326 76.2902C40.9326 73.7045 41.2382 72.0164 42.1296 72.0164C43.0209 72.0164 42.9088 73.679 42.9088 76.2902Z" fill="white" stroke="#263238" stroke-width="0.87381" stroke-linecap="round" stroke-linejoin="round"/>
<path d="M59.6562 72.7864H59.8091C60.7106 72.8209 61.5638 73.2038 62.1895 73.8547C62.8152 74.5056 63.1647 75.3739 63.1647 76.2773C63.1647 77.1808 62.8152 78.0491 62.1895 78.7C61.5638 79.3509 60.7106 79.7338 59.8091 79.7683H59.6562V72.7864Z" fill="#263238" stroke="#263238" stroke-width="0.87381" stroke-miterlimit="10"/>
<path d="M58.8204 76.2902C58.8204 78.8759 58.7135 80.5589 59.6048 80.5589C60.4961 80.5589 60.8017 78.8759 60.8017 76.2902C60.8017 73.7045 60.4961 72.0164 59.6048 72.0164C58.7135 72.0164 58.8204 73.679 58.8204 76.2902Z" fill="white" stroke="#263238" stroke-width="0.87381" stroke-linecap="round" stroke-linejoin="round"/>
<path d="M44.9062 76.9175C44.9062 76.9175 46.3578 78.7076 49.0777 77.2949" stroke="#263238" stroke-width="0.87381" stroke-linecap="round" stroke-linejoin="round"/>
<path d="M49.0771 83.8789C49.6775 84.3155 50.4005 84.5507 51.1425 84.5507C51.8845 84.5507 52.6075 84.3155 53.2079 83.8789" stroke="#263238" stroke-width="0.75" stroke-linecap="round" stroke-linejoin="round"/>
<path d="M44.5039 74.5151C44.5039 74.5151 47.1372 72.5057 49.4801 74.5151" stroke="#263238" stroke-width="0.87381" stroke-linecap="round" stroke-linejoin="round"/>
<path d="M57.4352 74.5815C57.4352 74.5815 54.8019 72.5415 52.459 74.5815" stroke="#263238" stroke-width="0.87381" stroke-linecap="round" stroke-linejoin="round"/>
<path d="M53.0552 81.0637C53.0552 81.0637 53.2895 82.3693 50.9007 82.3387C50.315 82.3387 49.2505 81.9205 49.2148 81.0637" stroke="#263238" stroke-width="0.75" stroke-linecap="round" stroke-linejoin="round"/>
<path d="M45.4766 77.3916C45.6956 77.8251 46.1896 78.3249 47.2949 78.3504C48.4001 78.3759 48.5937 77.9373 48.6141 77.5089C48.1215 77.7482 47.5778 77.8627 47.0307 77.8422C46.4836 77.8218 45.9499 77.667 45.4766 77.3916Z" fill="#263238"/>
<path d="M57.0533 76.9175C57.0533 76.9175 55.6017 78.7076 52.8818 77.2949" stroke="#263238" stroke-width="0.87381" stroke-linecap="round" stroke-linejoin="round"/>
<path d="M56.4832 77.3916C56.2642 77.8251 55.7701 78.3249 54.6649 78.3504C53.5596 78.3759 53.3661 77.9373 53.3457 77.5089C53.8381 77.7487 54.3819 77.8634 54.9291 77.8429C55.4763 77.8225 56.01 77.6675 56.4832 77.3916Z" fill="#263238"/>
<path d="M46.383 57.8994C46.383 57.8994 45.0434 58.6491 45.1911 60.7809C45.1911 60.7809 44.7225 59.3427 43.001 59.97" stroke="#263238" stroke-width="0.87381" stroke-linecap="round" stroke-linejoin="round"/>
<path d="M51.1651 95.67C52.9207 95.6696 54.6332 95.126 56.0683 94.1135C57.5034 93.1011 58.5909 91.6693 59.182 90.0141C58.7186 89.9427 58.2602 89.8815 57.817 89.8203C57.119 90.9585 56.1413 91.8984 54.9772 92.5505C53.8131 93.2026 52.5015 93.5449 51.1677 93.5449C49.8338 93.5449 48.5222 93.2026 47.3581 92.5505C46.1941 91.8984 45.2163 90.9585 44.5183 89.8203C44.0752 89.8815 43.6168 89.9427 43.1533 90.0141C43.7442 91.6685 44.8309 93.0997 46.265 94.1121C47.6991 95.1245 49.4105 95.6686 51.1651 95.67Z" fill="#263238" stroke="#263238" stroke-width="0.87381" stroke-linecap="round" stroke-linejoin="round"/>
<path d="M70.7793 120.063C71.0034 115.093 71.2292 110.12 71.4567 105.146" stroke="#263238" stroke-width="0.87381" stroke-linecap="round" stroke-linejoin="round"/>
<path d="M70.9479 69.2573V63.7646C70.9479 63.4941 70.8406 63.2347 70.6496 63.0434C70.4585 62.8521 70.1994 62.7446 69.9293 62.7446H61.3419C61.0717 62.7446 60.8126 62.8521 60.6216 63.0434C60.4306 63.2347 60.3232 63.4941 60.3232 63.7646V69.2573C60.3232 69.5279 60.4306 69.7873 60.6216 69.9786C60.8126 70.1699 61.0717 70.2773 61.3419 70.2773H64.3368L64.0974 72.3683H65.6254V74.342L67.4539 71.1239H65.9514L66.1093 70.2773H69.9242C70.0584 70.278 70.1914 70.2521 70.3156 70.2012C70.4397 70.1502 70.5526 70.0752 70.6478 69.9804C70.7429 69.8856 70.8184 69.7729 70.8699 69.6488C70.9214 69.5248 70.9479 69.3917 70.9479 69.2573Z" fill="white" stroke="#263238" stroke-width="0.87381" stroke-linecap="round" stroke-linejoin="round"/>
<path d="M61.9834 64.6467H67.8051" stroke="#263238" stroke-width="0.87381" stroke-linecap="round" stroke-linejoin="round"/>
<path d="M61.9834 66.2021H69.3025" stroke="#263238" stroke-width="0.87381" stroke-linecap="round" stroke-linejoin="round"/>
<path d="M61.9834 67.7578H68.1769" stroke="#263238" stroke-width="0.87381" stroke-linecap="round" stroke-linejoin="round"/>
<path d="M97.3313 131.727C97.3313 133.349 94.7847 134.364 91.6574 134.364C88.5301 134.364 85.9834 133.344 85.9834 131.727C85.9834 130.11 88.5301 128.784 91.6574 128.784C94.7847 128.784 97.3313 130.1 97.3313 131.727Z" fill="white" stroke="#263238" stroke-width="0.87381" stroke-linecap="round" stroke-linejoin="round"/>
<path d="M87.9846 133.777C88.1374 133.742 88.2597 132.885 86.8794 132.247C85.9218 131.809 85.8964 131.345 86.4464 130.773C86.9965 130.202 87.9337 129.723 88.6569 129.932C89.8335 130.268 90.6128 132.722 91.1374 132.191C91.9269 131.987 90.9744 129.738 89.5636 128.999C92.1102 129.631 92.2325 132.569 93.4039 132.334C94.3004 132.161 92.752 129.243 91.4124 128.381C92.2709 128.782 93.0217 129.382 93.6026 130.131C94.4532 131.37 94.5499 131.788 95.1306 131.61C95.8844 131.37 94.0864 128.647 93.8623 128.351C94.993 128.8 95.207 129.748 95.5533 130.131C95.8997 130.513 96.0626 131.151 96.5414 130.901C97.0202 130.651 96.5771 129.764 96.2562 129.243C94.7282 126.77 92.1815 126.357 89.7571 126.663C87.842 126.908 85.6417 127.713 84.4753 129.243C84.1786 129.625 84.0041 130.087 83.975 130.57C83.946 131.052 84.0635 131.532 84.3123 131.946C84.7198 132.808 86.1765 134.185 87.9846 133.777Z" fill="white" stroke="#263238" stroke-width="0.87381" stroke-linecap="round" stroke-linejoin="round"/>
<path d="M98.8189 134.384H5.08627C4.80779 134.384 4.58203 134.61 4.58203 134.889V135.7C4.58203 135.979 4.80779 136.205 5.08627 136.205H98.8189C99.0974 136.205 99.3231 135.979 99.3231 135.7V134.889C99.3231 134.61 99.0974 134.384 98.8189 134.384Z" fill="#BFBFBF" stroke="#263238" stroke-width="0.87381" stroke-miterlimit="10"/>
<path d="M7.8366 134.384L0.940228 113.398C0.914237 113.316 0.907491 113.229 0.920519 113.144C0.933547 113.06 0.965993 112.979 1.01532 112.909C1.06465 112.839 1.12952 112.781 1.20485 112.74C1.28019 112.699 1.36394 112.676 1.44956 112.673H23.2337L30.9909 134.384H7.8366Z" fill="#263238"/>
<path d="M23.8298 112.673L30.9605 133.165H50.0605V133.884C50.0605 134.019 50.0068 134.149 49.9113 134.245C49.8158 134.341 49.6862 134.394 49.5511 134.394H29.7381L22.8773 113.52C22.8469 113.426 22.839 113.327 22.8542 113.229C22.8694 113.132 22.9073 113.039 22.9649 112.959C23.0224 112.879 23.098 112.814 23.1854 112.769C23.2729 112.724 23.3697 112.7 23.4682 112.699L23.8298 112.673Z" fill="white" stroke="#263238" stroke-width="0.87381" stroke-linecap="round" stroke-linejoin="round"/>
<path d="M13.7141 123.531C13.6468 123.175 13.481 122.844 13.2354 122.578C13.342 122.451 13.4757 122.351 13.6265 122.284C13.7773 122.217 13.9414 122.185 14.1063 122.19C14.4913 122.206 14.8604 122.348 15.1574 122.594C15.4544 122.84 15.663 123.176 15.7515 123.552C15.7986 123.714 15.8063 123.886 15.774 124.052C15.7417 124.218 15.6703 124.374 15.5658 124.508C15.4612 124.641 15.3265 124.747 15.1728 124.817C15.0191 124.888 14.8508 124.921 14.6819 124.913C14.2913 124.904 13.9163 124.758 13.6224 124.5C13.7693 124.199 13.8019 123.855 13.7141 123.531Z" fill="white"/>
<path d="M57.8482 134.384H64.8108C65.7384 133.704 66.49 132.812 67.003 131.782C67.516 130.752 67.7755 129.614 67.7599 128.463V125.184C67.7599 125.059 67.7354 124.936 67.6878 124.821C67.6402 124.706 67.5704 124.601 67.4824 124.513C67.3944 124.425 67.29 124.355 67.1751 124.307C67.0601 124.26 66.9369 124.235 66.8125 124.235H55.872C55.7479 124.235 55.6249 124.26 55.5103 124.307C55.3956 124.355 55.2915 124.425 55.2039 124.513C55.1164 124.601 55.0471 124.706 55 124.821C54.953 124.936 54.9291 125.059 54.9298 125.184V128.463C54.9102 129.611 55.1648 130.748 55.6724 131.778C56.1801 132.808 56.926 133.701 57.8482 134.384Z" fill="white" stroke="#263238" stroke-width="0.87381" stroke-linecap="round" stroke-linejoin="round"/>
<path d="M69.7353 125.633C69.4418 125.448 69.1056 125.342 68.7592 125.326C68.4129 125.31 68.0683 125.384 67.7591 125.541V126.724C68.0608 126.673 68.3706 126.735 68.63 126.897C69.613 127.469 69.4042 128.636 68.7166 129.825C68.4021 130.498 67.8613 131.04 67.1886 131.355C66.9876 131.845 66.7331 132.312 66.4297 132.747C67.7387 133.033 68.9356 131.921 69.8728 130.299C70.973 128.392 71.304 126.54 69.7353 125.633Z" fill="white" stroke="#263238" stroke-width="0.87381" stroke-linecap="round" stroke-linejoin="round"/>
<path d="M61.4744 119.069C61.7275 118.243 61.8529 117.383 61.8463 116.519C61.8463 111.725 57.3438 111.159 57.3438 105.712" stroke="#263238" stroke-width="0.87381" stroke-linecap="round" stroke-linejoin="round"/>
<path d="M58.2812 123.297C59.0968 122.788 59.8018 122.12 60.3542 121.333" stroke="#263238" stroke-width="0.87381" stroke-linecap="round" stroke-linejoin="round"/>
<path d="M61.0836 110.281C60.8313 109.813 60.7263 109.28 60.7823 108.751" stroke="#263238" stroke-width="0.87381" stroke-linecap="round" stroke-linejoin="round"/>
<path d="M64.5909 117.014C64.3617 115.514 63.501 114.107 62.6504 112.826" stroke="#263238" stroke-width="0.87381" stroke-linecap="round" stroke-linejoin="round"/>
<path d="M61.9834 123.353C61.9834 123.353 63.4707 122.726 64.2856 119.895" stroke="#263238" stroke-width="0.87381" stroke-linecap="round" stroke-linejoin="round"/>
<path d="M71.0807 162.796H32.9418C30.157 162.796 27.8994 165.057 27.8994 167.845V193.09C27.8994 195.879 30.157 198.139 32.9418 198.139H71.0807C73.8655 198.139 76.1231 195.879 76.1231 193.09V167.845C76.1231 165.057 73.8655 162.796 71.0807 162.796Z" fill="white" stroke="#263238" stroke-width="0.87381" stroke-miterlimit="10"/>
<path d="M39.9551 187.113L40.5306 197.196L40.5968 197.282C41.0526 197.895 41.6465 198.391 42.3302 198.73C43.0138 199.069 43.7678 199.241 44.5306 199.233C45.2933 199.224 46.0433 199.035 46.7193 198.681C47.3953 198.327 47.9781 197.818 48.4202 197.196L48.6341 187.113H39.9551Z" fill="white" stroke="#263238" stroke-width="0.87381" stroke-linecap="round" stroke-linejoin="round"/>
<path d="M50.5391 207.049C46.6756 207.727 42.7236 207.727 38.8601 207.049C38.4994 206.692 38.1892 206.287 37.9382 205.845C37.5477 205.149 37.3271 204.371 37.2943 203.573C37.2616 202.775 37.4176 201.981 37.7497 201.255L40.0774 197.099L49.3014 197.201L51.3795 200.995C51.8782 201.896 52.093 202.926 51.9958 203.951C51.8985 204.976 51.4937 205.948 50.8345 206.738C50.7415 206.847 50.6429 206.951 50.5391 207.049Z" fill="#BFBFBF" stroke="#263238" stroke-width="0.87381" stroke-miterlimit="10"/>
<path d="M48.2725 201.816C48.843 202.068 49.3873 202.375 49.8972 202.734L48.2725 201.816Z" fill="#BFBFBF"/>
<path d="M48.2725 201.816C48.843 202.068 49.3873 202.375 49.8972 202.734" stroke="#263238" stroke-width="0.87381" stroke-miterlimit="10"/>
<path d="M39.5732 202.734C40.5856 202.04 41.7255 201.555 42.9268 201.305C44.1282 201.056 45.367 201.047 46.5715 201.281" fill="#BFBFBF"/>
<path d="M39.5732 202.734C40.5856 202.04 41.7255 201.555 42.9268 201.305C44.1282 201.056 45.367 201.047 46.5715 201.281" stroke="#263238" stroke-width="0.87381" stroke-miterlimit="10"/>
<path d="M34.9893 145.502L39.0639 192.259H49.602C49.602 192.259 50.6462 163.699 51.3083 145.155C51.3516 144.055 51.1722 142.958 50.7808 141.929C50.3894 140.9 49.7941 139.961 49.0309 139.169C48.2676 138.377 47.3521 137.747 46.3395 137.318C45.3269 136.889 44.2381 136.67 43.1386 136.674C42.0099 136.67 40.8927 136.901 39.8578 137.352C38.8229 137.804 37.893 138.465 37.1268 139.295C36.3607 140.125 35.775 141.105 35.4071 142.174C35.0391 143.242 34.8969 144.376 34.9893 145.502Z" fill="#263238"/>
<path d="M45.4764 137.006C44.7091 136.78 43.9128 136.668 43.1131 136.674V136.674C41.9866 136.674 40.8722 136.907 39.8403 137.36C38.8085 137.813 37.8816 138.475 37.1182 139.305C36.3548 140.134 35.7714 141.113 35.405 142.18C35.0386 143.247 34.897 144.378 34.9893 145.502L36.4358 162.796" stroke="white" stroke-width="0.87381" stroke-linecap="round" stroke-linejoin="round"/>
<path d="M49.8768 140.193C49.4594 139.599 48.9682 139.061 48.4151 138.592C48.4151 138.592 47.7784 138.082 47.4932 137.918" stroke="white" stroke-width="0.87381" stroke-linecap="round" stroke-linejoin="round"/>
<path d="M50.6104 162.796C50.8192 157.008 51.1452 150.235 51.3234 145.155C51.3721 143.894 51.128 142.639 50.6104 141.489" stroke="white" stroke-width="0.87381" stroke-linecap="round" stroke-linejoin="round"/>
<path d="M57.0996 187.113L57.6751 197.196L57.7414 197.282C58.1971 197.895 58.791 198.391 59.4747 198.73C60.1583 199.069 60.9123 199.241 61.6751 199.233C62.4379 199.224 63.1878 199.035 63.8638 198.681C64.5398 198.327 65.1226 197.818 65.5647 197.196L65.7786 187.113H57.0996Z" fill="white" stroke="#263238" stroke-width="0.87381" stroke-linecap="round" stroke-linejoin="round"/>
<path d="M67.6832 207.049C63.8197 207.727 59.8677 207.727 56.0042 207.049C55.6443 206.692 55.3358 206.287 55.0874 205.845C54.6949 205.15 54.4727 204.372 54.4391 203.574C54.4054 202.776 54.5613 201.981 54.8939 201.255L57.2266 197.099L66.4455 197.201L68.5236 200.995C69.0223 201.896 69.2371 202.926 69.1399 203.951C69.0426 204.976 68.6378 205.948 67.9786 206.738C67.8856 206.847 67.787 206.951 67.6832 207.049Z" fill="#BFBFBF" stroke="#263238" stroke-width="0.87381" stroke-miterlimit="10"/>
<path d="M65.416 201.816C65.9872 202.067 66.5315 202.374 67.0408 202.734L65.416 201.816Z" fill="#BFBFBF"/>
<path d="M65.416 201.816C65.9872 202.067 66.5315 202.374 67.0408 202.734" stroke="#263238" stroke-width="0.87381" stroke-miterlimit="10"/>
<path d="M56.7275 202.734C57.7401 202.041 58.88 201.555 60.0812 201.305C61.2825 201.056 62.5213 201.047 63.7258 201.281" fill="#BFBFBF"/>
<path d="M56.7275 202.734C57.7401 202.041 58.88 201.555 60.0812 201.305C61.2825 201.056 62.5213 201.047 63.7258 201.281" stroke="#263238" stroke-width="0.87381" stroke-miterlimit="10"/>
<path d="M52.1485 145.502L56.2231 192.259H66.7612C66.7612 192.259 67.8054 163.699 68.4726 145.155C68.5124 144.053 68.3292 142.953 67.9341 141.924C67.5389 140.894 66.9398 139.954 66.1729 139.162C65.406 138.37 64.4871 137.741 63.4713 137.314C62.4556 136.886 61.364 136.668 60.2621 136.674C59.1364 136.675 58.0231 136.91 56.9925 137.363C55.9619 137.817 55.0362 138.479 54.2739 139.308C53.5116 140.138 52.9292 141.116 52.5634 142.182C52.1976 143.248 52.0563 144.379 52.1485 145.502Z" fill="#263238"/>
<path d="M63.6237 137.378C62.5659 136.907 61.4199 136.667 60.2621 136.674C59.1364 136.675 58.0231 136.91 56.9925 137.363C55.9619 137.817 55.0362 138.479 54.2739 139.308C53.5116 140.138 52.9292 141.116 52.5634 142.182C52.1976 143.248 52.0563 144.379 52.1485 145.502L53.6765 162.796" stroke="white" stroke-width="0.87381" stroke-linecap="round" stroke-linejoin="round"/>
<path d="M67.0213 140.193C66.6066 139.597 66.1151 139.059 65.5596 138.592" stroke="white" stroke-width="0.87381" stroke-linecap="round" stroke-linejoin="round"/>
<path d="M68.1979 162.796C68.4067 157.008 68.2896 150.235 68.4729 145.155C68.5142 144.039 68.327 142.927 67.9229 141.886" stroke="white" stroke-width="0.87381" stroke-linecap="round" stroke-linejoin="round"/>
<path d="M193.01 65.9216V44.1599C193.01 43.1076 192.593 42.0984 191.85 41.3543C191.106 40.6102 190.099 40.1921 189.048 40.1921H154.953C153.902 40.1921 152.894 40.6102 152.151 41.3543C151.408 42.0984 150.99 43.1076 150.99 44.1599V65.9216C150.99 66.974 151.408 67.9832 152.151 68.7273C152.894 69.4714 153.902 69.8894 154.953 69.8894H166.825L165.888 78.1718H172V85.9799L179.253 73.2299H173.304L173.931 69.8843H189.048C190.098 69.8843 191.105 69.467 191.848 68.724C192.591 67.981 193.009 66.9731 193.01 65.9216Z" fill="white" stroke="#263238" stroke-width="1.02547" stroke-linecap="round" stroke-linejoin="round"/>
<path d="M157.499 47.6382H180.551" stroke="#263238" stroke-width="1.02547" stroke-linecap="round" stroke-linejoin="round"/>
<path d="M157.499 53.8042H186.5" stroke="#263238" stroke-width="1.02547" stroke-linecap="round" stroke-linejoin="round"/>
<path d="M157.499 59.97H182.039" stroke="#263238" stroke-width="1.02547" stroke-linecap="round" stroke-linejoin="round"/>
<path d="M219.052 159.104L239.649 165.979L234.541 171.099L244.075 180.646L223.478 173.771L228.586 168.651L219.052 159.104Z" fill="#E8E8E8" stroke="#263238" stroke-width="1.02547" stroke-linecap="round" stroke-linejoin="round"/>
<path d="M124.947 159.104L104.35 165.979L109.459 171.099L99.9238 180.646L120.521 173.771L115.413 168.651L124.947 159.104Z" fill="#E8E8E8" stroke="#263238" stroke-width="1.02547" stroke-linecap="round" stroke-linejoin="round"/>
<path d="M171.424 1.39136L161.711 20.8428H168.943V34.3476L178.651 14.8962H171.424V1.39136Z" fill="#E8E8E8" stroke="#263238" stroke-width="1.02547" stroke-linecap="round" stroke-linejoin="round"/>
</svg>
