<svg width="267" height="231" viewBox="0 0 267 231" fill="none" xmlns="http://www.w3.org/2000/svg">
<path d="M236.187 153.694L235.729 157.796L243.705 148.473C244.659 148.573 245.617 148.623 246.576 148.625" stroke="#263238" stroke-linecap="round" stroke-linejoin="round"/>
<path d="M226.195 125.402C225.148 126.983 224.491 128.791 224.279 130.676C223.523 137.491 228.867 143.937 236.943 146.92L236.532 150.582" stroke="#263238" stroke-linecap="round" stroke-linejoin="round"/>
<path d="M229.295 122.009C228.776 122.43 228.282 122.882 227.818 123.363" stroke="#263238" stroke-linecap="round" stroke-linejoin="round"/>
<path d="M259.205 122.009C255.564 119.514 251.355 117.975 246.963 117.532C242.322 116.963 237.614 117.655 233.333 119.536" stroke="#263238" stroke-linecap="round" stroke-linejoin="round"/>
<path d="M252.126 148.074C259.744 146.498 265.516 141.628 266.19 135.311C266.682 130.893 264.614 126.633 260.916 123.363" stroke="#263238" stroke-linecap="round" stroke-linejoin="round"/>
<path d="M233.339 126.539C233.984 126.659 234.646 126.65 235.288 126.514C235.929 126.377 236.538 126.115 237.078 125.742L239.926 127.951C239.726 128.015 239.744 127.594 239.955 127.582C240.166 127.57 240.324 127.764 240.47 127.916C241.139 128.625 242.264 128.648 243.219 128.443C244.174 128.238 245.106 127.857 246.079 127.892C246.657 127.953 247.226 128.085 247.772 128.285C251.687 129.498 255.759 130.108 259.814 130.705" stroke="#263238" stroke-linecap="round" stroke-linejoin="round"/>
<path d="M229.975 130.705C230.561 130.67 233.825 130.705 234.293 130.313L235.09 131.701L235.969 130.852C236.122 131.438 236.274 132.024 236.421 132.575C237.083 132.733 237.007 131.455 237.593 131.074C237.773 130.986 237.98 130.969 238.172 131.027C238.364 131.084 238.528 131.212 238.63 131.385C238.822 131.745 238.915 132.149 238.899 132.557L242.908 132.885L243.687 132.95C243.966 132.525 244.378 132.205 244.859 132.041C244.713 132.967 245.879 133.495 246.805 133.682C251.364 134.612 255.946 135.415 260.552 136.091" stroke="#263238" stroke-linecap="round" stroke-linejoin="round"/>
<path d="M231.756 137.069C232.125 137.327 232.576 136.847 233.027 136.788C233.479 136.729 233.848 137.069 234.246 137.274C234.645 137.479 235.301 137.392 235.325 136.946C235.418 137.532 236.145 137.743 236.737 137.825L252.125 139.988" stroke="#263238" stroke-linecap="round" stroke-linejoin="round"/>
<path d="M25.8477 117.051L32.0124 125.349L30.7759 114.491C32.2498 113.775 33.6595 112.934 34.9893 111.977C41.3063 107.406 43.8496 100.052 41.5349 94.1271C39.9117 89.9899 36.1085 87.1771 31.3033 86.011" stroke="#263238" stroke-linecap="round" stroke-linejoin="round"/>
<path d="M1.49933 103.96C1.30722 105.839 1.5643 107.737 2.24941 109.498C4.74577 115.885 12.4693 119.108 21.0014 117.995" stroke="#263238" stroke-linecap="round" stroke-linejoin="round"/>
<path d="M2.66511 99.5125C2.40337 100.128 2.17834 100.758 1.99121 101.399" stroke="#263238" stroke-linecap="round" stroke-linejoin="round"/>
<path d="M29.153 85.6125C24.7686 85.0884 20.3228 85.6769 16.2258 87.3236C11.853 88.9772 8.00671 91.7789 5.0918 95.4339" stroke="#263238" stroke-linecap="round" stroke-linejoin="round"/>
<path d="M8.34961 101.64C9.61022 101.246 10.6637 100.37 11.2796 99.2018L14.7956 99.8347C14.6433 99.9812 14.4675 99.6003 14.6491 99.489C14.8308 99.3776 15.0593 99.489 15.2351 99.5476C16.161 99.864 17.1631 99.3659 17.9131 98.7389C18.6632 98.1119 19.3078 97.3325 20.1927 96.9223C20.7332 96.7063 21.2979 96.5568 21.8745 96.4769C25.9062 95.7386 29.7914 94.379 33.6648 93.0254" stroke="#263238" stroke-linecap="round" stroke-linejoin="round"/>
<path d="M7.30664 106.896C7.82818 106.585 10.7172 105.103 10.9516 104.552L12.3052 105.413C12.4341 105.027 12.5631 104.634 12.6861 104.241L13.8874 105.56C14.5496 105.396 13.8874 104.3 14.2039 103.702C14.3217 103.54 14.4968 103.429 14.6937 103.391C14.8906 103.352 15.0947 103.391 15.2645 103.497C15.5992 103.722 15.8682 104.031 16.0439 104.394L19.7416 102.823L20.4682 102.519C20.5098 102.015 20.7157 101.54 21.0542 101.165C21.3589 102.062 22.6364 101.979 23.5388 101.716C28.012 100.427 32.4441 99.0085 36.8352 97.4614" stroke="#263238" stroke-linecap="round" stroke-linejoin="round"/>
<path d="M11.8418 111.701C12.293 111.76 12.4688 111.115 12.838 110.857C13.2072 110.6 13.6994 110.734 14.1448 110.723C14.5901 110.711 15.1351 110.342 14.9476 109.937C15.3051 110.412 16.0493 110.26 16.606 110.06L31.256 104.816" stroke="#263238" stroke-linecap="round" stroke-linejoin="round"/>
<path d="M204.537 16.5173H58.4234C55.5786 16.5173 53.2725 18.8235 53.2725 21.6683V153.296C53.2725 156.14 55.5786 158.447 58.4234 158.447H204.537C207.381 158.447 209.688 156.14 209.688 153.296V21.6683C209.688 18.8235 207.381 16.5173 204.537 16.5173Z" fill="white"/>
<path opacity="0.2" d="M209.688 94.2618V153.448C209.688 154.773 209.162 156.043 208.226 156.98C207.289 157.918 206.02 158.445 204.695 158.446H58.271C56.9453 158.446 55.6739 157.92 54.7365 156.982C53.7991 156.045 53.2725 154.774 53.2725 153.448V141.728H53.583V149.627C53.583 150.378 53.731 151.121 54.0185 151.815C54.306 152.509 54.7274 153.139 55.2586 153.669C55.7897 154.2 56.4203 154.621 57.1141 154.907C57.808 155.194 58.5516 155.341 59.3024 155.341H200.757C201.508 155.341 202.251 155.194 202.945 154.907C203.639 154.621 204.27 154.2 204.801 153.669C205.332 153.139 205.753 152.509 206.041 151.815C206.328 151.121 206.476 150.378 206.476 149.627V103.04C206.476 101.985 206.057 100.973 205.311 100.227C204.565 99.4804 203.553 99.0612 202.497 99.0612H53.2725V94.2618H209.688Z" fill="black"/>
<path d="M204.537 16.5173H58.4234C55.5786 16.5173 53.2725 18.8235 53.2725 21.6683V153.296C53.2725 156.14 55.5786 158.447 58.4234 158.447H204.537C207.381 158.447 209.688 156.14 209.688 153.296V21.6683C209.688 18.8235 207.381 16.5173 204.537 16.5173Z" stroke="#263238" stroke-linecap="round" stroke-linejoin="round"/>
<path d="M196.069 111.115V104.335C196.07 104.006 196.005 103.679 195.88 103.375C195.754 103.07 195.569 102.793 195.336 102.56C195.103 102.327 194.826 102.142 194.522 102.017C194.217 101.891 193.891 101.826 193.561 101.827H69.3992C68.7341 101.827 68.0961 102.091 67.6258 102.562C67.1554 103.032 66.8912 103.67 66.8912 104.335V111.115C66.8912 111.78 66.6269 112.418 66.1566 112.889C65.6862 113.359 65.0483 113.623 64.3831 113.623C63.7163 113.623 63.0769 113.888 62.6055 114.36C62.134 114.831 61.8691 115.471 61.8691 116.137V129.516C61.8691 132.601 63.0947 135.559 65.2761 137.741C67.4575 139.922 70.4162 141.148 73.5012 141.148C73.997 141.148 74.4725 141.345 74.8231 141.695C75.1736 142.046 75.3706 142.521 75.3706 143.017V147.025C75.3706 148.505 75.9583 149.924 77.0045 150.97C78.0508 152.016 79.4697 152.604 80.9493 152.604H182.011C183.49 152.604 184.909 152.016 185.956 150.97C187.002 149.924 187.59 148.505 187.59 147.025V143.017C187.59 142.521 187.787 142.046 188.137 141.695C188.488 141.345 188.963 141.148 189.459 141.148C190.986 141.148 192.499 140.847 193.91 140.262C195.322 139.678 196.604 138.821 197.684 137.741C198.764 136.661 199.621 135.378 200.206 133.967C200.79 132.556 201.091 131.043 201.091 129.516V116.137C201.091 115.472 200.827 114.833 200.357 114.362C199.887 113.89 199.249 113.625 198.583 113.623C197.917 113.623 197.279 113.359 196.807 112.889C196.336 112.419 196.071 111.781 196.069 111.115Z" fill="#263238"/>
<path d="M76.402 105.666H72.0598C71.5283 105.666 71.0185 105.877 70.6427 106.253C70.2668 106.628 70.0557 107.138 70.0557 107.67V108.783C70.0557 111.092 71.925 114.022 74.2338 114.022C76.5427 114.022 78.412 111.092 78.412 108.783V107.67C78.4105 107.138 78.198 106.628 77.8212 106.252C77.4445 105.876 76.9341 105.666 76.402 105.666Z" fill="white" stroke="#263238" stroke-linecap="round" stroke-linejoin="round"/>
<path d="M86.7917 105.666H82.4494C81.9174 105.666 81.407 105.876 81.0302 106.252C80.6535 106.628 80.441 107.138 80.4395 107.67V108.783C80.4395 111.092 82.3088 114.022 84.6176 114.022C86.9265 114.022 88.7958 111.092 88.7958 108.783V107.67C88.7958 107.138 88.5847 106.628 88.2088 106.253C87.833 105.877 87.3232 105.666 86.7917 105.666Z" fill="white" stroke="#263238" stroke-linecap="round" stroke-linejoin="round"/>
<path d="M97.2224 105.666H92.8801C92.3486 105.666 91.8388 105.877 91.463 106.253C91.0871 106.628 90.876 107.138 90.876 107.67V108.783C90.876 111.092 92.7453 114.022 95.0483 114.022C97.3513 114.022 99.2265 111.092 99.2265 108.783V107.67C99.2265 107.138 99.0153 106.628 98.6395 106.253C98.2636 105.877 97.7539 105.666 97.2224 105.666Z" fill="white" stroke="#263238" stroke-linecap="round" stroke-linejoin="round"/>
<path d="M107.63 105.666H103.287C102.756 105.666 102.246 105.877 101.87 106.253C101.494 106.628 101.283 107.138 101.283 107.67V108.783C101.283 111.092 103.153 114.022 105.461 114.022C107.77 114.022 109.634 111.092 109.634 108.783V107.67C109.634 107.406 109.582 107.146 109.481 106.903C109.38 106.66 109.233 106.439 109.047 106.253C108.861 106.066 108.64 105.919 108.397 105.818C108.153 105.717 107.893 105.666 107.63 105.666Z" fill="white" stroke="#263238" stroke-linecap="round" stroke-linejoin="round"/>
<path d="M118.037 105.666H113.695C113.163 105.666 112.653 105.877 112.277 106.253C111.902 106.628 111.69 107.138 111.69 107.67V108.783C111.69 111.092 113.56 114.022 115.869 114.022C118.177 114.022 120.047 111.092 120.047 108.783V107.67C120.045 107.138 119.833 106.628 119.456 106.252C119.079 105.876 118.569 105.666 118.037 105.666Z" fill="white" stroke="#263238" stroke-linecap="round" stroke-linejoin="round"/>
<path d="M128.45 105.666H124.108C123.576 105.666 123.065 105.876 122.688 106.252C122.312 106.628 122.099 107.138 122.098 107.67V108.783C122.098 111.092 123.967 114.022 126.276 114.022C128.585 114.022 130.454 111.092 130.454 108.783V107.67C130.454 107.138 130.243 106.628 129.867 106.253C129.491 105.877 128.981 105.666 128.45 105.666Z" fill="white" stroke="#263238" stroke-linecap="round" stroke-linejoin="round"/>
<path d="M138.858 105.666H134.516C133.984 105.666 133.475 105.877 133.099 106.253C132.723 106.628 132.512 107.138 132.512 107.67V108.783C132.512 111.092 134.381 114.022 136.684 114.022C138.987 114.022 140.862 111.092 140.862 108.783V107.67C140.862 107.138 140.651 106.628 140.275 106.253C139.899 105.877 139.39 105.666 138.858 105.666Z" fill="white" stroke="#263238" stroke-linecap="round" stroke-linejoin="round"/>
<path d="M149.265 105.666H144.923C144.392 105.666 143.882 105.877 143.506 106.253C143.13 106.628 142.919 107.138 142.919 107.67V108.783C142.919 111.092 144.788 114.022 147.097 114.022C149.406 114.022 151.269 111.092 151.269 108.783V107.67C151.269 107.138 151.058 106.628 150.682 106.253C150.307 105.877 149.797 105.666 149.265 105.666Z" fill="white" stroke="#263238" stroke-linecap="round" stroke-linejoin="round"/>
<path d="M159.673 105.665H155.354C155.091 105.665 154.83 105.717 154.587 105.818C154.344 105.919 154.123 106.066 153.937 106.252C153.751 106.439 153.603 106.659 153.502 106.903C153.401 107.146 153.35 107.406 153.35 107.67V108.783C153.35 111.092 155.219 114.022 157.528 114.022C159.837 114.022 161.706 111.092 161.706 108.783V107.67C161.705 107.404 161.652 107.141 161.549 106.897C161.446 106.652 161.296 106.43 161.107 106.244C160.918 106.057 160.694 105.91 160.448 105.811C160.201 105.712 159.938 105.662 159.673 105.665Z" fill="white" stroke="#263238" stroke-linecap="round" stroke-linejoin="round"/>
<path d="M170.086 105.666H165.743C165.211 105.666 164.701 105.876 164.324 106.252C163.947 106.628 163.735 107.138 163.733 107.67V108.783C163.733 111.092 165.603 114.022 167.912 114.022C170.22 114.022 172.09 111.092 172.09 108.783V107.67C172.09 107.138 171.879 106.628 171.503 106.253C171.127 105.877 170.617 105.666 170.086 105.666Z" fill="white" stroke="#263238" stroke-linecap="round" stroke-linejoin="round"/>
<path d="M180.493 105.666H176.151C175.619 105.666 175.109 105.877 174.733 106.253C174.358 106.628 174.146 107.138 174.146 107.67V108.783C174.146 111.092 176.016 114.022 178.319 114.022C180.622 114.022 182.497 111.092 182.497 108.783V107.67C182.497 107.138 182.286 106.628 181.91 106.253C181.534 105.877 181.024 105.666 180.493 105.666Z" fill="white" stroke="#263238" stroke-linecap="round" stroke-linejoin="round"/>
<path d="M190.9 105.665H186.558C186.026 105.665 185.517 105.877 185.141 106.252C184.765 106.628 184.554 107.138 184.554 107.67V108.783C184.554 111.086 186.411 114.016 188.755 114.016C191.099 114.016 192.928 111.086 192.928 108.777V107.664C192.927 107.399 192.874 107.137 192.771 106.893C192.669 106.649 192.519 106.428 192.33 106.242C192.142 106.056 191.918 105.91 191.673 105.811C191.427 105.712 191.165 105.662 190.9 105.665Z" fill="white" stroke="#263238" stroke-linecap="round" stroke-linejoin="round"/>
<path d="M76.402 127.723H72.0598C71.5283 127.723 71.0185 127.934 70.6427 128.31C70.2668 128.685 70.0557 129.195 70.0557 129.727V130.84C70.0557 133.149 71.925 136.079 74.2338 136.079C76.5427 136.079 78.412 133.149 78.412 130.84V129.727C78.4105 129.195 78.198 128.685 77.8212 128.309C77.4445 127.933 76.9341 127.723 76.402 127.723Z" fill="white" stroke="#263238" stroke-linecap="round" stroke-linejoin="round"/>
<path d="M86.7917 127.723H82.4494C81.9174 127.723 81.407 127.933 81.0302 128.309C80.6535 128.685 80.441 129.195 80.4395 129.727V130.84C80.4395 133.149 82.3088 136.079 84.6176 136.079C86.9265 136.079 88.7958 133.149 88.7958 130.84V129.727C88.7958 129.195 88.5847 128.685 88.2088 128.31C87.833 127.934 87.3232 127.723 86.7917 127.723Z" fill="white" stroke="#263238" stroke-linecap="round" stroke-linejoin="round"/>
<path d="M97.2224 127.723H92.8801C92.3486 127.723 91.8388 127.934 91.463 128.31C91.0871 128.685 90.876 129.195 90.876 129.727V130.84C90.876 133.149 92.7453 136.079 95.0483 136.079C97.3513 136.079 99.2265 133.149 99.2265 130.84V129.727C99.2265 129.195 99.0153 128.685 98.6395 128.31C98.2636 127.934 97.7539 127.723 97.2224 127.723Z" fill="white" stroke="#263238" stroke-linecap="round" stroke-linejoin="round"/>
<path d="M107.63 127.723H103.287C102.756 127.723 102.246 127.934 101.87 128.31C101.494 128.685 101.283 129.195 101.283 129.727V130.84C101.283 133.149 103.153 136.079 105.461 136.079C107.77 136.079 109.634 133.149 109.634 130.84V129.727C109.634 129.463 109.582 129.203 109.481 128.96C109.38 128.717 109.233 128.496 109.047 128.31C108.861 128.123 108.64 127.976 108.397 127.875C108.153 127.774 107.893 127.723 107.63 127.723Z" fill="white" stroke="#263238" stroke-linecap="round" stroke-linejoin="round"/>
<path d="M118.037 127.723H113.695C113.163 127.723 112.653 127.934 112.277 128.31C111.902 128.685 111.69 129.195 111.69 129.727V130.84C111.69 133.149 113.56 136.079 115.869 136.079C118.177 136.079 120.047 133.149 120.047 130.84V129.727C120.045 129.195 119.833 128.685 119.456 128.309C119.079 127.933 118.569 127.723 118.037 127.723Z" fill="white" stroke="#263238" stroke-linecap="round" stroke-linejoin="round"/>
<path d="M128.45 127.723H124.108C123.576 127.723 123.065 127.933 122.688 128.309C122.312 128.685 122.099 129.195 122.098 129.727V130.84C122.098 133.149 123.967 136.079 126.276 136.079C128.585 136.079 130.454 133.149 130.454 130.84V129.727C130.454 129.195 130.243 128.685 129.867 128.31C129.491 127.934 128.981 127.723 128.45 127.723Z" fill="white" stroke="#263238" stroke-linecap="round" stroke-linejoin="round"/>
<path d="M138.858 127.723H134.516C133.984 127.723 133.475 127.934 133.099 128.31C132.723 128.685 132.512 129.195 132.512 129.727V130.84C132.512 133.149 134.381 136.079 136.684 136.079C138.987 136.079 140.862 133.149 140.862 130.84V129.727C140.862 129.195 140.651 128.685 140.275 128.31C139.899 127.934 139.39 127.723 138.858 127.723Z" fill="white" stroke="#263238" stroke-linecap="round" stroke-linejoin="round"/>
<path d="M149.265 127.723H144.923C144.392 127.723 143.882 127.934 143.506 128.31C143.13 128.685 142.919 129.195 142.919 129.727V130.84C142.919 133.149 144.788 136.079 147.097 136.079C149.406 136.079 151.269 133.149 151.269 130.84V129.727C151.269 129.195 151.058 128.685 150.682 128.31C150.307 127.934 149.797 127.723 149.265 127.723Z" fill="white" stroke="#263238" stroke-linecap="round" stroke-linejoin="round"/>
<path d="M159.673 127.723H155.354C155.091 127.723 154.83 127.774 154.587 127.875C154.344 127.976 154.123 128.123 153.937 128.31C153.751 128.496 153.603 128.717 153.502 128.96C153.401 129.203 153.35 129.463 153.35 129.727V130.84C153.35 133.149 155.219 136.079 157.528 136.079C159.837 136.079 161.706 133.149 161.706 130.84V129.727C161.705 129.461 161.652 129.199 161.549 128.954C161.446 128.709 161.296 128.487 161.107 128.301C160.918 128.115 160.694 127.967 160.448 127.868C160.201 127.769 159.938 127.719 159.673 127.723Z" fill="white" stroke="#263238" stroke-linecap="round" stroke-linejoin="round"/>
<path d="M170.086 127.723H165.743C165.211 127.723 164.701 127.933 164.324 128.309C163.947 128.685 163.735 129.195 163.733 129.727V130.84C163.733 133.149 165.603 136.079 167.912 136.079C170.22 136.079 172.09 133.149 172.09 130.84V129.727C172.09 129.195 171.879 128.685 171.503 128.31C171.127 127.934 170.617 127.723 170.086 127.723Z" fill="white" stroke="#263238" stroke-linecap="round" stroke-linejoin="round"/>
<path d="M180.493 127.723H176.151C175.619 127.723 175.109 127.934 174.733 128.31C174.358 128.685 174.146 129.195 174.146 129.727V130.84C174.146 133.149 176.016 136.079 178.319 136.079C180.622 136.079 182.497 133.149 182.497 130.84V129.727C182.497 129.195 182.286 128.685 181.91 128.31C181.534 127.934 181.024 127.723 180.493 127.723Z" fill="white" stroke="#263238" stroke-linecap="round" stroke-linejoin="round"/>
<path d="M190.9 127.723H186.558C186.026 127.723 185.517 127.934 185.141 128.31C184.765 128.685 184.554 129.195 184.554 129.727V130.84C184.554 133.149 186.423 136.079 188.732 136.079C191.041 136.079 192.904 133.149 192.904 130.84V129.727C192.904 129.195 192.693 128.685 192.317 128.31C191.941 127.934 191.432 127.723 190.9 127.723Z" fill="white" stroke="#263238" stroke-linecap="round" stroke-linejoin="round"/>
<path d="M71.1979 117.051H66.8674C66.3359 117.051 65.8261 117.263 65.4503 117.638C65.0744 118.014 64.8633 118.524 64.8633 119.056V120.169C64.8633 122.472 66.7326 125.408 69.0415 125.408C71.3503 125.408 73.2138 122.478 73.2138 120.169V119.056C73.2138 118.791 73.1616 118.53 73.0601 118.286C72.9587 118.042 72.81 117.821 72.6226 117.634C72.4353 117.448 72.213 117.301 71.9685 117.201C71.724 117.101 71.4621 117.05 71.1979 117.051Z" fill="white" stroke="#263238" stroke-linecap="round" stroke-linejoin="round"/>
<path d="M81.6052 117.051H77.2629C76.7314 117.051 76.2216 117.263 75.8458 117.638C75.4699 118.014 75.2588 118.524 75.2588 119.056V120.169C75.2588 122.472 77.1281 125.408 79.437 125.408C81.7458 125.408 83.6151 122.478 83.6151 120.169V119.056C83.6136 118.523 83.4011 118.014 83.0244 117.638C82.6476 117.262 82.1372 117.051 81.6052 117.051Z" fill="white" stroke="#263238" stroke-linecap="round" stroke-linejoin="round"/>
<path d="M92.0183 117.051H87.676C87.1439 117.051 86.6336 117.262 86.2568 117.638C85.88 118.014 85.6676 118.523 85.666 119.056V120.169C85.666 122.472 87.5412 125.408 89.8442 125.408C92.1472 125.408 94.0224 122.478 94.0224 120.169V119.056C94.0224 118.524 93.8112 118.014 93.4354 117.638C93.0595 117.263 92.5498 117.051 92.0183 117.051Z" fill="white" stroke="#263238" stroke-linecap="round" stroke-linejoin="round"/>
<path d="M102.426 117.051H98.0842C97.5527 117.051 97.0429 117.263 96.6671 117.638C96.2912 118.014 96.0801 118.524 96.0801 119.056V120.169C96.0801 122.472 97.9494 125.408 100.252 125.408C102.555 125.408 104.431 122.478 104.431 120.169V119.056C104.431 118.792 104.379 118.532 104.278 118.289C104.177 118.045 104.03 117.824 103.844 117.638C103.657 117.452 103.437 117.305 103.193 117.204C102.95 117.103 102.69 117.051 102.426 117.051Z" fill="white" stroke="#263238" stroke-linecap="round" stroke-linejoin="round"/>
<path d="M112.834 117.051H108.474C107.942 117.051 107.433 117.263 107.057 117.638C106.681 118.014 106.47 118.524 106.47 119.056V120.169C106.47 122.472 108.339 125.408 110.648 125.408C112.957 125.408 114.82 122.478 114.82 120.169V119.056C114.82 118.527 114.612 118.02 114.239 117.645C113.867 117.269 113.362 117.056 112.834 117.051Z" fill="white" stroke="#263238" stroke-linecap="round" stroke-linejoin="round"/>
<path d="M123.241 117.051H118.899C118.367 117.051 117.857 117.263 117.482 117.638C117.106 118.014 116.895 118.524 116.895 119.056V120.169C116.895 122.472 118.764 125.408 121.073 125.408C123.382 125.408 125.251 122.478 125.251 120.169V119.056C125.249 118.523 125.037 118.014 124.66 117.638C124.283 117.262 123.773 117.051 123.241 117.051Z" fill="white" stroke="#263238" stroke-linecap="round" stroke-linejoin="round"/>
<path d="M133.672 117.051H129.329C128.797 117.051 128.287 117.262 127.91 117.638C127.533 118.014 127.321 118.523 127.319 119.056V120.169C127.319 122.472 129.195 125.408 131.498 125.408C133.8 125.408 135.676 122.478 135.676 120.169V119.056C135.676 118.524 135.465 118.014 135.089 117.638C134.713 117.263 134.203 117.051 133.672 117.051Z" fill="white" stroke="#263238" stroke-linecap="round" stroke-linejoin="round"/>
<path d="M144.061 117.051H139.719C139.187 117.051 138.678 117.263 138.302 117.638C137.926 118.014 137.715 118.524 137.715 119.056V120.169C137.715 122.472 139.584 125.408 141.887 125.408C144.19 125.408 146.065 122.478 146.065 120.169V119.056C146.065 118.524 145.854 118.014 145.478 117.638C145.103 117.263 144.593 117.051 144.061 117.051Z" fill="white" stroke="#263238" stroke-linecap="round" stroke-linejoin="round"/>
<path d="M154.468 117.051H150.126C149.595 117.051 149.085 117.263 148.709 117.638C148.333 118.014 148.122 118.524 148.122 119.056V120.169C148.122 122.472 149.991 125.408 152.3 125.408C154.609 125.408 156.473 122.478 156.473 120.169V119.056C156.473 118.524 156.261 118.014 155.886 117.638C155.51 117.263 155 117.051 154.468 117.051Z" fill="white" stroke="#263238" stroke-linecap="round" stroke-linejoin="round"/>
<path d="M164.876 117.051H160.533C160.002 117.051 159.492 117.263 159.116 117.638C158.74 118.014 158.529 118.524 158.529 119.056V120.169C158.529 122.472 160.399 125.408 162.707 125.408C165.016 125.408 166.886 122.478 166.886 120.169V119.056C166.884 118.523 166.672 118.014 166.295 117.638C165.918 117.262 165.408 117.051 164.876 117.051Z" fill="white" stroke="#263238" stroke-linecap="round" stroke-linejoin="round"/>
<path d="M175.278 117.051H170.936C170.404 117.051 169.893 117.262 169.517 117.638C169.14 118.014 168.927 118.523 168.926 119.056V120.169C168.926 122.472 170.801 125.408 173.104 125.408C175.407 125.408 177.282 122.478 177.282 120.169V119.056C177.282 118.524 177.071 118.014 176.695 117.638C176.319 117.263 175.81 117.051 175.278 117.051Z" fill="white" stroke="#263238" stroke-linecap="round" stroke-linejoin="round"/>
<path d="M185.697 117.051H181.355C180.828 117.059 180.326 117.274 179.956 117.649C179.587 118.024 179.38 118.529 179.38 119.056V120.169C179.38 122.472 181.249 125.408 183.552 125.408C185.855 125.408 187.73 122.478 187.73 120.169V119.056C187.73 118.79 187.678 118.527 187.575 118.282C187.473 118.037 187.322 117.815 187.133 117.628C186.944 117.442 186.719 117.295 186.473 117.196C186.226 117.097 185.963 117.048 185.697 117.051Z" fill="white" stroke="#263238" stroke-linecap="round" stroke-linejoin="round"/>
<path d="M196.104 117.051H191.762C191.23 117.051 190.721 117.263 190.345 117.638C189.969 118.014 189.758 118.524 189.758 119.056V120.169C189.758 122.472 191.627 125.408 193.936 125.408C196.245 125.408 198.108 122.478 198.108 120.169V119.056C198.108 118.524 197.897 118.014 197.521 117.638C197.145 117.263 196.636 117.051 196.104 117.051Z" fill="white" stroke="#263238" stroke-linecap="round" stroke-linejoin="round"/>
<path d="M171.234 138.833H91.7258C90.6869 138.833 89.8447 139.675 89.8447 140.714V146.422C89.8447 147.461 90.6869 148.303 91.7258 148.303H171.234C172.273 148.303 173.115 147.461 173.115 146.422V140.714C173.115 139.675 172.273 138.833 171.234 138.833Z" fill="white" stroke="#263238" stroke-linecap="round" stroke-linejoin="round"/>
<path d="M181.882 139.39H177.539C177.008 139.39 176.498 139.601 176.122 139.977C175.746 140.353 175.535 140.862 175.535 141.394V142.507C175.535 144.816 177.405 147.746 179.713 147.746C182.022 147.746 183.886 144.816 183.886 142.507V141.394C183.886 140.862 183.675 140.353 183.299 139.977C182.923 139.601 182.413 139.39 181.882 139.39Z" fill="white" stroke="#263238" stroke-linecap="round" stroke-linejoin="round"/>
<path d="M85.4206 139.39H81.0783C80.5468 139.39 80.0371 139.601 79.6612 139.977C79.2854 140.353 79.0742 140.862 79.0742 141.394V142.507C79.0742 144.816 80.9436 147.746 83.2524 147.746C85.5612 147.746 87.4306 144.816 87.4306 142.507V141.394C87.429 140.862 87.2166 140.352 86.8398 139.976C86.463 139.601 85.9527 139.39 85.4206 139.39Z" fill="white" stroke="#263238" stroke-linecap="round" stroke-linejoin="round"/>
<path opacity="0.2" d="M76.6422 108.847C76.8525 108.848 77.0623 108.868 77.2692 108.906C77.2692 108.865 77.2692 108.824 77.2692 108.783V107.67C77.2677 107.439 77.175 107.218 77.0114 107.056C76.8478 106.893 76.6266 106.802 76.3961 106.802H72.0538C71.8243 106.804 71.6046 106.896 71.4422 107.058C71.2799 107.22 71.1881 107.44 71.1865 107.67V108.783C71.1865 110.383 72.3585 112.399 73.7415 112.803C73.3137 111.027 74.2747 108.847 76.6422 108.847Z" fill="black"/>
<path opacity="0.2" d="M87.2838 108.549C87.4165 108.539 87.5496 108.539 87.6823 108.549V107.646C87.6808 107.417 87.5889 107.197 87.4266 107.035C87.2643 106.872 87.0445 106.78 86.815 106.779H82.4728C82.2422 106.779 82.021 106.87 81.8574 107.032C81.6938 107.195 81.6012 107.416 81.5996 107.646V108.759C81.5996 110.517 82.9884 112.715 84.5296 112.861C83.8205 111.045 84.7523 108.549 87.2838 108.549Z" fill="black"/>
<path opacity="0.2" d="M98.0016 108.396H98.0895V107.664C98.0895 107.434 97.9981 107.213 97.8355 107.05C97.6728 106.888 97.4523 106.796 97.2222 106.796H92.88C92.6494 106.796 92.4282 106.888 92.2646 107.05C92.1011 107.213 92.0084 107.433 92.0068 107.664V108.777C92.0068 110.564 93.4836 112.879 95.0482 112.879C95.1242 112.885 95.2006 112.885 95.2767 112.879C94.4915 111.027 95.3998 108.396 98.0016 108.396Z" fill="black"/>
<path opacity="0.2" d="M107.747 108.097C107.99 108.09 108.234 108.11 108.473 108.156V107.646C108.473 107.416 108.382 107.195 108.219 107.033C108.057 106.87 107.836 106.779 107.606 106.779H103.264C103.034 106.779 102.813 106.87 102.65 107.033C102.488 107.195 102.396 107.416 102.396 107.646V108.759C102.396 110.435 103.686 112.568 105.139 112.861C104.143 111.021 105.004 108.097 107.747 108.097Z" fill="black"/>
<path opacity="0.2" d="M118.687 108.097H118.91V107.658C118.908 107.427 118.816 107.207 118.652 107.044C118.488 106.882 118.267 106.791 118.037 106.791H113.694C113.465 106.792 113.245 106.884 113.083 107.046C112.921 107.209 112.829 107.428 112.827 107.658V108.771C112.827 110.559 114.304 112.873 115.868 112.873C115.948 112.879 116.029 112.879 116.109 112.873C115.083 111.027 115.945 108.097 118.687 108.097Z" fill="black"/>
<path opacity="0.2" d="M129.183 108.156H129.318V107.646C129.316 107.417 129.225 107.197 129.062 107.035C128.9 106.872 128.68 106.78 128.451 106.779H124.108C123.878 106.779 123.657 106.87 123.493 107.032C123.33 107.195 123.237 107.416 123.235 107.646V108.759C123.235 110.547 124.712 112.861 126.277 112.861C126.372 112.87 126.468 112.87 126.564 112.861C125.603 111.016 126.476 108.156 129.183 108.156Z" fill="black"/>
<path opacity="0.2" d="M139.227 108.097C139.394 108.1 139.56 108.111 139.725 108.132V107.67C139.725 107.44 139.634 107.219 139.471 107.056C139.309 106.894 139.088 106.802 138.858 106.802H134.516C134.286 106.802 134.065 106.894 133.902 107.056C133.74 107.219 133.648 107.44 133.648 107.67V108.783C133.648 110.541 135.102 112.85 136.655 112.885C135.617 111.045 136.473 108.097 139.227 108.097Z" fill="black"/>
<path opacity="0.2" d="M150.133 108.25V107.664C150.133 107.434 150.041 107.213 149.878 107.05C149.716 106.888 149.495 106.796 149.265 106.796H144.923C144.693 106.796 144.472 106.888 144.31 107.05C144.147 107.213 144.056 107.434 144.056 107.664V108.777C144.056 110.564 145.527 112.879 147.097 112.879C147.254 112.877 147.41 112.851 147.56 112.803C146.716 110.998 147.578 108.332 150.133 108.25Z" fill="black"/>
<path opacity="0.2" d="M159.69 108.021C159.979 108.02 160.267 108.058 160.546 108.132V107.67C160.544 107.439 160.451 107.218 160.288 107.056C160.124 106.893 159.903 106.802 159.672 106.802H155.354C155.124 106.804 154.904 106.896 154.742 107.058C154.58 107.22 154.488 107.44 154.486 107.67V108.783C154.486 110.435 155.74 112.522 157.164 112.838C156.069 111.004 156.918 108.021 159.69 108.021Z" fill="black"/>
<path opacity="0.2" d="M170.332 108.021C170.54 108.022 170.748 108.041 170.953 108.08V107.67C170.951 107.44 170.859 107.22 170.697 107.058C170.535 106.896 170.315 106.804 170.086 106.802H165.743C165.513 106.802 165.292 106.893 165.128 107.056C164.964 107.218 164.872 107.439 164.87 107.67V108.783C164.87 110.541 166.277 112.774 167.8 112.885C166.698 111.045 167.542 108.021 170.332 108.021Z" fill="black"/>
<path opacity="0.2" d="M180.903 108.32C181.056 108.322 181.209 108.334 181.36 108.355V107.67C181.36 107.44 181.269 107.219 181.106 107.056C180.943 106.894 180.723 106.802 180.493 106.802H176.15C176.037 106.802 175.924 106.825 175.819 106.868C175.713 106.912 175.618 106.976 175.537 107.056C175.457 107.137 175.393 107.232 175.349 107.338C175.306 107.443 175.283 107.556 175.283 107.67V108.783C175.283 110.541 176.69 112.768 178.213 112.885C177.364 111.033 178.26 108.32 180.903 108.32Z" fill="black"/>
<path opacity="0.2" d="M191.767 108.185V107.67C191.767 107.44 191.676 107.219 191.513 107.056C191.351 106.894 191.13 106.802 190.9 106.802H186.558C186.328 106.802 186.107 106.894 185.944 107.056C185.782 107.219 185.69 107.44 185.69 107.67V108.783C185.69 110.57 187.161 112.885 188.732 112.885C188.958 112.882 189.181 112.834 189.388 112.744C188.556 110.975 189.341 108.384 191.767 108.185Z" fill="black"/>
<path opacity="0.2" d="M76.941 129.838C77.0523 129.832 77.1638 129.832 77.2751 129.838V129.715C77.2735 129.484 77.1808 129.264 77.0173 129.101C76.8537 128.939 76.6325 128.848 76.4019 128.848H72.0597C71.8301 128.849 71.6104 128.941 71.4481 129.103C71.2858 129.266 71.1939 129.485 71.1924 129.715V130.828C71.1924 132.616 72.6691 134.93 74.2337 134.93C74.3419 134.928 74.4498 134.916 74.556 134.895C73.2434 133.114 74.0403 129.838 76.941 129.838Z" fill="black"/>
<path opacity="0.2" d="M87.1373 129.838C87.3199 129.839 87.5022 129.854 87.6823 129.885V129.733C87.6808 129.503 87.5889 129.283 87.4266 129.121C87.2643 128.959 87.0445 128.867 86.815 128.865H82.4728C82.2422 128.865 82.021 128.956 81.8574 129.119C81.6938 129.281 81.6012 129.502 81.5996 129.733V130.846C81.5996 132.633 83.0763 134.948 84.6409 134.948H84.7699C83.4279 133.143 84.219 129.838 87.1373 129.838Z" fill="black"/>
<path opacity="0.2" d="M97.4801 129.985C97.6766 129.985 97.8727 130.003 98.0661 130.037V129.727C98.0661 129.613 98.0437 129.5 98.0001 129.395C97.9565 129.29 97.8926 129.194 97.8121 129.113C97.7315 129.033 97.6359 128.969 97.5307 128.925C97.4255 128.882 97.3127 128.859 97.1988 128.859H92.8565C92.626 128.859 92.4048 128.951 92.2412 129.113C92.0776 129.276 91.9849 129.496 91.9834 129.727V130.84C91.9834 132.598 93.4367 134.901 94.9896 134.942C93.8234 133.12 94.638 129.985 97.4801 129.985Z" fill="black"/>
<path opacity="0.2" d="M108.046 130.061C108.196 130.061 108.347 130.071 108.497 130.09V129.727C108.497 129.613 108.474 129.5 108.431 129.395C108.387 129.29 108.323 129.194 108.243 129.113C108.162 129.033 108.067 128.969 107.961 128.925C107.856 128.882 107.743 128.859 107.629 128.859H103.287C103.173 128.859 103.061 128.882 102.955 128.925C102.85 128.969 102.754 129.033 102.674 129.113C102.593 129.194 102.53 129.29 102.486 129.395C102.442 129.5 102.42 129.613 102.42 129.727V130.84C102.42 132.627 103.891 134.942 105.461 134.942H105.532C104.406 133.108 105.244 130.061 108.046 130.061Z" fill="black"/>
<path opacity="0.2" d="M118.242 129.838C118.466 129.838 118.69 129.86 118.91 129.902V129.733C118.908 129.502 118.816 129.281 118.652 129.119C118.488 128.956 118.267 128.865 118.037 128.865H113.694C113.465 128.867 113.245 128.959 113.083 129.121C112.921 129.283 112.829 129.503 112.827 129.733V130.846C112.827 132.633 114.304 134.948 115.868 134.948C114.532 133.155 115.318 129.838 118.242 129.838Z" fill="black"/>
<path opacity="0.2" d="M128.808 129.908C128.979 129.91 129.149 129.923 129.318 129.949V129.727C129.316 129.497 129.225 129.277 129.062 129.115C128.9 128.953 128.68 128.861 128.451 128.859H124.108C123.878 128.859 123.657 128.951 123.493 129.113C123.33 129.276 123.237 129.496 123.235 129.727V130.84C123.235 132.627 124.712 134.942 126.277 134.942H126.388C125.122 133.125 125.931 129.908 128.808 129.908Z" fill="black"/>
<path opacity="0.2" d="M139.602 130.131H139.725V129.721C139.725 129.491 139.634 129.27 139.471 129.108C139.309 128.945 139.088 128.854 138.858 128.854H134.516C134.286 128.854 134.065 128.945 133.902 129.108C133.74 129.27 133.648 129.491 133.648 129.721V130.834C133.648 132.621 135.119 134.936 136.684 134.936C136.798 134.934 136.912 134.921 137.024 134.895C136.016 133.067 136.854 130.131 139.602 130.131Z" fill="black"/>
<path opacity="0.2" d="M150.08 129.908H150.115V129.727C150.115 129.613 150.093 129.5 150.049 129.395C150.005 129.29 149.941 129.194 149.861 129.113C149.78 129.033 149.685 128.969 149.58 128.925C149.474 128.882 149.362 128.859 149.248 128.859H144.923C144.809 128.859 144.696 128.882 144.591 128.925C144.486 128.969 144.39 129.033 144.31 129.113C144.229 129.194 144.165 129.29 144.122 129.395C144.078 129.5 144.056 129.613 144.056 129.727V130.84C144.056 132.627 145.527 134.942 147.097 134.942C147.277 134.939 147.455 134.908 147.624 134.848C146.435 133.032 147.261 129.908 150.08 129.908Z" fill="black"/>
<path opacity="0.2" d="M160.212 129.686H160.54C160.531 129.461 160.436 129.249 160.274 129.093C160.112 128.937 159.897 128.849 159.672 128.848H155.354C155.124 128.849 154.904 128.941 154.742 129.103C154.58 129.266 154.488 129.485 154.486 129.715V130.828C154.486 132.616 155.963 134.93 157.528 134.93C157.67 134.926 157.812 134.904 157.95 134.866C156.479 133.12 157.241 129.686 160.212 129.686Z" fill="black"/>
<path opacity="0.2" d="M170.935 129.838V129.733C170.934 129.503 170.842 129.283 170.68 129.121C170.517 128.959 170.297 128.867 170.068 128.865H165.726C165.495 128.865 165.274 128.956 165.11 129.119C164.947 129.281 164.854 129.502 164.853 129.733V130.846C164.853 132.633 166.329 134.948 167.894 134.948C168.094 134.945 168.292 134.909 168.48 134.842C167.255 133.026 168.064 129.838 170.935 129.838Z" fill="black"/>
<path opacity="0.2" d="M181.137 129.838H181.372V129.721C181.372 129.607 181.349 129.494 181.306 129.389C181.262 129.284 181.198 129.188 181.118 129.108C181.037 129.027 180.942 128.963 180.836 128.92C180.731 128.876 180.618 128.854 180.504 128.854H176.162C175.932 128.854 175.712 128.945 175.549 129.108C175.386 129.27 175.295 129.491 175.295 129.721V130.834C175.295 132.621 176.766 134.936 178.33 134.936C178.469 134.934 178.607 134.915 178.741 134.878C177.434 133.084 178.237 129.838 181.137 129.838Z" fill="black"/>
<path opacity="0.2" d="M191.392 130.283C191.521 130.283 191.65 130.283 191.767 130.283V129.697C191.767 129.467 191.676 129.247 191.513 129.084C191.351 128.921 191.13 128.83 190.9 128.83H186.558C186.328 128.83 186.107 128.921 185.944 129.084C185.782 129.247 185.69 129.467 185.69 129.697V130.811C185.69 132.598 187.161 134.913 188.732 134.913C187.823 133.096 188.702 130.283 191.392 130.283Z" fill="black"/>
<path opacity="0.2" d="M71.9948 119.343H72.071V119.056C72.0694 118.825 71.9767 118.604 71.8132 118.442C71.6496 118.279 71.4284 118.188 71.1978 118.188H66.8673C66.6373 118.188 66.4167 118.28 66.254 118.442C66.0914 118.605 66 118.826 66 119.056V120.169C66 121.956 67.4709 124.271 69.0413 124.271C69.1922 124.267 69.342 124.244 69.4867 124.201C68.3616 122.372 69.2113 119.343 71.9948 119.343Z" fill="black"/>
<path opacity="0.2" d="M82.1852 119.343H82.4782V119.044C82.4766 118.813 82.384 118.593 82.2204 118.43C82.0568 118.268 81.8356 118.177 81.605 118.177H77.2628C77.0333 118.178 76.8135 118.27 76.6512 118.432C76.4889 118.595 76.397 118.814 76.3955 119.044V120.157C76.3955 121.944 77.8722 124.259 79.4368 124.259C79.5227 124.265 79.6088 124.265 79.6947 124.259C78.5403 122.425 79.3724 119.343 82.1852 119.343Z" fill="black"/>
<path opacity="0.2" d="M92.8336 119.343H92.8864V119.056C92.8848 118.826 92.793 118.606 92.6307 118.444C92.4684 118.282 92.2486 118.19 92.0191 118.188H87.6768C87.5617 118.187 87.4474 118.208 87.3405 118.251C87.2336 118.294 87.1362 118.357 87.0539 118.438C86.9717 118.518 86.9062 118.615 86.8612 118.721C86.8163 118.827 86.7928 118.94 86.792 119.056V120.169C86.792 121.956 88.2687 124.271 89.8333 124.271C89.9906 124.269 90.1467 124.243 90.2963 124.195C89.2004 122.372 90.0384 119.343 92.8336 119.343Z" fill="black"/>
<path opacity="0.2" d="M103.024 119.29H103.294V119.067C103.294 118.837 103.202 118.617 103.04 118.454C102.877 118.291 102.656 118.2 102.426 118.2H98.0841C97.8541 118.2 97.6335 118.291 97.4708 118.454C97.3082 118.617 97.2168 118.837 97.2168 119.067V120.181C97.2168 121.968 98.6877 124.283 100.252 124.283C100.359 124.28 100.464 124.269 100.569 124.248C99.3557 122.425 100.176 119.29 103.024 119.29Z" fill="black"/>
<path opacity="0.2" d="M113.162 119.343C113.348 119.343 113.534 119.358 113.718 119.39V119.056C113.718 118.826 113.627 118.605 113.464 118.442C113.302 118.28 113.081 118.188 112.851 118.188H108.474C108.244 118.188 108.023 118.28 107.86 118.442C107.698 118.605 107.606 118.826 107.606 119.056V120.169C107.606 121.956 109.077 124.271 110.648 124.271C109.488 122.448 110.314 119.343 113.162 119.343Z" fill="black"/>
<path opacity="0.2" d="M123.639 118.968C123.796 118.968 123.952 118.978 124.108 118.997C124.092 118.778 123.994 118.573 123.833 118.423C123.672 118.273 123.461 118.189 123.241 118.188H118.899C118.669 118.19 118.449 118.282 118.287 118.444C118.125 118.606 118.033 118.826 118.031 119.056V120.169C118.031 121.956 119.508 124.271 121.073 124.271C121.185 124.269 121.297 124.255 121.407 124.23C119.883 122.489 120.627 118.968 123.639 118.968Z" fill="black"/>
<path opacity="0.2" d="M134.129 119.413C134.263 119.413 134.398 119.413 134.521 119.413V119.032C134.52 118.803 134.428 118.583 134.265 118.421C134.103 118.258 133.883 118.166 133.654 118.165H129.312C129.081 118.165 128.86 118.256 128.696 118.418C128.533 118.581 128.44 118.802 128.438 119.032V120.145C128.438 121.933 129.915 124.247 131.48 124.247H131.597C130.501 122.431 131.327 119.413 134.129 119.413Z" fill="black"/>
<path opacity="0.2" d="M144.928 119.056C144.928 118.826 144.837 118.605 144.674 118.442C144.512 118.28 144.291 118.188 144.061 118.188H139.719C139.605 118.188 139.492 118.211 139.387 118.254C139.282 118.298 139.186 118.362 139.106 118.442C139.025 118.523 138.961 118.618 138.918 118.724C138.874 118.829 138.852 118.942 138.852 119.056V120.169C138.852 121.956 140.322 124.271 141.887 124.271C142.2 124.263 142.506 124.179 142.778 124.025C141.594 122.279 142.309 119.29 144.928 119.056Z" fill="black"/>
<path opacity="0.2" d="M155.353 119.29V119.067C155.353 118.837 155.262 118.617 155.099 118.454C154.937 118.291 154.716 118.2 154.486 118.2H150.144C149.914 118.2 149.693 118.291 149.53 118.454C149.368 118.617 149.276 118.837 149.276 119.067V120.181C149.276 121.968 150.747 124.283 152.318 124.283C152.569 124.279 152.817 124.221 153.044 124.113C151.972 122.325 152.74 119.437 155.353 119.29Z" fill="black"/>
<path opacity="0.2" d="M165.386 119.114C165.509 119.114 165.632 119.114 165.75 119.114V119.038C165.748 118.807 165.655 118.587 165.492 118.424C165.328 118.262 165.107 118.171 164.877 118.171H160.534C160.305 118.172 160.085 118.264 159.923 118.426C159.76 118.589 159.669 118.808 159.667 119.038V120.151C159.667 121.939 161.144 124.253 162.708 124.253C162.819 124.252 162.929 124.238 163.036 124.212C161.677 122.448 162.456 119.114 165.386 119.114Z" fill="black"/>
<path opacity="0.2" d="M176.157 119.495V119.056C176.155 118.826 176.063 118.606 175.901 118.444C175.739 118.282 175.519 118.19 175.29 118.188H170.947C170.717 118.188 170.496 118.279 170.332 118.442C170.168 118.604 170.076 118.825 170.074 119.056V120.169C170.074 121.956 171.551 124.271 173.116 124.271C173.293 124.268 173.469 124.238 173.637 124.183C172.682 122.366 173.52 119.565 176.157 119.495Z" fill="black"/>
<path opacity="0.2" d="M186.072 119.19C186.236 119.193 186.401 119.204 186.564 119.225V119.056C186.564 118.825 186.473 118.605 186.31 118.442C186.147 118.28 185.927 118.188 185.697 118.188H181.355C181.241 118.188 181.128 118.211 181.023 118.254C180.917 118.298 180.822 118.362 180.741 118.442C180.661 118.523 180.597 118.618 180.553 118.724C180.51 118.829 180.487 118.942 180.487 119.056V120.169C180.487 121.956 181.958 124.271 183.523 124.271C183.577 124.274 183.632 124.274 183.687 124.271C182.374 122.46 183.171 119.19 186.072 119.19Z" fill="black"/>
<path opacity="0.2" d="M196.567 119.642C196.702 119.632 196.837 119.632 196.971 119.642V119.056C196.971 118.826 196.88 118.605 196.717 118.442C196.555 118.28 196.334 118.188 196.104 118.188H191.762C191.532 118.188 191.311 118.28 191.149 118.442C190.986 118.605 190.895 118.826 190.895 119.056V120.169C190.895 121.927 192.354 124.271 193.918 124.271C193.004 122.425 193.889 119.642 196.567 119.642Z" fill="black"/>
<path opacity="0.2" d="M171.979 146.457V140.679C171.979 140.287 171.661 139.97 171.269 139.97H91.6907C91.2991 139.97 90.9816 140.287 90.9816 140.679V146.457C90.9816 146.849 91.2991 147.166 91.6907 147.166H171.269C171.661 147.166 171.979 146.849 171.979 146.457Z" fill="black"/>
<path opacity="0.2" d="M182.749 141.974V141.388C182.749 141.274 182.726 141.161 182.683 141.056C182.639 140.951 182.575 140.855 182.495 140.775C182.414 140.694 182.319 140.63 182.213 140.587C182.108 140.543 181.995 140.521 181.881 140.521H177.539C177.425 140.521 177.312 140.543 177.207 140.587C177.102 140.63 177.006 140.694 176.926 140.775C176.845 140.855 176.781 140.951 176.738 141.056C176.694 141.161 176.672 141.274 176.672 141.388V142.501C176.672 144.289 178.143 146.603 179.713 146.603C179.844 146.6 179.973 146.583 180.1 146.551C179.233 144.722 180.118 141.992 182.749 141.974Z" fill="black"/>
<path opacity="0.2" d="M85.7838 141.599C85.9545 141.6 86.1249 141.614 86.2936 141.64V141.394C86.2921 141.163 86.1994 140.943 86.0358 140.78C85.8722 140.618 85.651 140.527 85.4205 140.527H81.0782C80.8487 140.528 80.629 140.62 80.4667 140.782C80.3043 140.945 80.2125 141.164 80.2109 141.394V142.507C80.2109 144.295 81.6877 146.609 83.2523 146.609H83.3519C82.1037 144.793 82.9241 141.599 85.7838 141.599Z" fill="black"/>
<path opacity="0.2" d="M59.6596 19.377H203.3C204.287 19.377 205.233 19.769 205.931 20.4668C206.629 21.1647 207.021 22.1112 207.021 23.0981V55.9141H55.9385V23.0981C55.9385 22.1112 56.3305 21.1647 57.0284 20.4668C57.7262 19.769 58.6727 19.377 59.6596 19.377Z" fill="black"/>
<path d="M191.556 25.5651H71.4263C70.4246 17.2459 68.6591 9.03656 66.1523 1.04102H196.854C194.308 9.02743 192.534 17.2398 191.556 25.5651Z" fill="white"/>
<path opacity="0.2" d="M192.741 17.6599C191.867 22.43 191.569 25.5651 191.569 25.5651H71.4386C71.4386 25.5651 71.1339 22.4886 70.2373 17.6599H192.741Z" fill="black"/>
<path d="M191.556 25.5651H71.4263C70.4246 17.2459 68.6591 9.03656 66.1523 1.04102H196.854C194.308 9.02743 192.534 17.2398 191.556 25.5651V25.5651Z" stroke="#263238" stroke-linecap="round" stroke-linejoin="round"/>
<path d="M189.922 46.2158H72.0713V94.7015H189.922V46.2158Z" fill="#263238"/>
<g opacity="0.4">
<path opacity="0.4" d="M128.058 90.4118L128.679 90.4411C129.46 78.35 130.241 66.2393 131.023 54.1091C130.027 66.2432 129.038 78.3441 128.058 90.4118Z" fill="white"/>
<path opacity="0.4" d="M126.054 90.2595L126.675 90.3122C128.03 78.2992 129.384 66.2335 130.736 54.115C129.177 66.2413 127.616 78.2894 126.054 90.2595Z" fill="white"/>
<path opacity="0.4" d="M124.102 90.0368C124.307 90.0368 124.518 90.0837 124.723 90.1071C126.645 78.223 128.579 66.2237 130.524 54.1091C128.375 66.2354 126.235 78.2113 124.102 90.0368Z" fill="white"/>
<path opacity="0.4" d="M122.127 89.7379L122.754 89.8375C125.246 78.1175 127.758 66.2022 130.29 54.0916C127.555 66.2139 124.834 78.0961 122.127 89.7379Z" fill="white"/>
<path opacity="0.4" d="M120.158 89.3688L120.791 89.4977C123.838 78.0004 126.927 66.2022 130.056 54.1033C126.727 66.2061 123.428 77.9613 120.158 89.3688Z" fill="white"/>
<path opacity="0.4" d="M118.201 88.9234L118.834 89.0816C122.426 77.8421 126.118 66.1866 129.822 54.0974C125.901 66.1866 121.993 77.7894 118.201 88.9234Z" fill="white"/>
<path opacity="0.4" d="M116.25 88.396L116.889 88.5835C120.991 77.6605 125.286 66.1632 129.587 54.0857C125.069 66.1632 120.569 77.596 116.25 88.396Z" fill="white"/>
<path opacity="0.4" d="M114.333 87.7983L114.972 88.0034C119.607 77.4554 124.471 66.1397 129.37 54.0798C124.231 66.1397 119.144 77.3733 114.333 87.7983Z" fill="white"/>
<path opacity="0.4" d="M112.388 87.1127L113.032 87.3471C118.166 77.1975 123.621 66.1104 129.118 54.0681C123.393 66.1104 117.709 77.0979 112.388 87.1127Z" fill="white"/>
<path opacity="0.4" d="M110.489 86.3391L111.134 86.6087C116.736 76.9163 122.784 66.0987 128.884 54.0564C122.537 66.0753 116.273 76.8342 110.489 86.3391Z" fill="white"/>
<path opacity="0.4" d="M108.608 85.4719L109.253 85.7824C115.301 76.6115 121.94 66.0342 128.65 54.0447C121.7 66.0342 114.832 76.5119 108.608 85.4719Z" fill="white"/>
<path opacity="0.4" d="M106.757 84.5108L107.401 84.8624C113.847 76.2658 121.096 65.9874 128.415 54.0271C121.74 64.5642 114.51 74.7398 106.757 84.5108Z" fill="white"/>
<path opacity="0.4" d="M104.957 83.456C105.168 83.5908 105.391 83.7138 105.607 83.8428C113.74 74.37 121.286 64.409 128.204 54.0154C121.125 64.3398 113.358 74.1756 104.957 83.456Z" fill="white"/>
<path opacity="0.4" d="M103.158 82.2899L103.797 82.7294C112.573 73.793 120.646 64.1932 127.946 54.0154C120.495 64.1218 112.203 73.5803 103.158 82.2899Z" fill="white"/>
<path opacity="0.4" d="M127.712 53.9802C118.283 65.7881 109.059 74.7949 101.441 81.0183L102.068 81.5046C111.473 73.1676 120.06 63.9509 127.712 53.9802Z" fill="white"/>
<path opacity="0.4" d="M127.478 53.9626C117.434 65.6826 107.618 74.25 99.7715 79.6412L100.393 80.1744C108.134 74.4433 117.697 65.7119 127.478 53.9626Z" fill="white"/>
<path opacity="0.4" d="M127.226 53.9451C116.578 65.5772 106.206 73.6405 98.1836 78.141C98.377 78.3402 98.5704 78.5395 98.7696 78.727C106.716 73.8632 116.859 65.6065 127.226 53.9451Z" fill="white"/>
<path opacity="0.4" d="M127.008 53.9216C115.78 65.4365 104.869 72.9666 96.7178 76.5412L97.3038 77.18C105.373 73.2128 116.038 65.4717 127.008 53.9216Z" fill="white"/>
<path opacity="0.4" d="M95.3701 74.8301C95.5401 75.0645 95.7159 75.2989 95.8917 75.5275C104.066 72.5096 115.23 65.3076 126.78 53.9041C114.995 65.2549 103.592 72.2224 95.3701 74.8301Z" fill="white"/>
<path opacity="0.4" d="M94.1748 73.0487C94.3272 73.2948 94.4854 73.5409 94.6436 73.787C102.848 71.7243 114.497 65.0967 126.545 53.863C114.263 65.0322 102.408 71.4137 94.1748 73.0487Z" fill="white"/>
<path opacity="0.4" d="M93.1553 71.2379C93.2842 71.4958 93.419 71.7478 93.5537 72.0056C101.758 70.8922 113.806 64.8505 126.311 53.8689C113.601 64.7451 101.359 70.5347 93.1553 71.2379Z" fill="white"/>
<path opacity="0.4" d="M92.3232 69.3862C92.4287 69.644 92.5401 69.9077 92.6514 70.1656C100.809 69.9663 113.161 64.5224 126.053 53.8279C113.015 64.411 100.469 69.5913 92.3232 69.3862Z" fill="white"/>
<path opacity="0.4" d="M130.044 90.4939H130.659C130.847 78.3832 131.042 66.2569 131.245 54.115C130.835 66.2491 130.435 78.3754 130.044 90.4939Z" fill="white"/>
<path opacity="0.4" d="M132.024 90.5056H132.646C132.255 78.3949 131.864 66.2686 131.474 54.1267L132.024 90.5056Z" fill="white"/>
<path opacity="0.4" d="M134.005 90.4528H134.626C133.65 78.3812 132.673 66.2706 131.696 54.1208C132.466 66.255 133.236 78.3656 134.005 90.4528Z" fill="white"/>
<path opacity="0.4" d="M136.015 90.3298L136.636 90.2829C135.074 78.3012 133.511 66.2452 131.948 54.115C133.292 66.2452 134.648 78.3168 136.015 90.3298Z" fill="white"/>
<path opacity="0.4" d="M137.966 90.1423L138.588 90.0661C136.462 78.225 134.314 66.2393 132.142 54.1091C134.099 66.2393 136.04 78.2504 137.966 90.1423Z" fill="white"/>
<path opacity="0.4" d="M139.941 89.8786L140.568 89.7848C137.873 78.1234 135.148 66.2315 132.394 54.1091C134.925 66.2354 137.441 78.1586 139.941 89.8786Z" fill="white"/>
<path opacity="0.4" d="M141.91 89.5446L142.537 89.4273C139.283 77.9964 135.98 66.2218 132.628 54.1033C135.745 66.2218 138.84 78.0355 141.91 89.5446Z" fill="white"/>
<path opacity="0.4" d="M143.867 89.1344L144.506 88.9879C140.709 77.8539 136.794 66.21 132.862 54.0974C136.578 66.212 140.246 77.891 143.867 89.1344Z" fill="white"/>
<path opacity="0.4" d="M145.825 88.6538L146.457 88.4722C142.133 77.6488 137.626 66.2042 133.097 54.0857C137.404 66.1925 141.693 77.6839 145.825 88.6538Z" fill="white"/>
<path opacity="0.4" d="M147.764 88.0854L148.409 87.8745C143.563 77.4319 138.447 66.1925 133.331 54.0798C138.242 66.169 143.117 77.4964 147.764 88.0854Z" fill="white"/>
<path opacity="0.4" d="M149.693 87.435L150.338 87.1947C145.005 77.18 139.309 66.1456 133.566 54.0681C139.081 66.1456 144.548 77.2561 149.693 87.435Z" fill="white"/>
<path opacity="0.4" d="M151.603 86.7025C151.82 86.6087 152.043 86.5266 152.254 86.4329C146.453 76.9045 140.159 66.1163 133.801 54.0564C139.924 66.1163 145.978 76.9866 151.603 86.7025Z" fill="white"/>
<path opacity="0.4" d="M153.496 85.8879L154.147 85.5773C147.906 76.594 141.009 66.087 134.035 54.0505C140.768 66.0753 147.425 76.6877 153.496 85.8879Z" fill="white"/>
<path opacity="0.4" d="M155.354 84.9679C155.571 84.8565 155.787 84.7335 155.998 84.6163C148.216 74.8111 140.959 64.6004 134.258 54.0271C141.618 66.0401 148.908 76.3478 155.354 84.9679Z" fill="white"/>
<path opacity="0.4" d="M157.194 83.9541L157.85 83.5673C149.412 74.2529 141.613 64.3799 134.504 54.0154C141.447 64.45 149.025 74.4484 157.194 83.9541Z" fill="white"/>
<path opacity="0.4" d="M134.738 53.9978C142.067 64.2232 150.176 73.8663 158.993 82.8407L159.643 82.4012C150.554 73.6545 142.222 64.1526 134.738 53.9978Z" fill="white"/>
<path opacity="0.4" d="M134.973 53.9802C142.66 63.9988 151.294 73.2534 160.757 81.616C160.973 81.4578 161.179 81.2937 161.39 81.1296C153.748 74.9063 144.454 65.8584 134.973 53.9802Z" fill="white"/>
<path opacity="0.4" d="M135.207 53.9626C145.052 65.7823 154.674 74.5488 162.438 80.2799C162.649 80.1041 162.866 79.9283 163.071 79.7466C155.195 74.3672 145.316 65.7764 135.207 53.9626Z" fill="white"/>
<path opacity="0.4" d="M135.43 53.9451C145.89 65.6651 156.086 73.9804 164.056 78.8383C164.261 78.645 164.454 78.4399 164.642 78.2523C156.614 73.7577 146.165 65.6651 135.43 53.9451Z" fill="white"/>
<path opacity="0.4" d="M135.676 53.9216C146.734 65.5596 157.481 73.3358 165.562 77.2737L166.148 76.6291C157.997 73.0956 146.997 65.5362 135.676 53.9216Z" fill="white"/>
<path opacity="0.4" d="M167.009 75.6095C167.191 75.3751 167.361 75.1407 167.537 74.9004C159.303 72.3513 147.794 65.3604 135.893 53.9041C147.542 65.4072 158.817 72.6326 167.009 75.6095Z" fill="white"/>
<path opacity="0.4" d="M168.281 73.8456L168.761 73.0955C160.516 71.5426 148.55 65.1435 136.139 53.8806C148.322 65.208 160.042 71.8532 168.281 73.8456Z" fill="white"/>
<path opacity="0.4" d="M169.418 72.0232C169.558 71.7653 169.693 71.5075 169.828 71.2438C161.624 70.6578 149.253 64.8623 136.426 53.8572C149.013 64.956 161.214 71.0094 169.418 72.0232Z" fill="white"/>
<path opacity="0.4" d="M136.602 53.8279C149.634 64.6454 162.151 70.0894 170.297 70.1714C170.414 69.9077 170.525 69.644 170.636 69.3803C162.503 69.7143 149.822 64.5282 136.602 53.8279Z" fill="white"/>
</g>
<path opacity="0.2" d="M114.334 54.9882C112.113 60.6841 114.515 77.2562 130.542 77.2562C146.569 77.2562 152.388 65.6123 151.738 58.4163L173.133 54.9706C173.133 54.9706 179.69 73.0897 165.767 85.7649C151.843 98.44 103.58 97.6197 93.3782 87.9858C83.1759 78.352 88.8367 59.3187 88.8367 59.3187L114.334 54.9882Z" fill="black"/>
<path d="M208.234 30.4114V26.4148C208.234 26.267 208.281 26.1229 208.369 26.0037C208.456 25.8845 208.58 25.7965 208.721 25.7527L211.651 24.8385V20.842C211.651 20.3633 211.841 19.9042 212.179 19.5657C212.518 19.2273 212.977 19.0371 213.456 19.0371H216.972C217.145 19.0338 217.313 19.098 217.439 19.2161C217.566 19.3342 217.642 19.4969 217.651 19.67V20.9592C217.651 21.1354 217.582 21.3044 217.458 21.4295C217.334 21.5546 217.165 21.6257 216.989 21.6272H212.518V25.5358C212.516 25.6537 212.484 25.7691 212.426 25.8715C212.368 25.9739 212.284 26.06 212.184 26.1218L209.688 27.6337V30.4172L208.234 30.4114Z" fill="#999999" stroke="#263238" stroke-linecap="round" stroke-linejoin="round"/>
<path d="M212.09 30.4114H208.234V41.9439H212.09V30.4114Z" fill="#263238"/>
<path d="M216.913 29.4327H212.09V42.9224H216.913V29.4327Z" fill="#757575"/>
<path opacity="0.2" d="M216.901 37.6484H212.09V42.9224H216.901V37.6484Z" fill="black"/>
<path d="M216.913 29.4327H212.09V42.9224H216.913V29.4327Z" stroke="#263238" stroke-linecap="round" stroke-linejoin="round"/>
<path d="M50.8697 41.938H54.7256V30.4055H50.8697V41.938Z" fill="#263238"/>
<path d="M46.0473 42.9166H50.8701V29.4269H46.0473V42.9166Z" fill="#757575"/>
<path opacity="0.2" d="M50.8755 37.6484H46.0527V42.7935H50.8755V37.6484Z" fill="black"/>
<path d="M46.0473 42.9166H50.8701V29.4269H46.0473V42.9166Z" stroke="#263238" stroke-linecap="round" stroke-linejoin="round"/>
<path d="M54.1455 36.8632C54.4937 35.9496 54.5476 34.9501 54.2996 34.0044C54.0516 33.0588 53.5142 32.2143 52.7625 31.5892L49.9263 29.2452C49.7459 29.0931 49.536 28.9798 49.3098 28.9125C49.0836 28.8451 48.846 28.8251 48.6117 28.8537C48.3775 28.8823 48.1516 28.9589 47.9483 29.0787C47.745 29.1985 47.5685 29.3589 47.4299 29.5499L36.1846 45.0613C35.9706 45.3515 35.8556 45.7028 35.8565 46.0634V62.7234C35.8564 62.947 35.9008 63.1684 35.9871 63.3747C36.0734 63.581 36.1998 63.7681 36.359 63.9251C36.5182 64.0821 36.707 64.2059 36.9145 64.2894C37.122 64.3728 37.344 64.4142 37.5676 64.411C38.0152 64.411 38.4444 64.2332 38.7609 63.9167C39.0774 63.6002 39.2552 63.171 39.2552 62.7234V49.1926C39.2563 48.8586 39.3607 48.5331 39.5541 48.2609L47.9632 36.5409C48.0368 36.438 48.131 36.3515 48.2398 36.2869C48.3486 36.2222 48.4696 36.1809 48.5952 36.1655C48.7208 36.1501 48.8482 36.1609 48.9694 36.1973C49.0906 36.2336 49.2029 36.2948 49.2993 36.3768L50.8463 37.6894C51.2293 38.0145 51.7152 38.1931 52.2176 38.1934C52.6353 38.1909 53.0427 38.0627 53.3865 37.8254C53.7304 37.5882 53.9949 37.2529 54.1455 36.8632Z" fill="white" stroke="#263238" stroke-linecap="round" stroke-linejoin="round"/>
<path d="M51.8253 35.3455C52.2687 35.3455 52.6281 34.9861 52.6281 34.5427C52.6281 34.0993 52.2687 33.7399 51.8253 33.7399C51.3819 33.7399 51.0225 34.0993 51.0225 34.5427C51.0225 34.9861 51.3819 35.3455 51.8253 35.3455Z" fill="#999999" stroke="#263238" stroke-linecap="round" stroke-linejoin="round"/>
<path d="M204.659 24.8385H58.3057V47.505H204.659V24.8385Z" fill="#263238"/>
<path opacity="0.2" d="M202.545 26.5437H60.3634C59.9167 26.5437 59.5547 26.9058 59.5547 27.3524V31.0207C59.5547 31.4674 59.9167 31.8294 60.3634 31.8294H202.545C202.991 31.8294 203.353 31.4674 203.353 31.0207V27.3524C203.353 26.9058 202.991 26.5437 202.545 26.5437Z" fill="white"/>
<path d="M191.556 52.064H71.4263C68.041 44.3259 66.2474 35.9856 66.1523 27.5399H196.854C196.854 38.8966 191.556 52.064 191.556 52.064Z" fill="white"/>
<g opacity="0.7">
<path opacity="0.7" d="M81.1416 50.224C81.1416 50.224 83.7727 50.0834 85.2436 49.1985C86.7145 48.3137 86.609 49.9955 87.4528 50.1068C88.2967 50.2182 90.2891 49.5208 91.3439 49.5208C92.3987 49.5208 91.5958 50.1654 92.7854 50.1068C93.975 50.0482 93.3363 50.1654 93.9574 50.0482L99.0498 49.1985C99.0498 49.1985 101.634 48.7004 102.156 48.9524C102.677 49.2044 103.363 50.4467 104.125 50.1244C104.886 49.8021 104.482 49.5384 105.631 49.5384C106.341 49.5417 107.047 49.6443 107.728 49.8431C107.728 49.8431 107.834 49.5443 108.361 49.5384H109.305C109.305 49.5384 111.303 50.0658 111.619 50.0658C111.936 50.0658 114.297 49.5443 114.38 49.5384C114.462 49.5325 116.724 48.9524 116.724 48.9524C117.203 49.454 117.811 49.8147 118.482 49.9955C119.337 50.1068 120.24 49.8783 120.884 50.1654C121.529 50.4526 123.65 50.0482 123.65 50.0482C124.156 50.0515 124.661 50.0907 125.162 50.1654C125.818 50.3153 126.502 50.2951 127.148 50.1068C128.337 49.7926 129.584 49.7725 130.782 50.0482C132.686 50.394 134.438 49.5267 135.247 49.5208C136.056 49.515 139.29 49.8783 140.404 49.8783C141.517 49.8783 144.465 50.2768 146.516 50.0482C148.567 49.8197 149.909 50.3354 151.286 50.3354C152.663 50.3354 154.134 50.2768 154.45 50.2768C154.767 50.2768 156.29 49.2806 158.47 49.5208C160.65 49.7611 158.71 49.222 160.052 49.5208C161.394 49.8197 162.455 50.1068 163.023 50.1654C163.479 50.192 163.937 50.1724 164.389 50.1068L166.733 49.9369H178.418" stroke="#263238" stroke-linecap="round" stroke-linejoin="round"/>
<path opacity="0.7" d="M78.71 45.7001C78.71 45.7001 85.9471 45.7001 87.2538 45.5829C88.5606 45.4657 89.258 44.7977 89.9553 44.7977C90.6526 44.7977 94.1745 45.4657 94.1745 45.4657C94.2772 45.2472 94.445 45.0657 94.6547 44.9461C94.8645 44.8266 95.1061 44.7747 95.3465 44.7977C96.3017 44.7977 95.8153 44.8856 96.6943 45.2372C97.5733 45.5888 97.1162 45.2372 97.5792 45.5829C98.2693 45.8928 98.9989 46.1058 99.7474 46.2158C99.7474 46.2158 103.011 46.3681 103.134 45.5829C103.257 44.7977 104.892 46.2158 104.892 46.2158C104.892 46.2158 109.323 45.5829 111.034 45.5829C112.745 45.5829 117.034 45.2372 117.034 45.2372C117.034 45.2372 120.55 45.7001 120.714 45.7001C120.879 45.7001 121.459 46.6201 122.086 46.2158C122.713 45.8114 123.316 45.3485 124.06 45.4657C124.752 45.6371 125.42 45.8889 126.053 46.2158L127.688 45.3485L129.563 45.4657C129.563 45.4657 131.473 46.7373 132.839 46.2158C133.878 45.8003 134.894 45.3269 135.88 44.7977L137.562 46.2158H138.664L141.928 45.5829C142.179 45.8917 142.517 46.1173 142.899 46.2302C143.281 46.3432 143.688 46.3381 144.067 46.2158C145.449 45.8173 158.664 46.2158 162.027 46.2158C165.391 46.2158 166.129 45.3485 166.129 45.3485L168.72 46.2158H181.612" stroke="#263238" stroke-linecap="round" stroke-linejoin="round"/>
</g>
<path opacity="0.2" d="M192.781 48.677C192.072 50.7866 191.556 52.0641 191.556 52.0641H71.4259C71.4259 52.0641 70.8399 50.8335 70.0371 48.677H192.781Z" fill="black"/>
<path opacity="0.2" d="M195.283 39.8049C194.879 41.5629 194.433 43.2799 193.994 44.7976H68.7306C68.297 43.3092 67.8516 41.6274 67.4648 39.8049H195.283Z" fill="black"/>
<path d="M191.556 52.064H71.4263C68.041 44.3259 66.2474 35.9856 66.1523 27.5399H196.854C196.854 38.8966 191.556 52.064 191.556 52.064Z" stroke="#263238" stroke-linecap="round" stroke-linejoin="round"/>
<path d="M58.2767 23.6724H54.6963V48.6828H58.2767V23.6724Z" fill="#757575"/>
<path opacity="0.2" d="M58.2064 41.264H54.7197V48.6828H58.2064V41.264Z" fill="black"/>
<path d="M58.2767 23.6724H54.6963V48.6828H58.2767V23.6724Z" stroke="#263238" stroke-linecap="round" stroke-linejoin="round"/>
<path d="M208.263 23.6724H204.683V48.6828H208.263V23.6724Z" fill="#757575"/>
<path opacity="0.2" d="M208.263 41.264H204.653V48.6828H208.263V41.264Z" fill="black"/>
<path d="M208.263 23.6724H204.683V48.6828H208.263V23.6724Z" stroke="#263238" stroke-linecap="round" stroke-linejoin="round"/>
<path d="M204.712 22.6234V40.8656H58.2472V22.6234H56.8408V42.0903H206.118V22.6234H204.712Z" fill="#999999" stroke="#263238" stroke-linecap="round" stroke-linejoin="round"/>
<path d="M213.367 53.3532V94.2618C213.367 94.9519 213.093 95.6137 212.605 96.1016C212.117 96.5896 211.455 96.8637 210.765 96.8637H52.1761C51.486 96.8637 50.8242 96.5896 50.3363 96.1016C49.8483 95.6137 49.5742 94.9519 49.5742 94.2618V53.3532C49.5742 52.6631 49.8483 52.0013 50.3363 51.5134C50.8242 51.0255 51.486 50.7513 52.1761 50.7513H125.25V53.3532C125.25 53.3532 112.774 64.1766 91.2623 68.1673C94.3446 82.1199 111.186 92.7793 131.509 92.7793C151.831 92.7793 168.673 82.1082 171.761 68.1673C150.22 64.1766 137.744 53.3532 137.744 53.3532V50.7279H210.783C211.125 50.7302 211.463 50.8 211.779 50.9332C212.094 51.0665 212.38 51.2606 212.62 51.5045C212.86 51.7483 213.049 52.0371 213.177 52.3544C213.306 52.6716 213.37 53.011 213.367 53.3532Z" fill="white" stroke="#263238" stroke-linecap="round" stroke-linejoin="round"/>
<path d="M213.367 53.3532V94.2618C213.367 94.604 213.3 94.9428 213.168 95.2589C213.037 95.5749 212.845 95.862 212.603 96.1037C212.361 96.3454 212.073 96.5369 211.757 96.6673C211.441 96.7977 211.102 96.8644 210.759 96.8637H52.1761C51.8339 96.8644 51.4949 96.7977 51.1786 96.6673C50.8622 96.5369 50.5747 96.3454 50.3325 96.1037C50.0903 95.862 49.8981 95.5749 49.767 95.2589C49.6359 94.9428 49.5684 94.604 49.5684 94.2618V53.3532C49.5699 52.6621 49.8451 51.9997 50.3338 51.511C50.8225 51.0223 51.4849 50.747 52.1761 50.7455H125.25V53.3532C125.25 53.3532 112.768 64.1707 91.2623 68.1673C94.3446 82.1199 111.186 92.7792 131.515 92.7792C151.843 92.7792 168.673 82.1082 171.761 68.1673C150.22 64.1707 137.744 53.3532 137.744 53.3532V50.7279H210.783C211.473 50.7341 212.133 51.014 212.618 51.5062C213.102 51.9983 213.372 52.6626 213.367 53.3532Z" fill="white"/>
<path opacity="0.2" d="M209.852 53.9803V91.748C209.852 91.9991 209.802 92.2477 209.706 92.4795C209.609 92.7114 209.468 92.9218 209.29 93.0988C209.112 93.2758 208.9 93.4159 208.668 93.5109C208.436 93.6059 208.187 93.654 207.936 93.6525H53.7356C53.4852 93.6533 53.2372 93.6045 53.0058 93.5091C52.7744 93.4137 52.5642 93.2734 52.3872 93.0964C52.2102 92.9194 52.0699 92.7091 51.9745 92.4777C51.879 92.2463 51.8303 91.9983 51.8311 91.748V53.9803C51.8303 53.7294 51.8789 53.4809 51.9742 53.2488C52.0695 53.0167 52.2096 52.8057 52.3865 52.6278C52.5633 52.4498 52.7735 52.3085 53.0049 52.2117C53.2364 52.115 53.4847 52.0649 53.7356 52.0641H125.228V53.3533C125.228 53.3533 112.746 64.1708 91.2396 68.1674C94.3219 82.12 111.164 92.7794 131.492 92.7794C151.82 92.7794 168.65 82.1083 171.738 68.1674C150.197 64.1708 137.721 53.3533 137.721 53.3533V52.0641H207.953C208.458 52.0687 208.941 52.2727 209.297 52.6315C209.652 52.9904 209.852 53.4751 209.852 53.9803Z" fill="white"/>
<path d="M213.367 53.3532V94.2618C213.367 94.604 213.3 94.9428 213.168 95.2589C213.037 95.5749 212.845 95.862 212.603 96.1037C212.361 96.3454 212.073 96.5369 211.757 96.6673C211.441 96.7977 211.102 96.8644 210.759 96.8637H52.1761C51.8339 96.8644 51.4949 96.7977 51.1786 96.6673C50.8622 96.5369 50.5747 96.3454 50.3325 96.1037C50.0903 95.862 49.8981 95.5749 49.767 95.2589C49.6359 94.9428 49.5684 94.604 49.5684 94.2618V53.3532C49.5699 52.6621 49.8451 51.9997 50.3338 51.511C50.8225 51.0223 51.4849 50.747 52.1761 50.7455H125.25V53.3532C125.25 53.3532 112.768 64.1707 91.2623 68.1673C94.3446 82.1199 111.186 92.7792 131.515 92.7792C151.843 92.7792 168.673 82.1082 171.761 68.1673C150.22 64.1707 137.744 53.3532 137.744 53.3532V50.7279H210.783C211.473 50.7341 212.133 51.014 212.618 51.5062C213.102 51.9983 213.372 52.6626 213.367 53.3532V53.3532Z" stroke="#263238" stroke-linecap="round" stroke-linejoin="round"/>
<path opacity="0.2" d="M160.98 108.988L168.768 130.711C168.768 130.711 172.138 106.802 174.148 106.802C176.157 106.802 180.488 119.876 180.488 119.876C180.488 119.876 183.16 113.055 185.692 112.809C188.223 112.563 190.514 129.557 190.514 129.557L190.907 167.278L187.713 224.325C187.713 224.325 167.338 201.881 161.396 196.097C155.454 190.313 149.776 177.585 148.135 175.001C146.494 172.417 146.078 158.886 146.078 158.886C148.155 156.228 149.241 152.929 149.149 149.557C149.149 149.557 153.931 141.552 153.638 135.645C153.345 129.738 152.606 106.785 160.98 108.988Z" fill="black" fill-opacity="0.7"/>
<path d="M222.282 214.222L191.435 230.448C191.435 230.284 187.38 223.715 182.481 216.285C180.266 212.921 177.875 209.388 175.607 206.188C171.892 200.955 167.168 196.437 166.764 195.452C165.592 192.522 156.556 181.553 154.534 177.286C152.513 173.02 152.05 159.747 151.159 156.624C150.268 153.501 152.823 150.518 154.874 149.065C156.925 147.611 159.076 143.791 159.076 143.791C159.076 143.791 156.808 134.954 156.785 130.459C156.761 125.965 155.232 110.277 157.06 108.812C158.888 107.347 160.523 107.963 160.98 108.971C162.48 112.293 163.828 120.65 164.983 124.5C166.137 128.35 168.305 139.519 169.372 140.322C170.438 141.124 172.337 138.112 172.337 138.112C172.337 138.112 172.519 128.736 172.923 124.851L172.337 112.545C172.337 112.545 171.241 105.15 173.79 104.447C177.306 103.48 178.59 105.689 178.988 106.621C179.387 107.552 181.027 112.92 181.027 112.92L181.121 113.289C181.121 113.325 181.121 113.36 181.121 113.401V113.465C181.148 113.567 181.178 113.678 181.209 113.799C181.273 114.045 181.35 114.338 181.432 114.672C182.211 117.725 183.711 123.837 183.647 125.343C183.559 127.377 182.85 138.64 183.852 140.978L185.411 125.42C185.411 125.42 182.897 113.43 183.629 111.701C184.362 109.973 187.813 111.883 188.223 112.563C188.634 113.242 191.986 117.356 192.583 118.927L193.169 120.497C193.169 120.497 193.996 116.782 195.935 117.749C197.875 118.716 198.115 123.439 198.25 125.502C198.385 127.564 199.791 140.831 200.008 140.855C200.225 140.878 202.463 147.77 202.158 152.323C201.52 162.068 203.207 169.317 203.266 173.056C203.325 176.794 200.506 185.455 200.506 185.455C200.606 185.625 202.446 188.754 202.95 191.503C203.319 193.519 209.888 200.803 215.256 206.598C218.988 210.595 222.118 213.865 222.282 214.222Z" fill="white"/>
<path opacity="0.4" d="M182.486 216.296C180.271 212.933 177.881 209.399 175.613 206.2C171.897 200.967 167.174 196.449 166.77 195.464C165.598 192.534 156.562 181.564 154.54 177.298C152.518 173.032 152.055 159.759 151.165 156.636C150.274 153.512 152.829 150.53 154.88 149.076C156.931 147.623 159.082 143.802 159.082 143.802C159.082 143.802 156.814 134.965 156.79 130.471C156.767 125.976 155.237 110.289 157.066 108.824C158.894 107.359 160.529 107.974 160.986 108.982C162.486 112.305 163.834 120.661 164.988 124.511C166.143 128.361 168.311 139.53 169.378 140.333C170.444 141.136 172.343 138.124 172.343 138.124C172.343 138.124 172.524 128.748 172.929 124.863L172.343 112.557C172.343 112.557 171.247 105.162 173.796 104.458C177.312 103.491 178.595 105.701 178.994 106.632C179.392 107.564 181.033 112.932 181.033 112.932L181.127 113.301C181.127 113.336 181.127 113.371 181.127 113.412V113.477C181.15 113.578 181.18 113.69 181.215 113.811C181.279 114.057 181.355 114.35 181.438 114.684C180.529 113.248 179.281 112.024 177.611 111.701C172.923 110.787 173.937 116.003 174.382 119.132C174.635 121.208 174.585 123.31 174.236 125.373L175.408 124.699C174.564 126.205 173.357 138.722 173.357 141.505C173.357 144.289 171.153 145.215 169.178 144.4C167.204 143.586 166.5 130.811 165 128.519C163.5 126.228 159.328 130.606 159.14 134.608C158.953 138.61 162.686 150.547 161.801 153.36C160.916 156.173 160.928 166.838 160.928 166.838L159.849 164.09C159.92 164.465 159.849 165.725 157.593 169.434C156.746 170.777 156.198 172.286 155.986 173.86C155.775 175.433 155.905 177.034 156.368 178.552C157.746 181.594 164.731 189.61 165.903 190.436C165.903 190.436 166.752 186.955 169.419 187.881C168.511 189.325 167.849 190.909 167.461 192.569C166.911 195.124 172.472 196.759 174.212 199.191C175.279 200.674 175.994 205.192 182.486 216.296Z" fill="white"/>
<path opacity="0.4" d="M215.29 206.604C209.805 201.078 200.154 195.816 200.74 194.439C201.525 192.587 200.529 188.643 198.841 185.444C197.154 182.244 199.427 177.052 199.427 177.052L200.47 180.07C201.305 176.589 201.403 172.972 200.758 169.452C199.691 163.469 198.859 165.572 198.859 165.572C198.859 165.572 199.076 160.181 200.031 157.239C200.986 154.298 201.789 147.154 200.47 142.929C199.152 138.704 196.368 139.501 195.624 140.954C194.88 142.408 195.677 148.074 196.292 149.932C196.908 151.79 194.288 154.913 194.235 152.592C194.183 150.272 193.192 143.802 193.192 143.802L195.179 130.811L193.192 120.491C193.192 120.491 194.019 116.776 195.958 117.743C197.898 118.71 198.138 123.433 198.273 125.496C198.408 127.558 199.814 140.826 200.031 140.849C200.248 140.872 202.486 147.764 202.182 152.317C201.543 162.062 203.231 169.311 203.289 173.05C203.348 176.788 200.529 185.449 200.529 185.449C200.629 185.619 202.469 188.749 202.973 191.497C203.342 193.513 209.911 200.797 215.279 206.592L215.29 206.604Z" fill="white"/>
<path opacity="0.4" d="M192.583 118.927C192.695 119.22 192.788 119.46 192.859 119.653C190.995 115.323 187.819 116.665 187.257 117.895C186.694 119.126 188.587 126.762 189.015 127.945C189.442 129.129 187.315 138.581 187.005 141.71C186.694 144.84 185.868 145.478 185.868 145.478C183.764 145.637 183.524 139.829 183.524 139.032C183.565 139.699 183.695 140.357 183.911 140.99L185.469 125.431C185.469 125.431 182.897 113.43 183.629 111.701C184.362 109.973 187.813 111.883 188.224 112.563C188.634 113.242 191.986 117.356 192.583 118.927Z" fill="white"/>
<path d="M222.282 214.222C221.883 213.32 203.582 194.884 202.944 191.497C202.428 188.672 200.494 185.444 200.494 185.444C200.494 185.444 203.313 176.8 203.254 173.044C203.196 169.288 201.496 162.056 202.147 152.311C202.451 147.758 200.219 140.867 199.996 140.843C199.773 140.82 198.367 127.553 198.238 125.49C198.109 123.427 197.869 118.704 195.923 117.737C193.978 116.77 193.158 120.485 193.158 120.485L192.572 118.915C191.986 117.344 188.622 113.231 188.212 112.551C187.801 111.871 184.356 109.955 183.617 111.69C182.879 113.424 185.452 125.396 185.452 125.396L183.905 140.972C182.903 138.628 183.612 127.371 183.699 125.338C183.787 123.304 181.033 112.914 181.033 112.914C181.033 112.914 179.381 107.57 178.994 106.609C178.607 105.648 177.312 103.468 173.796 104.435C171.247 105.138 172.343 112.533 172.343 112.533L172.929 124.839C172.536 128.742 172.343 138.101 172.343 138.101C172.343 138.101 170.444 141.107 169.378 140.31C168.311 139.513 166.143 128.35 164.988 124.488C163.834 120.626 162.486 112.281 160.986 108.959C160.529 107.951 158.894 107.336 157.066 108.801C155.237 110.266 156.761 125.947 156.79 130.447C156.82 134.948 159.082 143.779 159.082 143.779C159.082 143.779 156.931 147.576 154.88 149.053C152.829 150.53 150.274 153.483 151.165 156.612C152.055 159.742 152.518 173.02 154.54 177.275C156.562 181.529 165.575 192.511 166.77 195.441C167.174 196.425 171.897 200.943 175.613 206.176C182.908 216.449 191.435 230.202 191.435 230.437" stroke="#263238" stroke-linecap="round" stroke-linejoin="round"/>
<path d="M159.075 143.808C159.075 143.808 160.529 151.01 160.476 152.217C160.476 152.217 159.204 157.778 159.192 161.382C158.303 162.74 157.504 164.156 156.802 165.619C156.309 166.92 155.43 170.12 155.794 171.901" stroke="#263238" stroke-linecap="round" stroke-linejoin="round"/>
<path d="M156.421 154.45C156.421 154.45 159.984 154.479 159.755 155.979" stroke="#263238" stroke-linecap="round" stroke-linejoin="round"/>
<path d="M159.193 161.382C159.193 161.382 156.907 160.392 156.104 161.722" stroke="#263238" stroke-linecap="round" stroke-linejoin="round"/>
<path d="M172.349 138.124C172.349 138.124 172.185 143.644 170.731 143.205" stroke="#263238" stroke-linecap="round" stroke-linejoin="round"/>
<path d="M183.905 140.972C183.905 140.972 183.483 143.99 184.62 144.922" stroke="#263238" stroke-linecap="round" stroke-linejoin="round"/>
<path d="M193.175 120.497C193.175 120.497 194.757 128.115 195.12 129.92C195.484 131.725 193.321 140.937 193.362 143.334C193.403 145.73 194.429 149.158 194.288 150.77" stroke="#263238" stroke-linecap="round" stroke-linejoin="round"/>
<path d="M199.492 178.353C199.492 178.353 198.982 183.328 200.511 185.455" stroke="#263238" stroke-linecap="round" stroke-linejoin="round"/>
<path d="M168.768 188.198C168.768 188.198 165.358 191.304 166.606 195.124" stroke="#263238" stroke-linecap="round" stroke-linejoin="round"/>
<path d="M191.183 149.475C191.235 151.666 189.952 154.221 189.817 157.251" stroke="#263238" stroke-linecap="round" stroke-linejoin="round"/>
<path d="M180.318 147.518C181.044 149.311 179.462 153.213 179.222 154.678C179.126 155.825 179.251 156.979 179.591 158.077" stroke="#263238" stroke-linecap="round" stroke-linejoin="round"/>
<path d="M200.74 153.694C200.447 155.599 199.1 156.958 198.842 162.818" stroke="#263238" stroke-linecap="round" stroke-linejoin="round"/>
<path d="M167.467 146.961C168.451 148.033 167.789 153.155 168.053 153.993" stroke="#263238" stroke-linecap="round" stroke-linejoin="round"/>
<path d="M185.826 117.456C185.826 117.456 189.178 115.001 192.061 117.895" stroke="#263238" stroke-linecap="round" stroke-linejoin="round"/>
<path d="M174.282 111.813C174.282 111.813 174.868 110.834 177.699 111.074C180.529 111.314 181.033 112.908 181.033 112.908" stroke="#263238" stroke-linecap="round" stroke-linejoin="round"/>
<path d="M166.013 128.543C166.013 128.543 165.064 127.142 162.562 127.605C160.06 128.068 158.946 131.608 158.946 131.608" fill="white"/>
<path d="M166.013 128.543C166.013 128.543 165.064 127.142 162.562 127.605C160.06 128.068 158.946 131.608 158.946 131.608" stroke="#263238" stroke-linecap="round" stroke-linejoin="round"/>
<path d="M200.013 140.855C200.013 140.855 197.927 137.831 195.419 139.126" stroke="#263238" stroke-linecap="round" stroke-linejoin="round"/>
<path opacity="0.2" d="M111.14 118.704C114.656 121.429 111.69 138.153 111.69 138.153L112.001 143.597L118.031 140.972L120.779 152.604C120.779 152.604 120.709 156.864 122.942 158.464C122.942 158.464 123.492 168.022 122.942 175.007C122.391 181.992 111.222 190.202 107.372 197.533C103.522 204.864 78.4115 226.411 78.4115 226.411L57.1514 216.296L72.5222 154.216L86.2932 136.513L94.4561 116.149C94.4561 116.149 95.8567 129.451 95.0421 138.417L111.14 118.704Z" fill="black" fill-opacity="0.7"/>
<path d="M117.058 155.856C116.525 158.423 117.809 172.493 117.586 174.392C117.363 176.29 106.171 189.042 105.608 190.008C105.045 190.975 97.5622 195.283 95.8218 197.339C87.6881 206.827 83.2462 215.564 79.6775 224.325C78.9919 226.012 78.3356 227.706 77.691 229.405L45.4141 210.653C48.1272 207.29 50.6881 204.301 53.0321 201.582C57.7201 196.068 61.4529 191.655 63.2812 187.489C63.8423 186.425 64.4849 185.406 65.2033 184.441C65.9299 183.41 66.5804 182.56 66.5804 182.56C66.5804 182.56 64.2364 175.956 64.7814 173.882C65.3263 171.807 64.1075 154.755 64.1075 154.755C64.1075 154.755 62.5194 143.146 60.9548 140.216C60.5705 139.451 60.3966 138.598 60.4508 137.743C60.527 135.065 62.0799 131.69 62.8417 127.781C63.8614 122.507 63.3691 119.899 66.5687 121.722C69.7682 123.544 68.2739 134.614 68.2739 134.614L73.1084 145.326C74.38 142.736 73.1084 135.176 73.044 133.389C73.044 133.096 73.044 132.61 72.9971 131.977C72.8975 128.895 72.6924 122.478 72.9561 119.946C72.9561 119.806 72.9561 119.677 73.003 119.56C73.3956 116.946 74.7961 108.631 75.6868 107.705C77.0112 106.334 79.1149 105.179 81.0956 108.291C82.2032 110.049 81.7285 123.99 81.7285 123.99C81.7285 123.99 86.3227 118.446 87.7174 117.093C89.1121 115.739 93.343 113.266 94.474 116.131C95.605 118.997 91.4327 127.851 91.4327 127.851C92.3058 129.902 92.4113 135.581 92.4113 135.581C92.4113 135.581 94.3861 142.677 95.5991 142.613H95.6519C96.0035 142.537 96.3902 141.247 96.7946 139.437C97.7908 135.001 98.8749 127.412 99.7246 126.75L100.311 126.281C100.337 126.247 100.369 126.218 100.404 126.193L100.621 126C102.696 124.154 107.067 120.052 107.067 120.052C107.067 120.052 107.378 118.089 111.204 118.692C115.031 119.296 109.505 130.588 109.505 130.588C108.737 134.18 107.559 143.421 107.559 143.421C107.202 147.266 107.413 157.597 107.413 157.597C107.413 157.597 109.224 151.584 109.106 149.393C108.989 147.201 112.704 141.833 113.794 140.45C114.884 139.068 119.748 139.554 118.395 142.208C117.041 144.863 117.592 153.278 117.058 155.856Z" fill="white"/>
<path opacity="0.4" d="M63.2638 187.512C63.8249 186.448 64.4675 185.429 65.1859 184.465C65.1859 184.465 63.2814 189.739 63.0938 192.546C62.9708 194.398 58.0953 197.603 53.0146 201.605C57.7319 196.091 61.4355 191.679 63.2638 187.512Z" fill="white"/>
<path opacity="0.4" d="M65.186 184.465C65.9126 183.434 66.5631 182.584 66.5631 182.584C66.5631 182.584 64.2191 175.98 64.7641 173.905C65.3091 171.831 64.0902 154.778 64.0902 154.778C64.0902 154.778 62.5021 143.17 60.9375 140.24L64.5824 146.609C64.5824 146.609 64.225 151.643 65.2622 154.403C66.2994 157.163 67.6062 165.584 67.6062 165.584C67.6062 165.584 66.0709 172.663 66.5924 175.212C67.1139 177.761 69.4638 176.835 69.4638 176.835C69.4638 176.835 70.6182 181.5 65.186 184.465Z" fill="white"/>
<path opacity="0.4" d="M73.6889 136.512C76.2029 151.233 71.8723 147.16 70.3077 143.984C68.7431 140.808 65.0689 134.796 62.3029 136.079C61.5262 136.443 60.8755 137.031 60.4336 137.767C60.5098 135.089 62.0627 131.713 62.8245 127.805C63.8441 122.531 63.3519 119.923 66.5514 121.745C69.751 123.568 68.2567 134.637 68.2567 134.637L73.0912 145.349C74.3628 142.759 73.0912 135.2 73.0267 133.413C73.0267 133.12 73.0267 132.633 72.9799 132C73.1732 133.354 73.4076 134.86 73.6889 136.512Z" fill="white"/>
<path opacity="0.4" d="M79.8416 121.968C79.8416 121.968 77.1284 118.417 74.7727 118.599C74.3682 118.62 73.9789 118.76 73.653 119.001C73.327 119.241 73.0786 119.572 72.9385 119.952C72.9385 119.812 72.9385 119.683 72.9854 119.565C73.378 116.952 74.7785 108.637 75.6692 107.711C76.9936 106.339 79.0973 105.185 81.078 108.297C82.1856 110.055 81.7109 123.996 81.7109 123.996C81.7109 123.996 86.3051 118.452 87.6998 117.098C89.0945 115.745 93.3254 113.272 94.4564 116.137C95.5874 119.003 91.4151 127.857 91.4151 127.857C92.2882 129.908 92.3937 135.587 92.3937 135.587C92.3937 135.587 94.3685 142.683 95.5815 142.619C92.9094 147.647 91.1279 136.53 91.1279 136.53C91.5264 134.233 90.1083 129.252 90.2489 127.939C90.3896 126.627 87.7877 121.986 83.4044 123.251C79.0212 124.517 82.1856 141.839 82.1856 141.839C81.3194 143.219 80.8155 144.795 80.7206 146.422C79.3669 144.752 80.7206 139.976 80.7206 139.976C79.5193 135.405 79.8416 121.968 79.8416 121.968Z" fill="white"/>
<path opacity="0.4" d="M100.27 126.263C98.4006 128.227 98.6584 133.19 96.7539 139.419C97.7501 134.983 98.8342 127.394 99.6839 126.732L100.27 126.263Z" fill="white"/>
<path opacity="0.4" d="M117.059 155.856C116.525 158.423 117.809 172.493 117.586 174.391C117.363 176.29 106.171 189.041 105.608 190.008C105.046 190.975 97.5625 195.282 95.822 197.339C87.6884 206.827 83.2465 215.564 79.6777 224.325C81.022 219.783 82.6444 215.329 84.5357 210.987C88.3857 202.332 89.9562 200.791 92.265 198.318C94.5738 195.845 94.3219 190.589 94.3219 190.589C96.026 190.178 97.7727 189.972 99.5255 189.973C102.456 189.973 111.128 177.609 114.111 175.44C117.094 173.272 117.627 173.272 114.111 168.49C110.595 163.709 111.591 169.258 110.536 169.076C109.482 168.895 108.907 171.204 108.907 171.204C108.538 166.328 105.391 160.656 104.729 159.238C104.067 157.819 106.335 149.504 105.866 147.189C105.397 144.875 107.882 130.781 107.882 130.781C107.882 130.781 107.571 125.373 102.672 125.355C101.921 125.313 101.178 125.537 100.574 125.988C102.649 124.142 107.02 120.04 107.02 120.04C107.02 120.04 107.331 118.077 111.158 118.68C114.984 119.284 109.458 130.576 109.458 130.576C108.691 134.168 107.513 143.41 107.513 143.41C107.155 147.254 107.366 157.585 107.366 157.585C107.366 157.585 109.177 151.573 109.06 149.381C108.943 147.189 112.658 141.822 113.748 140.439C114.838 139.056 119.702 139.542 118.348 142.197C116.994 144.851 117.592 153.278 117.059 155.856Z" fill="white"/>
<path d="M77.6851 229.458C81.664 218.951 86.1118 208.696 95.8218 197.369C97.5798 195.341 105.04 191.034 105.608 190.038C106.176 189.042 117.369 176.314 117.586 174.421C117.803 172.528 116.525 158.452 117.058 155.886C117.592 153.319 116.971 144.857 118.318 142.22C119.666 139.583 114.802 139.103 113.718 140.462C112.634 141.822 108.931 147.236 109.03 149.405C109.13 151.573 107.337 157.609 107.337 157.609C107.337 157.609 107.126 147.277 107.483 143.433C107.483 143.433 108.655 134.192 109.429 130.6C109.429 130.6 114.949 119.302 111.128 118.704C107.307 118.106 106.991 120.063 106.991 120.063C106.991 120.063 100.891 125.795 99.6835 126.732C98.4763 127.67 96.8297 142.32 95.6167 142.595C94.4036 142.871 92.3761 135.563 92.3761 135.563C92.3761 135.563 92.2706 129.885 91.3975 127.834C91.3975 127.834 95.5639 119.003 94.4388 116.114C93.3137 113.225 89.0828 115.727 87.6822 117.075C86.2817 118.423 81.6933 123.972 81.6933 123.972C81.6933 123.972 82.168 110.019 81.0604 108.273C79.0798 105.15 76.9584 106.304 75.6517 107.687C74.7609 108.613 73.3604 116.928 72.9678 119.542C72.5752 122.156 72.9678 131.578 73.0088 133.372C73.0498 135.165 74.3449 142.718 73.0733 145.308L68.2388 134.596C68.2388 134.596 69.7389 123.515 66.5335 121.704C63.3281 119.894 63.8262 122.507 62.8065 127.764C61.7869 133.02 59.3609 137.292 60.9196 140.228C62.4784 143.164 64.0723 154.766 64.0723 154.766C64.0723 154.766 65.2795 171.819 64.7462 173.893C64.2129 175.968 66.5628 182.578 66.5628 182.578C66.5628 182.578 63.8555 186.147 63.2636 187.506C60.5329 193.712 53.6239 200.498 45.4082 210.706" stroke="#263238" stroke-linecap="round" stroke-linejoin="round"/>
<path d="M81.7113 124.007C81.0308 125.014 80.6862 126.21 80.7269 127.424C80.7269 129.651 82.186 141.839 82.186 141.839C82.186 141.839 81.1253 143.093 81.0726 144.183" stroke="#263238" stroke-linecap="round" stroke-linejoin="round"/>
<path d="M107.349 157.579C107.509 159.638 108.039 161.651 108.913 163.521C110.284 166.229 109.839 167.723 109.37 169.323C109.056 170.725 108.889 172.157 108.872 173.595" stroke="#263238" stroke-linecap="round" stroke-linejoin="round"/>
<path d="M73.6065 142.923C73.6065 142.923 74.6262 146.158 72.7334 147.693" stroke="#263238" stroke-linecap="round" stroke-linejoin="round"/>
<path d="M95.634 142.595C95.634 142.595 95.8332 143.867 94.0342 143.984" stroke="#263238" stroke-linecap="round" stroke-linejoin="round"/>
<path d="M107.718 127.945C107.718 127.945 103.205 123.023 99.7012 126.732" stroke="#263238" stroke-linecap="round" stroke-linejoin="round"/>
<path d="M89.4345 125.179C89.4345 125.179 87.3542 122.548 85.5493 122.706C83.7444 122.865 81.3067 123.966 81.0312 125.414" stroke="#263238" stroke-linecap="round" stroke-linejoin="round"/>
<path d="M109.757 167.74C110.485 168.782 111.015 169.948 111.321 171.18" stroke="#263238" stroke-linecap="round" stroke-linejoin="round"/>
<path d="M98.0372 147.734C96.6367 150.342 97.3047 154.766 96.7891 155.979" stroke="#263238" stroke-linecap="round" stroke-linejoin="round"/>
<path d="M83.1995 143.404C83.5277 144.904 82.4905 147.348 82.3323 149.147C82.174 150.946 83.6449 153.723 83.3753 156.249" stroke="#263238" stroke-linecap="round" stroke-linejoin="round"/>
<path d="M73.6883 149.545C73.6883 149.545 72.4636 152.37 72.5163 154.233C72.569 156.097 73.2312 160.181 73.2312 160.181" stroke="#263238" stroke-linecap="round" stroke-linejoin="round"/>
<path d="M64.6816 149.41C64.6816 149.41 64.2362 152.34 65.2676 154.403C66.2989 156.466 67.301 160.849 67.301 160.849" stroke="#263238" stroke-linecap="round" stroke-linejoin="round"/>
<path d="M66.5625 182.578C67.1027 182.428 67.5854 182.12 67.948 181.693C68.3106 181.265 68.5363 180.739 68.5959 180.181" stroke="#263238" stroke-linecap="round" stroke-linejoin="round"/>
<path d="M96.0206 191.509C96.0206 191.509 97.1399 195.652 94.9951 198.318" stroke="#263238" stroke-linecap="round" stroke-linejoin="round"/>
<path d="M60.4629 137.274C60.4629 137.274 63.6156 134.198 66.0006 136.794" stroke="#263238" stroke-linecap="round" stroke-linejoin="round"/>
<path d="M72.9854 119.565C72.9854 119.565 75.3293 117.11 78.0718 119.735" stroke="#263238" stroke-linecap="round" stroke-linejoin="round"/>
</svg>
